<?xml version="1.0" encoding="utf-8"?>
<!-- Generator: Adobe Illustrator 21.0.0, SVG Export Plug-In . SVG Version: 6.00 Build 0)  -->
<svg version="1.1" id="Layer_1" xmlns="http://www.w3.org/2000/svg" xmlns:xlink="http://www.w3.org/1999/xlink" x="0px" y="0px"
	 viewBox="0 0 200 200" style="enable-background:new 0 0 200 200;" xml:space="preserve">
<style type="text/css">
	.st0{fill:#808080;}
</style>

<g>
	
		<animateTransform  accumulate="none" additive="replace" attributeName="transform" attributeType="XML" calcMode="linear" dur="10s" fill="remove" from="0 100 100" repeatCount="indefinite" restart="always" to="360 100 100" type="rotate">
		</animateTransform>
	<path class="st0" d="M100,50L100,50C99.9,50,99.9,50,100,50C99.9,50,99.9,50,100,50C99.9,50,99.9,50,100,50L100,50L100,50L100,50
		L100,50L100,50L100,50L100,50L100,50L100,50L100,50L100,50L100,50L100,50L100,50L100,50L100,50L100,50L100,50L100,50L100,50L100,50
		L100,50L100,50L100,50L100,50L100,50L100,50c-0.2,0-0.2,0-0.2,0l0,0l0,0l0,0l0,0l0,0c-0.2,0-0.3,0-0.6,0l0,0l0,0l0,0c0,0,0,0-0.1,0
		l0,0l0,0l0,0l0,0l0,0l0,0l0,0l0,0l0,0l0,0c-0.1,0-0.1,0-0.2,0c-0.2,0-0.3,0.1-0.3,0.3c-0.5,0.2-0.4,0.3-0.2,0.3l0,0
		c0.5,0,1,0,1.5,0c0.2,0,0.3-0.1,0.3-0.3S100.2,50,100,50L100,50L100,50z M97,50.1L97,50.1c-0.1,0-0.2,0-0.3,0l0,0l0,0l0,0l0,0l0,0
		l0,0l0,0l0,0l0,0l0,0l0,0l0,0l0,0l0,0l0,0l0,0l0,0l0,0l0,0l0,0l0,0l0,0l0,0l0,0l0,0l0,0l0,0l0,0l0,0l0,0l0,0l0,0l0,0l0,0l0,0l0,0
		l0,0l0,0l0,0l0,0l0,0l0,0l0,0l0,0l0,0l0,0l0,0l0,0l0,0l0,0l0,0l0,0l0,0l0,0l0,0l0,0l0,0l0,0l0,0l0,0l0,0l0,0l0,0l0,0l0,0l0,0l0,0
		l0,0l0,0l0,0l0,0l0,0l0,0l0,0l0,0l0,0l0,0l0,0l0,0l0,0l0,0l0,0l0,0l0,0l0,0l0,0h-0.1l0,0c0,0-0.1,0-0.2,0c-0.2,0-0.3,0.2-0.3,0.3
		c0,0.2,0.1,0.3,0.3,0.3l0,0c0.5,0,1-0.1,1.5-0.1c0.2,0,0.3-0.2,0.3-0.3C97.3,50.2,97.2,50.1,97,50.1L97,50.1z M94,50.3L94,50.3
		c-0.3,0.1-0.7,0.1-1,0.2l0,0l0,0l0,0l0,0l0,0l0,0l0,0l0,0l0,0l0,0l0,0l0,0l0,0l0,0l0,0l0,0l0,0l0,0l0,0l0,0l0,0l0,0l0,0l0,0h-0.1
		l0,0l0,0l0,0l0,0l0,0c0,0,0,0-0.1,0l0,0l0,0l0,0l0,0c-0.2,0-0.3,0.2-0.2,0.3c0,0.1,0.2,0.2,0.3,0.2l0,0c0.5,0,1-0.2,1.5-0.2
		c0.2,0,0.3-0.1,0.2-0.3C94.3,50.5,94.2,50.3,94,50.3L94,50.3z M91.1,50.8C91.1,50.8,91,50.8,91.1,50.8c-0.2,0-0.3,0-0.4,0l0,0l0,0
		l0,0l0,0l0,0l0,0l0,0l0,0l0,0l0,0l0,0l0,0l0,0l0,0l0,0l0,0h-0.1l0,0l0,0l0,0C90.3,50.9,90,51,89.8,51s-0.2,0.2-0.2,0.3
		s0.2,0.2,0.3,0.2l0,0c0.5-0.1,1-0.2,1.5-0.3c0.2,0,0.3-0.2,0.2-0.3C91.3,50.9,91.2,50.8,91.1,50.8L91.1,50.8z M88.2,51.4L88.2,51.4
		c-0.1,0-0.1,0-0.2,0l0,0l0,0l0,0l0,0l0,0l0,0l0,0l0,0l0,0l0,0l0,0l0,0l0,0l0,0l0,0l0,0l0,0l0,0l0,0l0,0l0,0l0,0h-0.1l0,0l0,0l0,0
		l0,0l0,0l0,0l0,0l0,0l0,0l0,0l0,0l0,0l0,0l0,0l0,0l0,0l0,0l0,0l0,0l0,0l0,0l0,0l0,0l0,0l0,0l0,0l0,0l0,0l0,0l0,0l0,0l0,0l0,0l0,0
		l0,0l0,0l0,0l0,0l0,0l0,0l0,0l0,0h-0.1l0,0l0,0l0,0c-0.2,0-0.3,0.1-0.5,0.1s-0.2,0.2-0.2,0.3c0.1,0.1,0.2,0.2,0.3,0.2h0.1
		c0.4-0.1,0.9-0.3,1.4-0.3c0.2,0,0.2-0.2,0.2-0.3C88.4,51.5,88.3,51.4,88.2,51.4L88.2,51.4z M85.3,52.2L85.3,52.2
		c-0.1,0-0.2,0-0.3,0l0,0l0,0l0,0h-0.1l0,0l0,0l0,0l0,0l0,0l0,0l0,0l0,0l0,0l0,0l0,0l0,0c-0.1,0-0.2,0-0.3,0.1l0,0l0,0l0,0l0,0l0,0
		l0,0l0,0l0,0l0,0l0,0l0,0l0,0l0,0l0,0l0,0l0,0l0,0l0,0h-0.1l0,0c-0.2,0.1-0.3,0.1-0.4,0.2s-0.2,0.2-0.2,0.3
		c0.1,0.1,0.2,0.2,0.3,0.2c0.1,0,0.1,0,0.1,0c0.5-0.2,1-0.3,1.4-0.5c-0.2,0.2-0.2,0-0.2-0.1C85.5,52.3,85.4,52.2,85.3,52.2
		L85.3,52.2z M82.4,53.2L82.4,53.2c-0.4,0.1-0.6,0.2-0.9,0.3l0,0l0,0l0,0l0,0l0,0l0,0l0,0l0,0l0,0h-0.1l0,0l0,0l0,0l0,0l0,0l0,0l0,0
		l0,0l0,0l0,0l0,0l0,0l0,0l0,0l0,0l0,0l0,0l0,0l0,0l0,0l0,0l0,0l0,0l0,0l0,0l0,0l0,0l0,0l0,0l0,0h-0.1l0,0l0,0
		c-0.2,0-0.2,0.2-0.2,0.4c0.1,0.1,0.2,0.1,0.3,0.1c0.1,0,0.1,0,0.1,0c0.4-0.2,0.9-0.3,1.4-0.5c0.2,0,0.2-0.2,0.2-0.3
		C82.7,53.3,82.5,53.2,82.4,53.2L82.4,53.2z M79.7,54.3L79.7,54.3L79.7,54.3L79.7,54.3L79.7,54.3c-0.2,0-0.3,0.1-0.4,0.2l0,0h-0.1
		l0,0l0,0l0,0l0,0l0,0l0,0l0,0l0,0l0,0l0,0l0,0l0,0l0,0l0,0l0,0l0,0l0,0l0,0l0,0l0,0l0,0l0,0c0,0,0,0-0.1,0l0,0l0,0l0,0l0,0l0,0
		c-0.3,0.1-0.4,0.2-0.7,0.3c-0.1,0.1-0.2,0.2-0.1,0.4c0.1,0.1,0.2,0.1,0.3,0.1c0.1,0,0.1,0,0.1,0c0.4-0.2,0.9-0.5,1.3-0.6
		c0.2-0.1,0.2-0.2,0.2-0.4C79.9,54.3,79.8,54.3,79.7,54.3L79.7,54.3z M77,55.6C76.9,55.6,76.9,55.6,77,55.6
		c-0.2,0.1-0.2,0.1-0.2,0.1l0,0l0,0l0,0l0,0l0,0l0,0l0,0l0,0l0,0l0,0c-0.4,0.2-0.8,0.4-1.1,0.6c-0.1,0-0.2,0.2-0.1,0.4
		c0.1,0.1,0.2,0.1,0.2,0.1h0.1c0.5-0.3,0.8-0.5,1.3-0.7c0.1,0,0.1-0.2,0.1-0.3C77.2,55.7,77.1,55.6,77,55.6L77,55.6z M74.4,57
		c-0.1,0-0.1,0-0.2,0c-0.1,0.1-0.2,0.1-0.3,0.2l0,0l0,0l0,0l0,0l0,0l0,0l0,0l0,0l0,0l0,0l0,0l0,0l0,0l0,0l0,0l0,0l0,0l0,0l0,0l0,0
		c-0.3,0.2-0.6,0.3-0.8,0.5C73,57.8,72.9,58,73,58.1c0.1,0,0.2,0.1,0.2,0.1h0.1c0.4-0.3,0.9-0.5,1.3-0.8c0.1-0.1,0.2-0.2,0.1-0.4
		C74.6,57.1,74.5,57,74.4,57L74.4,57z M71.9,58.7c-0.1,0-0.1,0-0.2,0s-0.1,0-0.2,0.1l0,0l0,0l0,0v0.1l0,0l0,0l0,0l0,0l0,0l0,0l0,0
		l0,0l0,0l0,0l0,0l0,0l0,0l0,0l0,0l0,0l0,0l0,0l0,0l0,0c-0.3,0.1-0.5,0.3-0.8,0.5l0,0l0,0l0,0l0,0l0,0l0,0l0,0l0,0l0,0l0,0l0,0
		c-0.1,0.1-0.2,0.3-0.1,0.4c0.1,0,0.2,0.1,0.2,0.1h0.1c0.4-0.3,0.8-0.6,1.2-0.9c0.1-0.1,0.2-0.3,0-0.3C72,58.7,72,58.7,71.9,58.7
		L71.9,58.7z M69.5,60.5c-0.1,0-0.1,0-0.2,0c0,0-0.1,0-0.2,0.1l0,0l0,0l0,0l0,0l0,0l0,0l0,0l0,0l0,0l0,0l0,0l0,0l0,0l0,0
		c0,0,0,0,0,0.1l0,0l0,0l0,0H69l0,0l0,0l0,0l0,0l0,0v0.1l0,0l0,0l0,0l0,0l0,0l0,0l0,0l0,0l0,0l0,0l0,0l0,0l0,0l0,0l0,0l0,0l0,0l0,0
		l0,0l0,0l0,0l0,0l0,0l0,0c-0.2,0.1-0.3,0.2-0.4,0.3s-0.1,0.3,0,0.4c0,0,0.1,0.1,0.2,0.1s0.1,0,0.2,0c0.4-0.3,0.8-0.6,1.2-1
		c0.1-0.1,0.1-0.3,0-0.3C69.7,60.5,69.5,60.5,69.5,60.5L69.5,60.5z M67.2,62.3C67.2,62.3,67.1,62.3,67.2,62.3
		c-0.2,0.2-0.4,0.3-0.5,0.4l0,0l0,0l0,0l0,0l0,0l0,0l0,0l0,0l0,0l0,0l0,0l0,0l0,0l0,0l0,0l0,0c-0.2,0.2-0.4,0.4-0.6,0.6
		c-0.1,0.1-0.1,0.3,0,0.3c0,0,0.1,0.1,0.2,0.1s0.1,0,0.2,0c0.3-0.3,0.8-0.6,1.1-1c0.1-0.1,0.1-0.3,0-0.3
		C67.3,62.3,67.3,62.3,67.2,62.3L67.2,62.3z M65,64.4c-0.1,0-0.2,0-0.2,0c-0.1,0.1-0.2,0.2-0.3,0.3l0,0l0,0l0,0l0,0l0,0l0,0l0,0l0,0
		l0,0l0,0l0,0l0,0l0,0l0,0l0,0l0,0l0,0l0,0l0,0l0,0l0,0l0,0l0,0l0,0l0,0l0,0l0,0l0,0v0.1l0,0l0,0l0,0l-0.1,0.1l0,0h-0.1l0,0l0,0l0,0
		V65l0,0l0,0l0,0h-0.1l0,0l0,0l0,0h0.1l0,0l0,0l0,0v0.1l0,0l0,0l0,0h-0.1l0,0l0,0l0,0l0,0l0,0c0,0,0,0,0,0.1l0,0
		c-0.1,0.1-0.1,0.3,0,0.3c0,0.1,0.1,0.1,0.1,0.1c0.1,0,0.2-0.1,0.2-0.1c0.3-0.4,0.7-0.7,1-1.1c0.1-0.1,0.1-0.3,0-0.3
		C65.2,64.4,65.1,64.4,65,64.4L65,64.4z M63,66.6c-0.1,0-0.2,0-0.2,0.1c-0.2,0.2-0.4,0.3-0.5,0.5l0,0l0,0l0,0l0,0l0,0l0,0l0,0l0,0
		l0,0l0,0l0,0l0,0l0,0l0,0l0,0l0,0l0,0l0,0l0,0l0,0l0,0l0,0c0,0,0,0,0,0.1l0,0l0,0l0,0h-0.1l0,0c-0.1,0.1-0.1,0.2-0.3,0.3
		c-0.1,0.1-0.1,0.3,0.1,0.3c0,0.1,0,0.1,0.1,0.1s0.2-0.1,0.2-0.1c0.3-0.4,0.6-0.8,1-1.1c0.1-0.1,0.1-0.3,0-0.3
		C63.1,66.6,63,66.6,63,66.6L63,66.6z M61,68.8c0,0-0.1,0-0.2,0.1c-0.3,0.4-0.6,0.8-0.9,1.2c-0.1,0.1,0,0.3,0,0.3
		c0,0.1,0,0.1,0.1,0.1s0.2-0.1,0.2-0.1c0.3-0.4,0.6-0.8,0.9-1.2C61.3,69.1,61.3,68.9,61,68.8C61.1,68.8,61.1,68.8,61,68.8L61,68.8z
		 M59.3,71.2c-0.1,0-0.2,0.1-0.2,0.1c-0.1,0.1-0.1,0.2-0.2,0.3l0,0l0,0l0,0l0,0l0,0l0,0l0,0l0,0l0,0l0,0l0,0l0,0l0,0l0,0
		c-0.1,0.3-0.3,0.5-0.4,0.7l0,0l0,0l0,0l0,0l0,0l0,0l0,0l0,0l0,0l0,0l0,0c-0.1,0.1-0.1,0.3,0,0.3c0,0.1,0.1,0.1,0.1,0.1
		c0.1,0,0.2-0.1,0.2-0.1c0.3-0.4,0.5-0.8,0.9-1.3c0.1-0.1,0-0.3-0.1-0.3C59.3,71.3,59.3,71.2,59.3,71.2L59.3,71.2z M57.6,73.7
		c-0.1,0-0.1,0.1-0.2,0.1c-0.3,0.4-0.5,0.8-0.8,1.3c-0.1,0.1-0.1,0.3,0.1,0.3l0.1,0.1c0.1,0,0.2-0.1,0.2-0.2
		c0.3-0.4,0.5-0.8,0.8-1.3C57.8,73.9,57.8,73.7,57.6,73.7C57.7,73.7,57.7,73.7,57.6,73.7L57.6,73.7z M56.1,76.3
		c-0.1,0-0.1,0-0.2,0.1c-0.2,0.4-0.4,0.7-0.6,1.1l0,0l0,0l0,0l0,0l0,0l0,0l0,0l0,0l0,0l0,0v0.1l0,0c0,0,0,0.1,0,0.2s0,0.3,0.1,0.3
		s0.1,0,0.1,0c0.1,0,0.2,0,0.2-0.1c0.2-0.5,0.4-0.9,0.7-1.3c0.1-0.1,0-0.3-0.1-0.3C56.2,76.3,56.2,76.3,56.1,76.3L56.1,76.3z
		 M54.8,78.9c-0.1,0-0.2,0.1-0.3,0.2c-0.1,0.3-0.2,0.5-0.3,0.7l0,0l0,0l0,0l0,0l0,0l0,0l0,0l0,0l0,0l0,0l0,0l0,0l0,0l0,0l0,0l0,0
		l0,0l0,0l0,0l0,0l0,0l0,0c0,0,0,0,0,0.1l0,0l0,0l0,0l0,0l0,0l0,0l0,0l0,0l0,0c0,0,0,0.1-0.1,0.1l0,0C54,80.3,54,80.4,54,80.5
		c0,0.2,0,0.3,0.1,0.3s0.1,0,0.1,0c0.1,0,0.2,0,0.3-0.2c0.2-0.4,0.4-0.9,0.6-1.3c0-0.2,0-0.3-0.1-0.3C54.8,78.9,54.8,78.9,54.8,78.9
		L54.8,78.9z M53.6,81.7c-0.1,0-0.2,0.1-0.3,0.2c-0.2,0.5-0.3,1-0.5,1.4c0,0.2,0,0.3,0.2,0.3c0,0,0,0,0.1,0s0.2-0.1,0.3-0.2
		c0.2-0.4,0.4-0.9,0.5-1.3c0.1-0.2,0-0.3-0.1-0.3C53.7,81.7,53.7,81.7,53.6,81.7L53.6,81.7z M52.6,84.5c-0.1,0-0.2,0.1-0.3,0.2l0,0
		l0,0l0,0l0,0l0,0l0,0l0,0l0,0l0,0l0,0c0,0.2-0.1,0.4-0.2,0.6l0,0l0,0l0,0l0,0l0,0l0,0l0,0l0,0l0,0l0,0l0,0l0,0l0,0l0,0l0,0l0,0l0,0
		l0,0l0,0l0,0l0,0l0,0l0,0l0,0l0,0l0,0C52,85.9,52,86,52,86.2s0,0.3,0.1,0.3h0.1c0.1,0,0.2,0,0.3-0.2c0.1-0.4,0.3-0.9,0.4-1.4
		c0.1-0.2,0-0.3-0.1-0.3S52.7,84.5,52.6,84.5L52.6,84.5z M51.8,87.4c-0.1,0-0.2,0-0.3,0.2c0,0.1,0,0.2-0.1,0.3l0,0l0,0l0,0l0,0l0,0
		V88l0,0l0,0l0,0l0,0l0,0l0,0l0,0l0,0l0,0l0,0l0,0l0,0l0,0l0,0l0,0l0,0l0,0l0,0l0,0l0,0l0,0l0,0l0,0l0,0l0,0l0,0v0.1l0,0l0,0l0,0
		l0,0l0,0l0,0l0,0l0,0l0,0l0,0l0,0l0,0l0,0l0,0l0,0l0,0l0,0l0,0l0,0l0,0l0,0l0,0l0,0l0,0l0,0l0,0l0,0l0,0l0,0l0,0l0,0l0,0l0,0l0,0
		l0,0l0,0l0,0l0,0l0,0l0,0l0,0l0,0v0.2c-0.1,0.1,0,0.3,0.2,0.3h0.1c0.1,0,0.2-0.1,0.3-0.2c0.1-0.5,0.2-0.9,0.3-1.4
		c0-0.2,0-0.3-0.2-0.3C51.8,87.4,51.8,87.4,51.8,87.4L51.8,87.4z M51.2,90.3c-0.1,0-0.2,0.1-0.3,0.2c-0.1,0.2-0.1,0.3-0.1,0.4l0,0
		l0,0l0,0l0,0l0,0l0,0l0,0l0,0l0,0l0,0l0,0l0,0l0,0l0,0c0,0.2,0,0.4-0.1,0.6l0,0l0,0l0,0l0,0l0,0l0,0l0,0l0,0l0,0l0,0l0,0l0,0l0,0
		l0,0c0,0,0,0.1,0,0.2c0,0.2,0,0.3,0.2,0.3H51c0.1,0,0.3-0.1,0.3-0.2c0.1-0.5,0.1-1,0.3-1.5C51.4,90.4,51.3,90.3,51.2,90.3
		L51.2,90.3L51.2,90.3z M50.7,93.3c-0.1,0-0.3,0.1-0.3,0.2c-0.1,0.4-0.1,0.8-0.2,1.2l0,0l0,0l0,0l0,0l0,0l0,0l0,0l0,0l0,0l0,0l0,0
		l0,0l0,0l0,0l0,0l0,0l0,0l0,0l0,0l0,0c0,0.2,0.1,0.3,0.2,0.3l0,0c0.2,0,0.3-0.1,0.3-0.3c0-0.5,0.1-1,0.2-1.5
		C51,93.4,50.8,93.3,50.7,93.3L50.7,93.3L50.7,93.3z M50.3,96.2c-0.1,0-0.3,0.1-0.3,0.3c0,0.2,0,0.3,0,0.5l0,0l0,0l0,0l0,0l0,0l0,0
		l0,0l0,0l0,0l0,0l0,0l0,0l0,0l0,0l0,0l0,0c0,0.3,0,0.6,0,0.9c0,0.2,0.1,0.3,0.3,0.3l0,0c0.2,0,0.3-0.1,0.3-0.3c0-0.5,0-1,0.1-1.5
		C50.7,96.3,50.5,96.3,50.3,96.2C50.4,96.2,50.4,96.2,50.3,96.2L50.3,96.2z M50.3,99.2c-0.2,0-0.3,0.1-0.3,0.3c0,0.2,0,0.3,0,0.4
		l0,0l0,0l0,0l0,0l0,0l0,0l0,0l0,0l0,0l0,0l0,0l0,0l0,0l0,0l0,0l0,0l0,0l0,0l0,0l0,0l0,0l0,0l0,0l0,0l0,0l0,0l0,0l0,0l0,0l0,0l0,0
		l0,0l0,0l0,0l0,0l0,0l0,0l0,0l0,0l0,0c0,0.2,0,0.5,0,0.7l0,0l0,0l0,0l0,0l0,0c0,0.2,0.1,0.3,0.3,0.3l0,0c0.2,0,0.3-0.1,0.3-0.3
		c0-0.3,0-0.7,0-0.9c0-0.2,0-0.4,0-0.6C50.5,99.3,50.4,99.2,50.3,99.2L50.3,99.2L50.3,99.2z M50.3,102.2L50.3,102.2
		c-0.1,0-0.3,0.1-0.3,0.3v0.1l0,0l0,0l0,0l0,0l0,0l0,0l0,0v0.1l0,0l0,0l0,0l0,0l0,0l0,0l0,0l0,0l0,0l0,0l0,0l0,0l0,0l0,0l0,0l0,0
		l0,0l0,0l0,0l0,0l0,0l0,0l0,0l0,0l0,0l0,0l0,0v0.1l0,0l0,0l0,0l0,0l0,0l0,0l0,0l0,0l0,0v0.1l0,0l0,0l0,0l0,0l0,0l0,0l0,0
		c0,0,0,0,0,0.1l0,0c0,0.2,0,0.4,0,0.6c0,0.1,0.1,0.3,0.3,0.3l0,0c0.2,0,0.3-0.2,0.3-0.3c0-0.5,0-1-0.1-1.5
		C50.5,102.3,50.5,102.2,50.3,102.2L50.3,102.2z M50.5,105.2L50.5,105.2c-0.1,0-0.3,0.2-0.3,0.3c0,0.2,0,0.4,0,0.6l0,0l0,0l0,0l0,0
		l0,0l0,0l0,0v0.1l0,0l0,0l0,0l0,0l0,0l0,0l0,0l0,0l0,0l0,0l0,0l0,0l0,0l0,0l0,0l0,0l0,0l0,0c0,0,0,0,0,0.1l0,0l0,0l0,0
		c0,0.2,0.1,0.4,0.1,0.5s0.1,0.2,0.3,0.2l0,0c0.1,0,0.3-0.2,0.2-0.3C50.7,106.2,50.6,105.7,50.5,105.2
		C50.8,105.3,50.7,105.2,50.5,105.2L50.5,105.2z M51,108.1C51,108.1,50.9,108.1,51,108.1c-0.2,0-0.3,0.2-0.3,0.3c0,0.1,0,0.1,0,0.2
		l0,0l0,0l0,0l0,0l0,0l0,0l0,0l0,0l0,0l0,0l0,0l0,0l0,0l0,0l0,0l0,0c0,0.3,0.1,0.8,0.2,1.1c0,0.1,0.1,0.2,0.3,0.2l0,0
		c0.1,0,0.2-0.1,0.2-0.3c-0.1-0.5-0.2-1-0.3-1.5C51.2,108.2,51,108.1,51,108.1L51,108.1z M51.5,111.1L51.5,111.1
		c-0.2,0-0.3,0.1-0.3,0.3c0,0.3,0.1,0.5,0.2,0.8l0,0l0,0l0,0v0.1l0,0l0,0l0,0l0,0l0,0l0,0v0.1l0,0l0,0l0,0c0,0.1,0.1,0.3,0.1,0.4
		c0.1,0.1,0.2,0.2,0.3,0.2h0.1c0.1,0,0.2-0.1,0.2-0.3c-0.1-0.5-0.3-1-0.3-1.5C51.8,111.1,51.7,111.1,51.5,111.1L51.5,111.1z
		 M52.3,113.9L52.3,113.9c-0.2,0.1-0.3,0.2-0.2,0.3c0.1,0.3,0.2,0.7,0.3,1l0,0l0,0l0,0l0,0l0,0l0,0l0,0l0,0l0,0l0,0l0,0l0,0l0,0l0,0
		v0.1l0,0c0,0.1,0,0.2,0,0.2c0,0.1,0.1,0.2,0.3,0.2c0,0,0,0,0.1,0c0.2-0.1,0.2-0.2,0.2-0.3c-0.2-0.4-0.3-0.9-0.5-1.4
		C52.5,114,52.4,113.9,52.3,113.9L52.3,113.9z M53.3,116.8C53.2,116.8,53.2,116.8,53.3,116.8c-0.3,0.1-0.3,0.2-0.3,0.3
		c0,0.2,0.1,0.3,0.2,0.4l0,0l0,0l0,0l0,0l0,0v0.1l0,0l0,0l0,0l0,0l0,0l0,0l0,0l0,0l0,0l0,0l0,0l0,0l0,0l0,0c0.1,0.3,0.2,0.5,0.3,0.8
		c0,0.1,0.1,0.2,0.3,0.2c0,0,0,0,0.1,0c0.2-0.1,0.2-0.2,0.2-0.3c-0.2-0.4-0.4-0.9-0.5-1.4C53.5,116.8,53.3,116.8,53.3,116.8
		L53.3,116.8z M54.3,119.6L54.3,119.6c-0.3,0.1-0.3,0.2-0.3,0.3c0.1,0.1,0.1,0.2,0.1,0.2l0,0v0.1l0,0l0,0l0,0l0,0l0,0v0.1l0,0l0,0
		l0,0l0,0l0,0l0,0l0,0l0,0l0,0l0,0l0,0l0,0l0,0l0,0l0,0l0,0l0,0l0,0l0,0l0,0l0,0l0,0l0,0l0,0v0.1l0,0l0,0l0,0
		c0.1,0.3,0.2,0.4,0.3,0.7c0,0.1,0.2,0.2,0.3,0.2c0,0,0,0,0.1,0c0.1-0.1,0.2-0.2,0.1-0.3C54.7,120.6,54.5,120.1,54.3,119.6
		C54.5,119.6,54.5,119.6,54.3,119.6L54.3,119.6z M55.6,122.3C55.5,122.3,55.5,122.3,55.6,122.3c-0.2,0.1-0.3,0.3-0.2,0.4
		c0.1,0.3,0.3,0.6,0.4,0.8l0,0l0,0l0,0v0.1l0,0l0,0l0,0l0,0l0,0l0,0l0,0l0,0l0,0l0,0l0,0l0,0l0,0l0,0c0.1,0.1,0.1,0.2,0.2,0.3
		s0.2,0.2,0.2,0.2s0.1,0,0.1-0.1c0.1-0.1,0.2-0.2,0.1-0.3C56.1,123.3,56,122.9,55.6,122.3C55.8,122.3,55.7,122.3,55.6,122.3
		L55.6,122.3z M57,124.8C57,124.8,56.9,124.8,57,124.8c-0.2,0.2-0.3,0.3-0.2,0.4c0,0.1,0.1,0.2,0.1,0.2l0,0v0.1l0,0l0,0l0,0l0,0l0,0
		l0,0l0,0l0,0l0,0l0,0l0,0l0,0l0,0l0,0c0.2,0.3,0.3,0.6,0.5,0.9c0,0.1,0.2,0.1,0.2,0.1s0.1,0,0.1-0.1c0.1-0.1,0.2-0.3,0.1-0.3
		C57.5,125.7,57.3,125.3,57,124.8C57.2,124.9,57.2,124.8,57,124.8L57,124.8z M58.6,127.4C58.6,127.4,58.5,127.4,58.6,127.4
		c-0.2,0.2-0.3,0.4-0.1,0.4c0.2,0.3,0.4,0.6,0.6,0.8l0,0l0,0l0,0v0.1l0,0l0,0l0,0l0,0l0,0l0,0c0,0,0,0,0.1,0l0,0
		c0,0.1,0.1,0.2,0.1,0.3s0.2,0.1,0.2,0.1s0.1,0,0.1-0.1c0.1-0.1,0.2-0.3,0.1-0.3c-0.3-0.4-0.6-0.8-0.9-1.2
		C58.8,127.4,58.7,127.4,58.6,127.4L58.6,127.4z M60.3,129.8c0,0-0.1,0-0.1,0.1c-0.1,0.1-0.2,0.3,0,0.4c0.3,0.4,0.6,0.8,0.9,1.2
		c0.1,0.1,0.1,0.1,0.2,0.1c0,0,0.1,0,0.2-0.1c0.1-0.1,0.1-0.3,0-0.3c-0.3-0.4-0.6-0.8-0.9-1.2C60.5,129.9,60.5,129.8,60.3,129.8
		L60.3,129.8z M62.3,132.1c0,0-0.1,0-0.2,0.1c-0.1,0.1-0.1,0.3,0,0.3c0.2,0.2,0.3,0.3,0.4,0.4l0,0l0,0l0,0l0,0l0,0l0,0l0,0l0,0l0,0
		l0,0l0,0l0,0l0,0l0,0l0,0l0,0l0,0l0,0l0,0l0,0c0,0,0,0,0,0.1l0,0l0,0l0,0l0,0l0,0c0,0,0,0,0,0.1l0,0l0,0l0,0l0,0l0,0c0,0,0,0,0,0.1
		l0,0l0,0l0,0l0,0l0,0l0,0l0,0l0,0l0,0l0,0l0,0l0,0l0,0l0,0l0,0l0,0l0,0l0,0l0,0l0,0c0.1,0.1,0.1,0.1,0.2,0.2c0,0,0.1,0.1,0.2,0.1
		c0,0,0.1,0,0.1-0.1c0.1-0.1,0.1-0.3,0-0.4c-0.3-0.3-0.6-0.8-1-1.1C62.4,132.1,62.3,132.1,62.3,132.1L62.3,132.1z M64.3,134.4
		c-0.1,0-0.2,0-0.2,0c-0.1,0.1-0.1,0.3,0,0.4c0.2,0.1,0.3,0.3,0.4,0.4l0,0l0,0l0,0l0.1,0.1l0,0l0,0l0,0l0,0l0,0l0,0l0,0l0,0l0,0l0,0
		l0,0l0,0l0,0l0,0l0,0l0,0l0,0l0,0l0,0l0,0l0,0l0,0l0,0l0,0l0,0l0,0l0,0l0,0l0,0l0,0l0,0l0,0l0,0l0,0l0.1,0.1l0,0
		c0.1,0.1,0.2,0.1,0.3,0.3c0,0,0.1,0,0.2,0c0,0,0.1,0,0.2-0.1s0.1-0.3,0-0.3c-0.3-0.4-0.7-0.7-1.1-1.1
		C64.4,134.4,64.3,134.4,64.3,134.4L64.3,134.4z M66.4,136.4c-0.1,0-0.2,0.1-0.2,0.1c-0.1,0.1-0.1,0.3,0,0.4
		c0.2,0.1,0.3,0.3,0.5,0.4l0,0v0.1l0,0l0,0l0,0h0.1l0,0l0,0l0,0v0.1l0,0l0,0l0,0h0.1l0,0l0,0l0,0c0.1,0.1,0.3,0.3,0.4,0.4
		c0.1,0.1,0.1,0.1,0.2,0.1s0.2-0.1,0.2-0.1c0.1-0.1,0.1-0.3-0.1-0.4C67.2,137.2,66.8,136.8,66.4,136.4
		C66.5,136.4,66.4,136.4,66.4,136.4L66.4,136.4z M68.7,138.4c-0.1,0-0.2,0.1-0.2,0.1c-0.1,0.1,0,0.3,0.1,0.4c0.1,0,0.1,0.1,0.3,0.2
		l0,0l0,0l0,0l0,0l0,0l0,0l0,0l0,0l0,0l0,0l0,0l0,0l0,0l0,0l0,0l0,0l0,0l0,0l0,0l0,0l0,0l0,0l0,0l0,0l0,0l0,0l0,0l0,0l0,0l0,0l0,0
		l0,0l0,0l0,0l0,0l0,0l0,0l0,0l0,0l0,0l0,0l0,0l0,0l0,0l0,0c0,0,0,0,0,0.1l0,0l0,0l0,0l0,0l0,0c0.2,0.1,0.3,0.3,0.5,0.3
		c0,0.1,0.1,0.1,0.1,0.1c0.1,0,0.2-0.1,0.2-0.1c0.1-0.1,0-0.3-0.1-0.3c-0.4-0.3-0.8-0.6-1.1-0.9C68.8,138.4,68.7,138.4,68.7,138.4
		L68.7,138.4z M71,140.2c-0.1,0-0.2,0.1-0.2,0.1c-0.1,0.1,0,0.3,0.1,0.4c0.2,0.1,0.3,0.2,0.4,0.3l0,0l0,0l0,0l0,0l0,0l0,0l0,0l0,0
		l0,0l0,0l0,0l0,0c0.3,0.2,0.4,0.3,0.7,0.5c0.1,0.1,0.1,0.1,0.2,0.1s0.2-0.1,0.2-0.1c0.1-0.1,0.1-0.3,0-0.3
		C71.8,140.8,71.4,140.5,71,140.2C71.1,140.2,71,140.2,71,140.2L71,140.2z M73.5,141.9c-0.1,0-0.2,0-0.2,0.1s0,0.3,0.1,0.3l0,0l0,0
		l0,0l0,0l0,0l0,0l0,0l0,0l0,0l0,0l0,0l0,0l0,0l0,0l0,0l0,0l0,0l0,0l0,0l0,0l0,0l0,0l0,0l0,0l0,0l0,0l0,0l0,0c0,0,0.1,0,0.1,0.1l0,0
		l0,0l0,0l0,0l0,0l0,0l0,0c0,0,0.1,0,0.1,0.1l0,0l0,0l0,0l0,0l0,0l0,0l0,0l0,0l0,0l0,0l0,0h0.1l0,0l0,0l0,0l0,0l0,0l0,0l0,0l0,0l0,0
		l0,0l0,0l0,0c0,0,0,0,0,0.1l0,0c0.2,0.1,0.3,0.2,0.5,0.3l0.1,0.1c0.1,0,0.2-0.1,0.2-0.1c0-0.1,0-0.3-0.1-0.4
		c-0.4-0.3-0.9-0.5-1.3-0.8C73.6,141.9,73.5,141.9,73.5,141.9L73.5,141.9z M76,143.4c-0.1,0-0.1,0-0.2,0.1s0,0.3,0.1,0.4
		c0.1,0,0.3,0.1,0.3,0.2l0,0l0,0l0,0l0,0l0,0l0,0l0,0l0,0l0,0l0,0l0,0l0,0c0,0,0.1,0,0.1,0.1l0,0l0,0l0,0c0.2,0,0.3,0.1,0.4,0.2l0,0
		l0,0l0,0l0,0l0,0l0,0l0,0l0,0l0,0l0,0l0,0l0,0c0.1,0.1,0.1,0.1,0.3,0.2c0,0,0,0.1,0.1,0.1s0.2-0.1,0.2-0.1c0.1-0.1,0-0.3-0.1-0.4
		c-0.4-0.2-0.9-0.4-1.3-0.7C76.2,143.4,76.1,143.4,76,143.4L76,143.4z M78.7,144.8c-0.1,0-0.2,0.1-0.3,0.1c0,0.1,0,0.3,0.1,0.4
		c0.1,0.1,0.2,0.1,0.3,0.1l0,0l0,0l0,0l0,0l0,0l0,0l0,0l0,0l0,0l0,0l0,0l0,0c0.3,0.2,0.6,0.3,1,0.4c0,0,0,0,0.1,0s0.2-0.1,0.3-0.2
		c0-0.1,0-0.3-0.2-0.3C79.6,145.1,79.1,144.9,78.7,144.8C78.8,144.8,78.8,144.8,78.7,144.8L78.7,144.8z M81.4,145.9
		c-0.1,0-0.2,0.1-0.3,0.2c0,0.1,0,0.3,0.2,0.3h0.1l0,0l0,0l0,0l0,0l0,0l0,0l0,0l0,0l0,0l0,0l0,0l0,0l0,0l0,0l0,0l0,0l0,0l0,0l0,0
		l0,0c0,0,0.1,0,0.1,0.1l0,0l0,0l0,0l0,0l0,0l0,0l0,0l0,0l0,0h0.1l0,0l0,0l0,0l0,0l0,0l0,0l0,0l0,0l0,0l0,0l0,0l0,0l0,0l0,0l0,0l0,0
		l0,0l0,0l0,0l0,0l0,0l0,0h0.1l0,0l0,0l0,0c0.2,0.1,0.3,0.2,0.5,0.2c0.1,0,0.1,0,0.1,0c0.1,0,0.2-0.1,0.3-0.2c0.1-0.2,0-0.3-0.2-0.3
		c-0.4-0.1-0.9-0.4-1.4-0.6C81.5,145.9,81.5,145.9,81.4,145.9L81.4,145.9z M84.3,146.9c-0.1,0-0.2,0.1-0.3,0.2
		c-0.1,0.1,0,0.3,0.2,0.3c0.2,0.1,0.3,0.1,0.4,0.1l0,0l0,0l0,0l0,0l0,0l0,0l0,0l0,0l0,0h0.1l0,0l0,0l0,0l0,0l0,0l0,0l0,0l0,0l0,0
		c0.3,0.1,0.5,0.1,0.8,0.3h0.1c0.1,0,0.2-0.1,0.3-0.2c0-0.2-0.1-0.3-0.2-0.3C85.2,147.2,84.7,147,84.3,146.9L84.3,146.9L84.3,146.9z
		 M87.1,147.8c-0.1,0-0.2,0.1-0.3,0.2c-0.1,0.1,0,0.3,0.2,0.3c0.1,0,0.1,0,0.1,0.1l0,0l0,0l0,0c0,0,0,0,0.1,0l0,0l0,0l0,0l0,0l0,0
		l0,0l0,0l0,0c0.4,0.1,0.8,0.2,1.3,0.3l0,0c0.1,0,0.2-0.1,0.3-0.2c0.1-0.1,0-0.3-0.2-0.3C88,148.1,87.6,147.9,87.1,147.8
		C87.2,147.8,87.2,147.8,87.1,147.8L87.1,147.8z M90,148.5c-0.1,0-0.2,0.1-0.3,0.2c-0.1,0.2,0,0.3,0.2,0.3c0.2,0.1,0.5,0.1,0.7,0.1
		l0,0l0,0l0,0l0,0l0,0l0,0l0,0l0,0l0,0l0,0l0,0l0,0l0,0l0,0l0,0l0,0c0.2,0.1,0.5,0.1,0.7,0.1h0.1c0.1,0,0.3-0.1,0.3-0.2
		c0-0.2-0.1-0.3-0.2-0.3C90.8,148.6,90.3,148.6,90,148.5L90,148.5L90,148.5z M92.9,149c-0.1,0-0.3,0.1-0.3,0.2
		c0,0.2,0.1,0.3,0.2,0.3c0.4,0.1,0.8,0.1,1.2,0.1l0,0l0,0l0,0l0,0l0,0c0,0,0,0,0.1,0l0,0l0,0l0,0l0,0l0,0l0,0c0,0,0.1,0,0.2,0l0,0
		c0.2,0,0.3-0.1,0.3-0.2c0-0.2-0.1-0.3-0.2-0.3C94,149.1,93.5,149.1,92.9,149C93,149,92.9,149,92.9,149L92.9,149z M95.9,149.4
		c-0.2,0-0.3,0.1-0.3,0.3c0,0.1,0.1,0.3,0.3,0.3c0.1,0,0.2,0,0.3,0l0,0l0,0l0,0l0,0l0,0l0,0l0,0l0,0l0,0l0,0l0,0l0,0l0,0l0,0l0,0
		l0,0l0,0l0,0l0,0l0,0l0,0l0,0l0,0l0,0l0,0l0,0l0,0l0,0l0,0l0,0l0,0l0,0l0,0h0.1l0,0l0,0l0,0l0,0l0,0c0.3,0,0.4,0,0.7,0l0,0
		c0.2,0,0.3-0.1,0.3-0.3c0-0.1-0.1-0.3-0.3-0.3C96.9,149.4,96.4,149.4,95.9,149.4L95.9,149.4L95.9,149.4z M98.9,149.5
		c-0.2,0-0.3,0.1-0.3,0.3s0.1,0.3,0.3,0.3c0.1,0,0.2,0,0.3,0l0,0l0,0l0,0l0,0l0,0l0,0l0,0l0,0l0,0l0,0l0,0l0,0l0,0l0,0
		c0,0,0,0,0.1,0l0,0l0,0l0,0l0,0l0,0l0,0l0,0c0,0,0,0,0.1,0l0,0l0,0l0,0l0,0l0,0l0,0l0,0l0,0l0,0l0,0l0,0l0,0l0,0h0.1l0,0l0,0l0,0
		l0,0l0,0l0,0l0,0l0,0l0,0l0,0l0,0l0,0l0,0l0,0l0,0l0,0l0,0l0,0l0,0l0,0l0,0l0,0l0,0l0,0l0,0l0,0l0,0l0,0l0,0l0,0l0,0l0,0l0,0l0,0
		l0,0l0,0l0,0l0,0l0,0l0,0l0,0l0,0l0,0c0.1,0,0.2,0,0.3,0c0.2,0,0.3-0.1,0.3-0.3s-0.1-0.3-0.3-0.3l0,0c-0.2,0-0.3,0-0.4,0
		C99.7,149.5,99.3,149.5,98.9,149.5L98.9,149.5L98.9,149.5z M103.4,149.4C103.4,149.4,103.3,149.4,103.4,149.4
		c-0.5,0.1-1,0.1-1.5,0.1c-0.2,0-0.3,0.1-0.3,0.3s0.1,0.3,0.3,0.3l0,0c0.3,0,0.8-0.1,1.1-0.1l0,0l0,0l0,0l0,0l0,0l0,0l0,0l0,0l0,0
		l0,0l0,0l0,0c0,0,0,0,0.1,0l0,0l0,0l0,0l0,0l0,0l0,0l0,0c0,0,0.1,0,0.2,0c0.2,0,0.3-0.2,0.3-0.3
		C103.6,149.5,103.5,149.4,103.4,149.4L103.4,149.4z M106.3,149.1L106.3,149.1c-0.5,0-1,0.1-1.5,0.1c-0.2,0-0.3,0.1-0.2,0.3
		c0,0.1,0.1,0.3,0.3,0.3l0,0c0.2,0,0.3-0.1,0.5-0.1l0,0l0,0l0,0c0,0,0,0,0.1,0l0,0l0,0l0,0l0,0l0,0c0,0,0,0,0.1,0l0,0l0,0l0,0l0,0
		l0,0c0,0,0,0,0.1,0l0,0c0.3-0.1,0.4-0.1,0.7-0.1c0.2,0,0.3-0.2,0.2-0.3C106.6,149.2,106.5,149.1,106.3,149.1L106.3,149.1z
		 M109.3,148.6L109.3,148.6c-0.5,0.1-1,0.2-1.5,0.3c-0.2,0-0.3,0.2-0.2,0.3c0,0.1,0.2,0.2,0.3,0.2l0,0c0.3,0,0.7-0.1,1.1-0.2l0,0
		l0,0l0,0l0,0l0,0l0,0l0,0l0,0l0,0l0,0l0,0l0,0l0,0l0,0c0.1,0,0.2-0.1,0.3-0.1c0.2,0,0.2-0.1,0.2-0.3
		C109.5,148.7,109.4,148.6,109.3,148.6L109.3,148.6z M112.2,148L112.2,148c-0.5,0.1-1,0.3-1.5,0.4c-0.2,0-0.2,0.1-0.2,0.3
		c0,0.1,0.2,0.2,0.3,0.2l0,0c0.3-0.1,0.6-0.2,0.9-0.2l0,0l0,0l0,0l0,0l0,0h0.1l0,0l0,0l0,0l0,0l0,0l0,0l0,0l0,0l0,0l0,0l0,0l0,0l0,0
		h0.1l0,0l0,0l0,0l0,0l0,0l0,0l0,0l0,0l0,0l0,0l0,0l0,0l0,0h0.1l0,0l0,0l0,0c0.2,0,0.2-0.1,0.2-0.3C112.4,148.1,112.3,148,112.2,148
		L112.2,148z M115.1,147.1C115,147.1,115,147.1,115.1,147.1c-0.5,0.2-1,0.3-1.5,0.5c-0.2,0-0.2,0.2-0.2,0.3s0.2,0.2,0.3,0.2l0,0
		c0.2-0.1,0.3-0.1,0.5-0.2l0,0c0.1,0,0.1,0,0.1-0.1l0,0l0,0l0,0l0,0l0,0h0.1l0,0l0,0l0,0l0,0l0,0l0,0l0,0h0.1l0,0l0,0l0,0l0,0l0,0
		l0,0l0,0l0,0l0,0l0,0l0,0l0,0l0,0l0,0l0,0h0.1l0,0l0,0l0,0l0,0l0,0l0,0l0,0l0,0l0,0l0,0l0,0l0,0l0,0l0,0l0,0l0,0l0,0l0,0l0,0l0,0
		l0,0l0,0l0,0l0,0h0.1l0,0l0,0l0,0l0,0l0,0c0.1,0,0.1-0.1,0.2-0.1c0.2-0.1,0.2-0.2,0.2-0.3C115.3,147.3,115.2,147.1,115.1,147.1
		L115.1,147.1z M117.9,146.2C117.8,146.2,117.8,146.2,117.9,146.2c-0.5,0.2-1,0.3-1.5,0.5c-0.2,0.1-0.2,0.2-0.2,0.3
		c0.1,0.1,0.2,0.1,0.3,0.1c0.1,0,0.1,0,0.1,0c0.4-0.1,0.9-0.3,1.4-0.5c0.2,0,0.2-0.2,0.2-0.3C118.1,146.3,118,146.2,117.9,146.2
		L117.9,146.2z M120.7,145C120.6,145,120.6,145,120.7,145c-0.5,0.2-1,0.4-1.4,0.6c-0.2,0-0.2,0.2-0.2,0.3c0.1,0.1,0.2,0.2,0.3,0.2
		c0.1,0,0.1,0,0.1,0c0.1-0.1,0.2-0.1,0.3-0.1l0,0l0,0l0,0c0,0,0.1,0,0.1-0.1l0,0l0,0l0,0l0,0l0,0h0.1l0,0l0,0l0,0l0,0l0,0l0,0l0,0
		l0,0l0,0l0,0l0,0l0,0l0,0l0,0l0,0l0,0l0,0l0,0l0,0l0,0l0,0l0,0l0,0l0,0l0,0l0,0l0,0l0,0l0,0l0,0l0,0l0,0l0,0l0,0l0,0l0,0l0,0l0,0
		l0,0l0,0l0,0l0,0l0,0l0,0l0,0l0,0l0,0l0,0l0,0l0,0l0,0l0,0l0,0l0,0l0,0l0,0l0,0l0,0l0,0l0,0l0,0l0,0l0,0l0,0l0,0l0,0l0,0l0,0l0,0
		l0,0l0,0l0,0l0,0l0,0l0,0l0,0l0,0l0,0l0,0l0,0l0,0l0,0l0,0l0,0l0,0l0,0l0,0l0,0c0.2-0.1,0.2-0.2,0.1-0.3
		C120.8,145.1,120.8,145,120.7,145L120.7,145z M123.3,143.7L123.3,143.7c-0.5,0.3-1,0.5-1.4,0.8c-0.1,0.1-0.2,0.2-0.1,0.3
		s0.2,0.2,0.2,0.2c0.1,0,0.1,0,0.1-0.1l0,0l0,0l0,0l0,0l0,0l0,0l0,0l0,0l0,0l0,0l0,0l0,0l0,0l0,0l0,0l0,0l0,0l0,0l0,0h0.1l0,0l0,0
		l0,0l0,0l0,0l0,0l0,0h0.1l0,0l0,0l0,0l0,0l0,0h0.1l0,0l0,0l0,0l0,0l0,0h0.1l0,0l0,0l0,0l0,0l0,0l0,0l0,0l0,0l0,0l0,0l0,0l0,0l0,0
		l0,0h0.1l0,0l0,0l0,0l0,0l0,0c0,0,0.1,0,0.1-0.1l0,0c0.2-0.1,0.3-0.2,0.6-0.3c0.1-0.1,0.2-0.2,0.1-0.4
		C123.5,143.8,123.4,143.7,123.3,143.7L123.3,143.7z M125.9,142.2c-0.1,0-0.1,0-0.2,0.1c-0.4,0.3-0.8,0.5-1.3,0.8
		c-0.1,0.1-0.2,0.2-0.1,0.4c0.1,0.1,0.2,0.1,0.2,0.1c0.1,0,0.1,0,0.1-0.1c0.2-0.1,0.3-0.2,0.4-0.3l0,0l0,0l0,0l0,0l0,0l0,0l0,0l0,0
		l0,0l0,0l0,0l0,0l0,0l0,0l0,0l0,0l0,0l0,0l0,0l0,0l0,0l0,0l0,0l0,0l0,0l0,0l0,0l0,0l0,0l0,0l0,0l0,0l0,0l0,0l0,0l0,0l0,0l0,0l0,0
		l0,0l0,0l0,0l0,0l0,0l0,0c0,0,0,0,0.1,0l0,0l0,0l0,0l0,0l0,0c0,0,0.1,0,0.1-0.1l0,0c0.1-0.1,0.2-0.1,0.3-0.1
		c0.1-0.1,0.2-0.3,0.1-0.4C126.1,142.3,126,142.2,125.9,142.2L125.9,142.2z M128.4,140.6c-0.1,0-0.1,0-0.1,0
		c-0.4,0.3-0.8,0.6-1.3,0.9c-0.1,0.1-0.2,0.3-0.1,0.4c0.1,0,0.2,0.1,0.2,0.1c0.1,0,0.1,0,0.2-0.1s0.2-0.1,0.3-0.2l0,0l0,0l0,0
		l0.1-0.1l0,0l0,0l0,0l0.1-0.1l0,0l0,0l0,0l0,0l0,0c0,0,0,0,0.1,0l0,0l0,0l0,0l0,0l0,0c0,0,0.1,0,0.1-0.1l0,0l0,0l0,0l0,0l0,0l0,0
		l0,0c0,0,0.1,0,0.1-0.1l0,0l0,0l0,0l0,0l0,0c0,0,0.1,0,0.1-0.1l0,0l0,0l0,0l0,0l0,0c0,0,0.1,0,0.1-0.1l0,0l0,0l0,0l0,0l0,0
		c0,0,0.1,0,0.1-0.1l0,0l0,0l0,0l0,0l0,0c0,0,0.1,0,0.1-0.1l0,0l0,0l0,0l0,0l0,0c0,0,0.1,0,0.1-0.1l0,0l0,0l0,0l0,0l0,0l0,0l0,0l0,0
		l0,0l0,0l0,0l0,0l0,0l0,0l0,0l0,0c0.1-0.1,0.1-0.3,0.1-0.4C128.6,140.6,128.5,140.6,128.4,140.6L128.4,140.6z M130.8,138.8
		c-0.1,0-0.1,0-0.2,0.1c-0.4,0.3-0.8,0.6-1.2,0.9c-0.1,0.1-0.1,0.3-0.1,0.4c0.1,0.1,0.1,0.1,0.2,0.1c0.1,0,0.1,0,0.2-0.1
		c0.1,0,0.1,0,0.1-0.1l0,0l0,0l0,0l0,0l0,0l0,0l0,0l0,0l0,0l0,0l0,0l0,0l0,0l0,0l0,0l0,0l0,0l0,0l0,0l0,0l0.1-0.1l0,0l0,0l0,0
		l0.1-0.1l0,0l0,0l0,0l0.1-0.1l0,0l0,0l0,0l0.1-0.1l0,0l0,0l0,0l0,0l0,0l0,0l0,0l0,0l0,0l0,0l0,0l0,0l0,0l0,0l0,0l0,0l0,0l0,0l0,0
		l0,0c0,0,0,0,0.1-0.1l0,0l0,0l0,0l0,0l0,0c0,0,0.1,0,0.1-0.1l0,0l0,0l0,0c0.1-0.1,0.2-0.2,0.3-0.3S130.9,138.9,130.8,138.8
		C130.9,138.9,130.9,138.8,130.8,138.8L130.8,138.8z M133.1,136.9c-0.1,0-0.1,0-0.1,0.1c-0.4,0.3-0.8,0.6-1.1,0.9
		c-0.1,0.1-0.1,0.3-0.1,0.4c0.1,0.1,0.1,0.1,0.2,0.1c0.1,0,0.1,0,0.2-0.1l0,0l0,0l0,0l0,0l0,0l0,0l0,0l0,0l0,0
		c0.3-0.2,0.4-0.4,0.6-0.6l0,0l0,0l0,0l0,0l0,0l0,0l0,0l0,0l0,0l0,0l0,0l0,0c0.1-0.1,0.2-0.2,0.3-0.3s0.1-0.3,0-0.3
		C133.3,136.9,133.1,136.9,133.1,136.9L133.1,136.9z M135.3,134.9c-0.1,0-0.2,0-0.2,0c-0.4,0.4-0.7,0.7-1.1,1.1
		c-0.1,0.1-0.1,0.3,0,0.3c0.1,0.1,0.1,0.1,0.2,0.1c0.1,0,0.1,0,0.1,0c0.2-0.2,0.3-0.3,0.4-0.5l0,0l0,0l0,0c0,0,0,0,0.1,0l0,0l0,0
		l0,0l0,0l0,0l0,0l0,0l0,0l0,0l0,0l0,0l0,0l0,0l0,0c0,0,0,0,0.1-0.1l0,0l0,0l0,0c0.2-0.1,0.3-0.3,0.4-0.4c0.1-0.1,0.1-0.3,0-0.4
		C135.4,134.9,135.3,134.9,135.3,134.9L135.3,134.9z M137.3,132.6c-0.1,0-0.2,0.1-0.2,0.1c-0.4,0.4-0.7,0.8-1,1.1
		c-0.1,0.1-0.1,0.3,0,0.3c0.1,0.1,0.1,0.1,0.1,0.1l0.2-0.1c0.1-0.1,0.3-0.3,0.4-0.4l0,0l0,0l0,0l0,0l0,0l0,0l0,0l0,0l0,0l0,0l0,0
		l0,0l0,0l0,0l0,0l0,0l0,0l0,0l0,0l0,0l0,0l0,0l0,0l0,0l0,0l0,0l0,0l0,0l0,0l0,0l0,0l0,0l0,0l0,0l0,0l0,0l0,0l0,0l0,0l0,0l0,0l0,0
		l0,0l0,0l0,0l0,0l0,0l0,0l0,0l0,0l0,0l0,0l0,0l0,0l0,0l0,0l0,0l0,0l0,0l0,0l0,0l0,0l0,0l0,0l0,0l0,0l0,0l0,0l0,0l0,0l0,0l0,0l0,0
		l0,0l0,0l0,0l0,0c0,0,0,0,0.1-0.1l0,0l0,0l0,0l0,0c0.1-0.1,0.1-0.3,0-0.3C137.4,132.7,137.3,132.6,137.3,132.6L137.3,132.6z
		 M139.2,130.4c-0.1,0-0.2,0-0.2,0.1c-0.3,0.4-0.6,0.8-0.9,1.2c-0.1,0.1-0.1,0.3,0.1,0.3c0.1,0.1,0.1,0.1,0.1,0.1l0.2-0.1
		c0.1-0.1,0.2-0.1,0.2-0.3l0,0l0,0l0,0c0,0,0,0,0.1,0l0,0l0,0l0,0l0,0l0,0l0,0l0,0l0,0l0,0l0,0l0,0l0,0l0,0l0,0l0,0l0,0l0,0l0,0l0,0
		l0,0l0,0l0,0l0,0l0,0l0,0l0,0l0,0l0,0l0,0l0,0l0,0l0,0l0,0l0,0l0,0l0,0l0,0l0,0l0,0c0,0,0,0,0-0.1l0,0l0,0l0,0l0,0l0,0h0.1l0,0l0,0
		l0,0l0.1-0.1l0,0l0,0l0,0h0.1l0,0l0,0l0,0l0.1-0.1l0,0l0,0l0,0h0.1l0,0l0,0l0,0c0,0,0-0.1,0.1-0.1l0,0l0,0l0,0l0,0l0,0l0,0
		c0.1-0.1,0.1-0.3-0.1-0.3C139.3,130.4,139.3,130.4,139.2,130.4L139.2,130.4z M141,127.9c-0.1,0-0.2,0.1-0.2,0.1
		c-0.3,0.4-0.6,0.8-0.9,1.2c-0.1,0.1-0.1,0.3,0.1,0.3c0.1,0.1,0.1,0.1,0.2,0.1c0.1,0,0.1-0.1,0.2-0.1c0.3-0.4,0.6-0.8,0.8-1.2
		c0.1-0.1,0.1-0.3-0.1-0.4C141.1,127.9,141.1,127.9,141,127.9L141,127.9z M142.6,125.4c-0.1,0-0.1,0.1-0.2,0.1
		c-0.3,0.4-0.5,0.8-0.8,1.3c-0.1,0.1-0.1,0.3,0.1,0.3c0.1,0.1,0.1,0.1,0.2,0.1c0.1,0,0.1-0.1,0.2-0.1c0.1-0.2,0.3-0.4,0.4-0.6l0,0
		c0,0,0-0.1,0.1-0.1l0,0l0,0l0,0l0,0l0,0v-0.1l0,0l0,0l0,0l0,0l0,0l0,0l0,0l0,0l0,0l0,0l0,0l0,0l0,0l0,0l0,0l0,0l0,0l0,0l0,0l0,0
		l0,0l0,0v-0.1l0,0l0,0l0,0l0,0l0,0c0,0,0-0.1,0.1-0.1l0,0l0,0l0,0l0,0l0,0c0,0,0-0.1,0.1-0.1l0,0l0,0l0,0l0,0l0,0
		c0,0,0-0.1,0.1-0.1l0,0c0,0,0,0,0-0.1c0.1-0.1,0.1-0.3-0.1-0.3C142.7,125.4,142.6,125.4,142.6,125.4L142.6,125.4z M144.1,122.8
		c-0.1,0-0.2,0.1-0.2,0.2c-0.3,0.4-0.4,0.8-0.7,1.3c-0.1,0.1-0.1,0.3,0.1,0.3c0.1,0,0.1,0.1,0.1,0.1c0.1,0,0.1-0.1,0.2-0.2l0,0l0,0
		l0,0l0,0l0,0l0,0c0.3-0.4,0.4-0.8,0.7-1.3l0,0l0,0l0,0l0,0c0.1-0.1,0-0.3-0.1-0.3C144.1,122.8,144.1,122.8,144.1,122.8L144.1,122.8
		z M145.4,120.2c-0.1,0-0.2,0.1-0.3,0.2c-0.2,0.4-0.4,0.9-0.6,1.3c-0.1,0.1,0,0.3,0.1,0.3s0.1,0.1,0.1,0.1c0.1,0,0.2-0.1,0.2-0.2
		c0.1-0.3,0.3-0.7,0.5-1.1l0,0l0,0l0,0v-0.1l0,0l0,0l0,0l0,0l0,0l0,0c0.1-0.1,0.1-0.2,0.1-0.2C145.5,120.4,145.5,120.3,145.4,120.2
		L145.4,120.2L145.4,120.2z M146.5,117.4c-0.1,0-0.2,0.1-0.3,0.2c-0.2,0.4-0.4,0.9-0.6,1.4c-0.1,0.2,0,0.3,0.1,0.3s0.1,0,0.1,0
		c0.1,0,0.2-0.1,0.3-0.2c0.1-0.3,0.3-0.7,0.4-1.1l0,0l0,0l0,0l0,0l0,0l0,0l0,0l0,0l0,0l0,0l0,0l0,0c0-0.1,0.1-0.1,0.1-0.2
		c0.1-0.2,0-0.3-0.2-0.3C146.6,117.4,146.6,117.4,146.5,117.4L146.5,117.4z M147.5,114.6c-0.1,0-0.2,0.1-0.3,0.2
		c-0.2,0.4-0.3,0.9-0.4,1.4c-0.1,0.2,0,0.3,0.1,0.3s0.1,0,0.1,0c0.1,0,0.2-0.1,0.3-0.2c0.1-0.4,0.3-0.9,0.4-1.4
		C147.8,114.8,147.7,114.7,147.5,114.6C147.6,114.6,147.5,114.6,147.5,114.6L147.5,114.6z M148.3,111.7c-0.1,0-0.2,0.1-0.3,0.2
		c-0.1,0.5-0.3,1-0.4,1.5c-0.1,0.1,0.1,0.3,0.2,0.3h0.1c0.1,0,0.2,0,0.3-0.2c0.1-0.3,0.1-0.5,0.2-0.8l0,0l0,0l0,0l0,0l0,0l0,0l0,0
		l0,0l0,0l0,0l0,0l0,0l0,0l0,0c0.1-0.2,0.1-0.3,0.1-0.5c0.1-0.2-0.1-0.3-0.2-0.3C148.3,111.7,148.3,111.7,148.3,111.7L148.3,111.7z
		 M148.9,108.8c-0.1,0-0.2,0.1-0.3,0.2c-0.1,0.5-0.2,0.9-0.3,1.4c-0.1,0.2,0.1,0.3,0.2,0.3h0.1c0.1,0,0.2-0.1,0.3-0.2
		c0.1-0.3,0.1-0.6,0.2-0.9l0,0l0,0l0,0l0,0l0,0l0,0l0,0l0,0l0,0l0,0l0,0l0,0l0,0l0,0l0,0l0,0l0,0l0,0c0-0.1,0.1-0.2,0.1-0.3
		C149.2,108.9,149.1,108.8,148.9,108.8L148.9,108.8L148.9,108.8z M149.4,105.8c-0.1,0-0.3,0.1-0.3,0.2c-0.1,0.5-0.1,1-0.2,1.4
		c0,0.2,0.1,0.3,0.2,0.3h0.1c0.1,0,0.3-0.1,0.3-0.2c0-0.2,0.1-0.3,0.1-0.4l0,0l0,0l0,0l0,0l0,0l0,0l0,0l0,0l0,0l0,0l0,0l0,0l0,0l0,0
		l0,0l0,0l0,0l0,0V107l0,0l0,0l0,0l0,0l0,0l0,0l0,0l0,0l0,0l0,0l0,0l0,0l0,0v-0.1l0,0c0-0.1,0-0.1,0-0.1l0,0c0,0,0,0,0-0.1l0,0l0,0
		l0,0l0,0l0,0c0-0.1,0-0.1,0-0.1l0,0l0,0l0,0l0,0l0,0l0,0l0,0l0,0l0,0l0,0l0,0l0,0l0,0l0,0l0,0l0,0l0,0l0,0
		C149.6,106,149.6,105.8,149.4,105.8L149.4,105.8L149.4,105.8z M149.6,102.9c-0.1,0-0.3,0.1-0.3,0.3c-0.1,0.5-0.1,1-0.1,1.5
		c0,0.2,0.1,0.3,0.3,0.3l0,0c0.1,0,0.3-0.1,0.3-0.3c0,0,0-0.1,0-0.2l0,0l0,0l0,0l0,0l0,0l0,0l0,0l0,0c0.1-0.4,0.1-0.8,0.1-1.3
		C149.9,103,149.8,102.9,149.6,102.9L149.6,102.9L149.6,102.9z M149.8,99.9c-0.2,0-0.3,0.1-0.3,0.3c0,0.5,0,1-0.1,1.5
		c0,0.2,0.1,0.3,0.3,0.3l0,0c0.1,0,0.3-0.1,0.3-0.3c0-0.5,0.1-1,0.1-1.5C150,100,149.9,99.9,149.8,99.9L149.8,99.9L149.8,99.9z
		 M149.6,96.9L149.6,96.9c-0.1,0-0.3,0.2-0.3,0.3c0.1,0.5,0.1,1,0.1,1.5c0,0.2,0.1,0.3,0.3,0.3l0,0c0.2,0,0.3-0.1,0.3-0.3l0,0l0,0
		l0,0l0,0l0,0l0,0l0,0l0,0l0,0l0,0l0,0l0,0l0,0l0,0l0,0l0,0l0,0c0-0.5-0.1-0.9-0.1-1.3C149.9,97,149.8,96.9,149.6,96.9L149.6,96.9z
		 M149.4,93.9L149.4,93.9c-0.1,0-0.3,0.2-0.3,0.3c0.1,0.5,0.1,1,0.2,1.5c0,0.2,0.1,0.3,0.3,0.3l0,0c0.1,0,0.3-0.2,0.3-0.3
		c-0.1-0.5-0.1-0.9-0.2-1.4l0,0v-0.1l0,0C149.6,94.1,149.6,93.9,149.4,93.9L149.4,93.9z M149,91C148.9,91,148.9,91,149,91
		c-0.2,0.1-0.3,0.2-0.3,0.3c0.1,0.5,0.1,1,0.3,1.4c0,0.1,0.1,0.2,0.3,0.2c0,0,0,0,0.1,0s0.3-0.1,0.2-0.3c-0.1-0.5-0.2-1-0.3-1.5l0,0
		l0,0l0,0C149.2,91.1,149.1,91,149,91L149,91z M148.3,88.1L148.3,88.1c-0.2,0-0.3,0.1-0.3,0.3c0.1,0.5,0.2,1,0.4,1.5
		c0,0.1,0.1,0.2,0.3,0.2h0.1c0.1-0.1,0.2-0.2,0.2-0.3l0,0l0,0l0,0l0,0l0,0l0,0l0,0l0,0l0,0l0,0l0,0l0,0l0,0l0,0l0,0l0,0l0,0l0,0l0,0
		l0,0l0,0l0,0l0,0l0,0l0,0v-0.1l0,0l0,0l0,0l0,0l0,0l0,0l0,0v-0.1l0,0l0,0l0,0l0,0l0,0l0,0l0,0l0,0l0,0l0,0l0,0l0,0l0,0l0,0l0,0l0,0
		l0,0l0,0l0,0l0,0l0,0l0,0l0,0l0,0l0,0l0,0l0,0l0,0l0,0l0,0l0,0l0,0l0,0l0,0l0,0l0,0l0,0l0,0l0,0l0,0l0,0l0,0l0,0l0,0l0,0l0,0l0,0
		l0,0l0,0l0,0l0,0v-0.1l0,0l0,0l0,0l0,0l0,0v-0.1l0,0c0,0-0.1-0.1-0.1-0.2C148.6,88.2,148.5,88.1,148.3,88.1L148.3,88.1z
		 M147.6,85.2L147.6,85.2c-0.2,0.1-0.3,0.2-0.2,0.3c0.1,0.4,0.3,0.9,0.4,1.4c0.1,0.1,0.2,0.2,0.3,0.2h0.1c0.2,0,0.2-0.2,0.2-0.3
		c-0.1-0.1-0.1-0.2-0.1-0.3l0,0l0,0l0,0l0,0l0,0l0,0l0,0l0,0l0,0l0,0l0,0l0,0l0,0l0,0v-0.1l0,0l0,0l0,0l0,0l0,0
		c-0.1-0.3-0.2-0.6-0.3-0.9C147.8,85.3,147.7,85.2,147.6,85.2L147.6,85.2z M146.6,82.3L146.6,82.3c-0.3,0-0.3,0.2-0.3,0.3
		c0.2,0.5,0.4,1,0.5,1.4c0.1,0.1,0.2,0.1,0.3,0.1s0.1,0,0.1,0c0.1,0,0.2-0.2,0.1-0.3c0,0,0,0-0.1-0.1l0,0l0,0l0,0l0,0l0,0
		c0,0,0,0,0-0.1l0,0l0,0l0,0l0,0l0,0l0,0l0,0l0,0l0,0l0,0l0,0l0,0c-0.1-0.4-0.3-0.8-0.4-1.1C146.8,82.4,146.8,82.3,146.6,82.3
		L146.6,82.3z M145.5,79.6c-0.1,0-0.1,0-0.1,0c-0.1,0.1-0.2,0.2-0.1,0.3c0.2,0.5,0.4,0.9,0.6,1.4c0.1,0.1,0.2,0.1,0.3,0.1
		s0.1,0,0.1,0c0.1,0,0.2-0.2,0.1-0.3c-0.1-0.1-0.1-0.3-0.1-0.3l0,0c0-0.1-0.1-0.1-0.1-0.1l0,0c-0.2-0.3-0.3-0.6-0.4-0.9
		C145.7,79.7,145.6,79.6,145.5,79.6L145.5,79.6z M144.2,76.9c-0.1,0-0.1,0-0.1,0c-0.1,0.1-0.1,0.2-0.1,0.4c0.3,0.4,0.4,0.9,0.6,1.3
		c0.1,0.1,0.2,0.2,0.3,0.2s0.1,0,0.1,0c0.1-0.1,0.2-0.2,0.1-0.4c-0.2-0.4-0.4-0.9-0.6-1.3C144.4,76.9,144.3,76.9,144.2,76.9
		L144.2,76.9z M142.8,74.3c-0.1,0-0.1,0-0.2,0c-0.1,0-0.1,0.2-0.1,0.3c0.3,0.4,0.5,0.9,0.8,1.3c0.1,0.1,0.1,0.1,0.2,0.1s0.1,0,0.1,0
		c0.1,0,0.2-0.2,0.1-0.3c-0.2-0.4-0.4-0.8-0.7-1.2l0,0c0,0,0,0-0.1,0l0,0l0,0l0,0l0,0l0,0c0,0,0-0.1-0.1-0.1l0,0l0,0l0,0l0,0
		C142.9,74.3,142.8,74.3,142.8,74.3L142.8,74.3z M141.1,71.8c-0.1,0-0.1,0-0.1,0c-0.1,0.1-0.2,0.3-0.1,0.3c0.3,0.4,0.6,0.8,0.8,1.3
		c0.1,0.1,0.1,0.1,0.2,0.1s0.1,0,0.1-0.1c0.1-0.1,0.2-0.3,0.1-0.3c-0.1-0.2-0.2-0.3-0.4-0.5l0,0l-0.1-0.1l0,0l0,0l0,0l0,0l0,0
		c0,0,0,0-0.1,0l0,0l0,0l0,0l0,0l0,0l0,0l0,0l0,0l0,0l0,0l0,0l0,0l0,0l0,0l0,0l0,0l0,0l0,0l0,0l0,0l0,0l0,0l0,0l0,0l0,0l0,0l0,0l0,0
		l0,0l0,0l0,0c0,0,0-0.1-0.1-0.1l0,0l0,0l0,0c-0.1-0.1-0.1-0.2-0.2-0.3C141.3,71.8,141.3,71.8,141.1,71.8L141.1,71.8z M139.4,69.3
		c-0.1,0-0.1,0-0.1,0.1c-0.1,0.1-0.2,0.3-0.1,0.3c0.3,0.4,0.6,0.8,0.9,1.2c0.1,0.1,0.2,0.1,0.2,0.1c0.1,0,0.1,0,0.2-0.1
		c0.1-0.1,0.1-0.3,0.1-0.3l0,0c0,0,0,0-0.1,0l0,0l0,0l0,0l0,0l0,0l0,0c0,0,0-0.1-0.1-0.1l0,0c-0.1-0.2-0.2-0.3-0.3-0.4l0,0l0,0l0,0
		l0,0l0,0c0,0,0,0-0.1,0l0,0l0,0l0,0l0,0l0,0l0,0l0,0l0,0l0,0l0,0l0,0l0,0l0,0l0,0l0,0l0,0l0,0l0,0l0,0l0,0l-0.1-0.1l0,0
		c0,0-0.1,0-0.1-0.1l0,0h-0.1l0,0l-0.1-0.1l0,0l0,0l0,0l0,0l0,0l0,0l0,0l0,0l0,0l0,0l0,0l0,0l-0.1-0.1
		C139.6,69.4,139.4,69.3,139.4,69.3L139.4,69.3z M137.5,67.1c-0.1,0-0.1,0-0.2,0c-0.1,0.1-0.1,0.3,0,0.3c0.3,0.4,0.7,0.8,0.9,1.2
		c0.1,0,0.1,0.1,0.2,0.1c0.1,0,0.1,0,0.2,0c0.1-0.1,0.1-0.3,0.1-0.3c-0.3-0.4-0.7-0.8-0.9-1.2C137.6,67.1,137.6,67.1,137.5,67.1
		L137.5,67.1z M135.4,64.8c-0.1,0-0.2,0-0.2,0.1c-0.1,0.1-0.1,0.3,0,0.3c0.3,0.3,0.7,0.7,1.1,1.1c0.1,0,0.1,0.1,0.2,0.1
		c0.1,0,0.1,0,0.1,0c0.1-0.1,0.1-0.3,0-0.4s-0.3-0.3-0.4-0.5l0,0h-0.1l0,0l0,0l0,0l0,0l0,0c0,0,0,0-0.1-0.1l0,0l0,0l0,0l0,0l0,0l0,0
		l0,0l0,0l0,0l0,0l0,0l0,0l0,0l0,0l0,0l0,0l0,0l0,0l0,0l0,0l-0.1-0.1l0,0l0,0l0,0h-0.1l0,0l0,0l0,0c0,0,0-0.1-0.1-0.1l0,0l0,0l0,0
		l0,0l0,0l0,0l0,0l0,0l0,0l0,0l0,0l0,0l0,0l0,0l0,0l0,0l0,0l0,0l0,0l0,0C135.6,64.9,135.6,64.8,135.4,64.8L135.4,64.8z M133.3,62.8
		c-0.1,0-0.2,0-0.2,0.1c-0.1,0.1-0.1,0.3,0,0.3c0.3,0.4,0.8,0.7,1.1,1c0.1,0.1,0.1,0.1,0.2,0.1s0.1-0.1,0.2-0.1
		c0.1-0.1,0.1-0.2,0-0.3c-0.4-0.3-0.8-0.7-1.1-1C133.4,62.8,133.4,62.8,133.3,62.8L133.3,62.8z M131.1,60.8c-0.1,0-0.2,0.1-0.2,0.1
		c-0.1,0.1-0.1,0.3,0.1,0.4c0.4,0.3,0.8,0.6,1.1,0.9c0.1,0.1,0.1,0.1,0.2,0.1s0.1-0.1,0.2-0.1c0.1-0.1,0.1-0.3-0.1-0.4l0,0l0,0l0,0
		l0,0l0,0l0,0l0,0l0,0l0,0l0,0l0,0l0,0l0,0l0,0l0,0l0,0l0,0l0,0l0,0c0,0,0,0-0.1,0l0,0l0,0l0,0l0,0l0,0l0,0l0,0l0,0l0,0l0,0l0,0l0,0
		l0,0c0,0,0,0-0.1,0l0,0l0,0l0,0l0,0l0,0l0,0l0,0l0,0l0,0l0,0l0,0l0,0l0,0l0,0l0,0l0,0l0,0l0,0l0,0l0,0l0,0l0,0l0,0l0,0l0,0l0,0l0,0
		l0,0l0,0l0,0c0,0,0,0-0.1,0l0,0l0,0l0,0l0,0l0,0c-0.2-0.2-0.4-0.3-0.5-0.4C131.1,60.9,131.1,60.8,131.1,60.8L131.1,60.8z
		 M128.6,59.1c-0.1,0-0.1,0.1-0.2,0.1c-0.1,0.1-0.1,0.3,0.1,0.4c0.4,0.3,0.8,0.6,1.2,0.8c0.1,0,0.1,0,0.2,0c0.1,0,0.1,0,0.2-0.1
		c0.1-0.1,0.1-0.3-0.1-0.4l0,0l0,0l0,0l0,0l0,0l0,0l0,0l0,0l0,0l0,0l0,0l0,0c-0.2-0.1-0.4-0.3-0.5-0.4l0,0l0,0l0,0h-0.1l0,0l0,0l0,0
		l0,0l0,0l0,0c0,0,0,0-0.1-0.1l0,0l0,0l0,0c-0.2-0.1-0.3-0.2-0.4-0.3C128.8,59.1,128.7,59.1,128.6,59.1L128.6,59.1z M126.2,57.5
		c-0.1,0-0.2,0-0.2,0.1c-0.1,0.1-0.1,0.3,0.1,0.4c0.4,0.3,0.8,0.5,1.3,0.8c0.1,0,0.1,0,0.2,0s0.2,0,0.2-0.1c0.1-0.1,0.1-0.3-0.1-0.4
		c-0.1,0-0.1,0-0.1,0l0,0l0,0l0,0l0,0l0,0l0,0l0,0l0,0l0,0l0,0l0,0l0,0c-0.3-0.3-0.7-0.5-1.1-0.7C126.3,57.5,126.2,57.5,126.2,57.5
		L126.2,57.5z M123.6,56c-0.1,0-0.2,0-0.2,0.1c-0.1,0.1,0,0.3,0.1,0.4c0.4,0.3,0.8,0.5,1.3,0.7c0.1,0,0.1,0,0.2,0s0.2,0,0.2-0.1
		c0.1-0.1,0.1-0.3-0.1-0.3c-0.2-0.1-0.4-0.3-0.6-0.3l0,0l0,0l0,0l0,0l0,0c0,0,0,0-0.1,0l0,0l0,0l0,0l0,0l0,0l0,0l0,0l0,0l0,0l0,0
		l0,0l0,0l0,0l0,0l0,0l0,0l0,0l0,0l0,0l0,0l0,0l0,0l0,0l0,0h-0.1l0,0l0,0l0,0l0,0l0,0l0,0l0,0l0,0l0,0l0,0l0,0l0,0l0,0l0,0l0,0l0,0
		l0,0l0,0l0,0l0,0c-0.1-0.1-0.1-0.1-0.2-0.1C123.7,56,123.7,56,123.6,56L123.6,56z M120.9,54.6c-0.1,0-0.2,0.1-0.3,0.2
		c-0.1,0.2,0,0.3,0.1,0.3c0.4,0.2,0.9,0.4,1.3,0.7c0.1,0,0.1,0,0.1,0c0.1,0,0.2,0,0.2-0.1c0.1-0.1,0-0.3-0.1-0.4h-0.1l0,0l0,0l0,0
		H122l0,0l0,0l0,0h-0.1l0,0l0,0l0,0l0,0l0,0h-0.1l0,0l0,0l0,0l0,0l0,0h0.2l0,0l0,0l0,0l0,0l0,0l0,0l0,0l0,0l0,0l0,0l0,0l0,0l0,0l0,0
		l0,0l0,0l0,0l0,0l0,0l0,0l0,0l0,0l0,0l0,0c0,0,0,0-0.1,0l0,0l0,0l0,0l0,0l0,0l0,0l0,0h-0.1l0,0l0,0l0,0c-0.2-0.1-0.4-0.2-0.6-0.3
		C121,54.6,120.9,54.6,120.9,54.6L120.9,54.6z M118.2,53.4c-0.1,0-0.2,0-0.3,0.1c-0.1,0.2,0,0.3,0.2,0.3c0.4,0.2,0.9,0.4,1.3,0.6
		c0.1,0,0.1,0,0.1,0c0.1,0,0.2-0.1,0.3-0.2c0.1-0.2,0-0.3-0.2-0.3C119.2,53.7,118.7,53.5,118.2,53.4
		C118.3,53.5,118.2,53.4,118.2,53.4L118.2,53.4z M115.3,52.4c-0.1,0-0.2,0-0.3,0.1c-0.1,0.2,0.1,0.3,0.2,0.3
		c0.4,0.2,0.9,0.3,1.4,0.5c0.1,0,0.1,0,0.1,0c0.1,0,0.2,0,0.3-0.1c0.1-0.2,0-0.3-0.2-0.3c-0.1,0-0.1,0-0.1-0.1l0,0l0,0l0,0l0,0l0,0
		l0,0l0,0l0,0l0,0l0,0l0,0l0,0c-0.2-0.1-0.4-0.1-0.7-0.3l0,0l0,0l0,0l0,0l0,0l0,0l0,0l0,0l0,0l0,0l0,0l0,0l0,0l0,0l0,0l0,0l0,0l0,0
		l0,0l0,0l0,0l0,0l0,0l0,0l0,0l0,0l0,0l0,0l0,0l0,0l0,0l0,0l0,0l0,0l0,0l0,0l0,0l0,0l0,0l0,0l0,0l0,0l0,0l0,0l0,0
		C115.4,52.4,115.4,52.4,115.3,52.4L115.3,52.4z M112.5,51.6c-0.1,0-0.2,0.1-0.3,0.2c-0.1,0.2,0,0.3,0.2,0.3c0.5,0.1,1,0.3,1.5,0.4
		l0,0c0.1,0,0.2,0,0.3-0.2c0.1-0.1-0.1-0.3-0.2-0.3s-0.1,0-0.1,0l0,0l0,0l0,0h-0.1l0,0l0,0l0,0l0,0l0,0l0,0l0,0l0,0l0,0l0,0
		c-0.2,0-0.3-0.1-0.5-0.2l0,0l0,0l0,0l0,0l0,0h-0.1l0,0l0,0l0,0l0,0l0,0l0,0l0,0l0,0l0,0l0,0l0,0l0,0l0,0l0,0l0,0l0,0l0,0l0,0l0,0
		l0,0l0,0l0,0l0,0l0,0l0,0l0,0l0,0l0,0l0,0l0,0l0,0l0,0h-0.1l0,0l0,0l0,0l0,0l0,0l0,0l0,0l0,0l0,0l0,0l0,0
		C112.5,51.6,112.5,51.6,112.5,51.6L112.5,51.6z M109.6,50.9c-0.1,0-0.2,0.1-0.3,0.2c-0.1,0.2,0,0.3,0.2,0.3c0.5,0.1,1,0.2,1.5,0.3
		l0,0c0.1,0,0.2-0.1,0.3-0.2c0.1-0.2,0-0.3-0.2-0.3s-0.4-0.1-0.6-0.2l0,0l0,0l0,0h-0.1l0,0l0,0l0,0l0,0l0,0l0,0l0,0l0,0l0,0l0,0l0,0
		l0,0l0,0l0,0l0,0l0,0l0,0l0,0C110,51,109.8,51,109.6,50.9L109.6,50.9L109.6,50.9z M106.7,50.5c-0.1,0-0.3,0.1-0.3,0.2
		c0,0.1,0.1,0.3,0.2,0.3c0.5,0,1,0.1,1.5,0.2l0,0c0.1,0,0.3-0.1,0.3-0.2c0-0.2,0-0.3-0.2-0.3l0,0h-0.1l0,0l0,0l0,0l0,0l0,0l0,0l0,0
		l0,0l0,0l0,0l0,0l0,0l0,0l0,0l0,0l0,0l0,0l0,0l0,0l0,0l0,0l0,0l0,0l0,0l0,0l0,0l0,0l0,0l0,0l0,0l0,0l0,0l0,0l0,0l0,0l0,0
		c-0.1,0-0.1,0-0.1,0l0,0l0,0l0,0C107.3,50.5,107,50.5,106.7,50.5L106.7,50.5L106.7,50.5z M103.7,50.2c-0.2,0-0.3,0.1-0.3,0.3
		c0,0.1,0.1,0.3,0.3,0.3c0.5,0,1,0.1,1.5,0.1l0,0c0.2,0,0.3-0.1,0.3-0.2c0-0.1-0.1-0.3-0.2-0.3c0,0,0,0-0.1,0l0,0l0,0l0,0l0,0l0,0
		l0,0l0,0l0,0l0,0l0,0l0,0l0,0l0,0l0,0C104.5,50.2,104.2,50.2,103.7,50.2L103.7,50.2L103.7,50.2z M100.7,50c-0.2,0-0.3,0.1-0.3,0.3
		s0.1,0.3,0.3,0.3c0.5,0,1,0,1.5,0l0,0c0.2,0,0.3-0.1,0.3-0.3c0-0.1-0.1-0.3-0.3-0.3c-0.1,0-0.3,0-0.3,0l0,0l0,0l0,0l0,0l0,0l0,0
		l0,0l0,0l0,0l0,0l0,0l0,0l0,0l0,0l0,0l0,0l0,0l0,0l0,0l0,0l0,0l0,0l0,0l0,0l0,0l0,0l0,0l0,0l0,0l0,0h-0.1l0,0l0,0l0,0l0,0l0,0l0,0
		l0,0l0,0l0,0l0,0l0,0l0,0l0,0l0,0l0,0l0,0l0,0l0,0l0,0c-0.1,0-0.1,0-0.1,0l0,0l0,0l0,0l0,0l0,0C100.9,50,100.8,50,100.7,50
		L100.7,50L100.7,50z"/>
</g>
<g>
	
		<animateTransform  accumulate="none" additive="replace" attributeName="transform" attributeType="XML" calcMode="linear" dur="10s" fill="remove" from="360 100 100" repeatCount="indefinite" restart="always" to="0 100 100" type="rotate">
		</animateTransform>
	<path class="st0" d="M100,35.1L100,35.1L100,35.1C100,35.1,99.9,35.1,100,35.1C99.9,35.1,99.9,35.1,100,35.1
		C99.9,35.1,99.9,35.1,100,35.1C99.9,35.1,99.9,35.1,100,35.1C99.9,35.1,99.9,35.1,100,35.1L100,35.1L100,35.1L100,35.1L100,35.1
		L100,35.1L100,35.1L100,35.1L100,35.1L100,35.1L100,35.1L100,35.1L100,35.1L100,35.1L100,35.1L100,35.1L100,35.1L100,35.1L100,35.1
		L100,35.1c-0.1,0-0.1,0-0.2,0l0,0l0,0l0,0c0,0,0,0-0.1,0l0,0h-0.1l0,0c-0.7,0-1.3,0-1.9,0.1c-0.2,0-0.4,0.2-0.4,0.4
		s0.2,0.4,0.4,0.4l0,0c0.8,0,1.6-0.1,2.4-0.1c0,0.1,0,0.2,0,0.2s0-0.1,0-0.2l0,0l0,0l0,0c0,0.1,0,0.2,0,0.2s0-0.1,0-0.2l0,0
		c0.2,0,0.4-0.2,0.4-0.4C100.4,35.3,100.2,35.1,100,35.1L100,35.1L100,35.1L100,35.1L100,35.1L100,35.1L100,35.1L100,35.1L100,35.1
		L100,35.1L100,35.1z M95.1,35.3L95.1,35.3c-0.8,0.1-1.6,0.2-2.4,0.2c-0.2,0-0.4,0.2-0.3,0.5c0,0.2,0.2,0.3,0.4,0.3c0,0,0,0,0.1,0
		c0.8-0.1,1.6-0.2,2.4-0.2c0.2,0,0.4-0.2,0.4-0.4C95.5,35.4,95.3,35.3,95.1,35.3L95.1,35.3z M90.3,35.8L90.3,35.8
		c-0.3,0-0.5,0.1-0.7,0.1l0,0l0,0l0,0c0,0,0,0-0.1,0l0,0l0,0l0,0l0,0l0,0l0,0l0,0l0,0l0,0l0,0c0,0,0,0-0.1,0l0,0l0,0l0,0
		c-0.5,0.1-1,0.2-1.5,0.2c-0.2,0.1-0.3,0.2-0.3,0.5c0,0.2,0.2,0.3,0.4,0.3h0.1c0.8-0.2,1.6-0.3,2.4-0.4c0.2,0,0.4-0.2,0.3-0.5
		C90.7,36,90.5,35.8,90.3,35.8L90.3,35.8z M85.5,36.7L85.5,36.7c-0.9,0.2-1.6,0.4-2.4,0.6c-0.2,0.1-0.3,0.2-0.3,0.5
		c0.1,0.2,0.2,0.3,0.4,0.3h0.1c0.7-0.2,1.6-0.4,2.4-0.6c0.2-0.1,0.3-0.2,0.3-0.5C85.9,36.9,85.7,36.7,85.5,36.7L85.5,36.7z M80.8,38
		L80.8,38h-0.2l0,0l0,0l0,0l0,0l0,0l0,0l0,0l0,0l0,0l0,0c-0.6,0.2-1.1,0.3-1.6,0.6l0,0l0,0l0,0l0,0l0,0l0,0l0,0l0,0
		c-0.2,0.1-0.2,0.1-0.4,0.2c-0.2,0.1-0.3,0.3-0.2,0.5c0.1,0.2,0.2,0.2,0.4,0.2c0.1,0,0.1,0,0.2,0c0.7-0.2,1.6-0.5,2.3-0.7
		c0.2-0.1,0.3-0.3,0.2-0.5C81.1,38.1,81,38,80.8,38L80.8,38z M76.2,39.7c-0.1,0-0.1,0-0.2,0l0,0l0,0l0,0l0,0l0,0l0,0l0,0l0,0l0,0
		l0,0l0,0l0,0l0,0l0,0l0,0l0,0l0,0l0,0l0,0l0,0l0,0h-0.1l0,0c-0.2,0.1-0.3,0.2-0.6,0.2l0,0h-0.1l0,0l0,0l0,0l0,0l0,0l0,0l0,0l0,0
		l0,0l0,0l0,0l0,0l0,0l0,0l0,0l0,0l0,0l0,0l0,0l0,0l0,0l0,0l0,0l0,0l0,0l0,0l0,0l0,0h-0.1l0,0c-0.2,0.1-0.6,0.2-0.8,0.4
		c-0.2,0.1-0.3,0.3-0.2,0.6c0.1,0.2,0.2,0.2,0.4,0.2c0.1,0,0.1,0,0.2,0c0.7-0.3,1.5-0.7,2.2-1c0.2-0.1,0.3-0.3,0.2-0.6
		C76.6,39.7,76.4,39.7,76.2,39.7L76.2,39.7z M71.8,41.6c-0.1,0-0.1,0-0.2,0.1l0,0l0,0l0,0l0,0c-0.7,0.3-1.5,0.7-2.1,1.1
		c-0.2,0.1-0.2,0.3-0.2,0.6c0.1,0.2,0.2,0.2,0.3,0.2c0.1,0,0.2,0,0.2-0.1c0.7-0.4,1.4-0.7,2.1-1.1c0.2-0.1,0.2-0.3,0.2-0.6
		C72.1,41.7,71.9,41.6,71.8,41.6L71.8,41.6z M67.5,44c-0.1,0-0.2,0-0.2,0.1c-0.2,0.2-0.5,0.3-0.7,0.4l0,0l0,0l0,0l0,0l0,0l0,0l0,0
		l0,0l0,0l0,0l0,0l0,0c-0.4,0.2-0.8,0.5-1.2,0.7c-0.2,0.1-0.2,0.4-0.1,0.6c0.1,0.1,0.2,0.2,0.3,0.2c0.1,0,0.2,0,0.2-0.1
		c0.7-0.4,1.4-0.9,2-1.3C68,44.5,68,44.3,68,44C67.8,44.1,67.7,44,67.5,44L67.5,44z M63.4,46.6c-0.1,0-0.2,0-0.2,0.1
		c-0.2,0.2-0.4,0.2-0.6,0.4l0,0l0,0l0,0l0,0l0,0l0,0l0,0l0,0l0,0l0,0l0,0l0,0l0,0l0,0l0,0l0,0l0,0l0,0l0,0l0,0l0,0l0,0l0,0l0,0l0,0
		l0,0l0,0l0,0c-0.3,0.2-0.7,0.5-1.1,0.8c-0.2,0.2-0.2,0.4-0.1,0.6c0.1,0.1,0.2,0.2,0.3,0.2s0.2,0,0.2-0.1c0.7-0.5,1.3-1,2-1.4
		c0.2-0.2,0.2-0.4,0.1-0.6C63.7,46.7,63.6,46.6,63.4,46.6L63.4,46.6z M59.6,49.5c-0.1,0-0.2,0-0.2,0.1c-0.7,0.5-1.2,1.1-1.9,1.6
		c-0.2,0.2-0.2,0.4,0,0.6c0.1,0.1,0.2,0.2,0.3,0.2s0.2,0,0.2-0.1c0.6-0.6,1.2-1.1,1.9-1.6c0.2-0.2,0.2-0.4,0.1-0.6
		C59.8,49.6,59.7,49.5,59.6,49.5L59.6,49.5z M55.9,52.8c-0.1,0-0.2,0-0.2,0.1l0,0c0,0,0,0-0.1,0.1l0,0l0,0l0,0l0,0l0,0l0,0l0,0l0,0
		l0,0l0,0l0,0l0,0l0,0l0,0l0,0l0,0l0,0l0,0l0,0l0,0l0,0c0,0,0,0-0.1,0.1l0,0l0,0l0,0l0,0l0,0l0,0l0,0l0,0l0,0l0,0l0,0
		c0,0,0,0-0.1,0.1l0,0c-0.3,0.3-0.7,0.7-1.1,1.1l0,0l0,0l0,0l0,0l0,0l0,0l0,0c-0.2,0.2-0.2,0.4,0,0.6c0.1,0.1,0.2,0.1,0.2,0.1
		c0.1,0,0.2-0.1,0.3-0.2c0.6-0.6,1.1-1.1,1.7-1.7c0.2-0.2,0.2-0.4,0-0.6C56.2,52.8,56,52.8,55.9,52.8L55.9,52.8z M52.5,56.2
		c-0.1,0-0.2,0.1-0.3,0.2l0,0l0,0l0,0l0,0c0,0,0,0-0.1,0.1l0,0c-0.2,0.2-0.3,0.4-0.6,0.6l0,0c0,0,0,0-0.1,0.1l0,0l0,0l0,0
		c0,0,0,0-0.1,0.1l0,0c0,0,0,0-0.1,0.1l0,0l0,0l0,0l0,0l0,0l0,0l0,0l0,0l0,0l0,0l0,0l0,0l0,0l0,0l0,0l0,0l0,0l0,0l0,0l0,0l0,0l0,0
		l0,0l0,0l0,0l0,0l0,0l0,0l0,0l0,0l0,0l0,0c0,0,0,0-0.1,0.1l0,0c-0.2,0.2-0.2,0.3-0.4,0.4c-0.2,0.2-0.1,0.4,0.1,0.6
		c0.1,0.1,0.2,0.1,0.2,0.1c0.1,0,0.2-0.1,0.3-0.2c0.5-0.7,1.1-1.2,1.6-1.8c0.2-0.2,0.2-0.4,0-0.6C52.7,56.3,52.6,56.2,52.5,56.2
		L52.5,56.2z M49.4,60c-0.1,0-0.2,0.1-0.3,0.2c-0.2,0.2-0.2,0.3-0.4,0.5l0,0l0,0l0,0l0,0l0,0l0,0l0,0l0,0l0,0l0,0l0,0l0,0l0,0l0,0
		l0,0l0,0l0,0l0,0c0,0,0,0-0.1,0.1l0,0c-0.3,0.4-0.6,0.8-0.9,1.2c-0.2,0.2-0.1,0.4,0.1,0.6c0.1,0.1,0.2,0.1,0.2,0.1
		c0.2,0,0.2-0.1,0.3-0.2c0.5-0.7,1-1.3,1.5-2c0.2-0.2,0.1-0.4-0.1-0.6C49.5,60,49.5,60,49.4,60L49.4,60z M46.6,64
		c-0.2,0-0.2,0.1-0.3,0.2c-0.2,0.3-0.4,0.6-0.6,0.9l0,0l0,0l0,0c0,0,0,0,0,0.1l0,0l0,0l0,0l0,0l0,0l0,0l0,0l0,0l0,0l0,0l0,0l0,0l0,0
		l0,0l0,0l0,0l0,0l0,0l0,0l0,0l0,0l0,0l0,0l0,0v0.1l0,0c-0.2,0.2-0.3,0.6-0.5,0.8c-0.1,0.2-0.1,0.4,0.2,0.6c0.1,0,0.2,0.1,0.2,0.1
		c0.2,0,0.2-0.1,0.3-0.2c0.4-0.7,0.8-1.4,1.3-2c0.2-0.2,0.1-0.4-0.1-0.6C46.7,64,46.7,64,46.6,64L46.6,64z M44.1,68.2
		c-0.2,0-0.2,0.1-0.3,0.2c-0.2,0.3-0.4,0.7-0.6,1.1l0,0c0,0,0,0,0,0.1l0,0l0,0l0,0l0,0l0,0l0,0l0,0l0,0l0,0l0,0l0,0l0,0l0,0l0,0l0,0
		l0,0l0,0l0,0l0,0l0,0l0,0l0,0l0,0l0,0l0,0l0,0l0,0l0,0l0,0l0,0l0,0l0,0l0,0l0,0l0,0l0,0l0,0l0,0l0,0l0,0l0,0l0,0l0,0l0,0l0,0l0,0
		l0,0l0,0l0,0c0,0,0,0,0,0.1l0,0C43.1,69.9,43,70,43,70.1c-0.1,0.2,0,0.4,0.2,0.6c0.1,0,0.1,0.1,0.2,0.1c0.2,0,0.3-0.1,0.3-0.2
		c0.3-0.7,0.7-1.5,1.1-2.1c0.1-0.2,0-0.4-0.2-0.6C44.2,68.2,44.1,68.2,44.1,68.2L44.1,68.2z M41.9,72.5c-0.2,0-0.3,0.1-0.4,0.2
		c-0.2,0.6-0.5,1.1-0.7,1.7l0,0v0.1l0,0l0,0l0,0l0,0l0,0l0,0l0,0l0,0l0,0l0,0l0,0l0,0l0,0l0,0l0,0l0,0l0,0l0,0
		c0,0.1-0.1,0.2-0.1,0.2c-0.1,0.2,0,0.4,0.2,0.6c0.1,0,0.1,0,0.2,0c0.2,0,0.3-0.1,0.4-0.2c0.3-0.7,0.7-1.5,1-2.2
		c0.1-0.2,0-0.4-0.2-0.6C42,72.5,41.9,72.5,41.9,72.5L41.9,72.5z M40,77c-0.2,0-0.3,0.1-0.4,0.2c-0.1,0.1-0.1,0.2-0.2,0.3l0,0l0,0
		l0,0l0,0l0,0l0,0l0,0l0,0l0,0l0,0c0,0,0,0,0,0.1l0,0l0,0l0,0c-0.2,0.5-0.4,1.1-0.6,1.6l0,0v0.1l0,0l0,0l0,0c0,0,0,0,0,0.1l0,0l0,0
		l0,0l0,0l0,0l0,0l0,0l0,0c-0.1,0.2,0.1,0.4,0.2,0.5c0.1,0,0.1,0,0.2,0c0.2,0,0.3-0.1,0.4-0.2c0.2-0.7,0.5-1.6,0.8-2.3
		c0.1-0.2,0-0.4-0.2-0.5C40.1,77,40,77,40,77L40,77z M38.4,81.5c-0.2,0-0.3,0.1-0.4,0.3c-0.2,0.7-0.3,1.3-0.5,1.9l0,0l0,0l0,0l0,0
		l0,0l0,0l0,0l0,0l0,0l0,0l0,0l0,0l0,0l0,0l0,0l0,0l0,0l0,0l0,0l0,0l0,0l0,0c0,0,0,0,0,0.1l0,0l0,0l0,0c0,0.1,0,0.1,0,0.2
		c-0.1,0.2,0.1,0.4,0.3,0.5h0.1c0.2,0,0.3-0.2,0.4-0.3c0.2-0.8,0.4-1.6,0.7-2.4c0.1-0.2-0.1-0.4-0.2-0.5
		C38.5,81.5,38.4,81.5,38.4,81.5L38.4,81.5z M37.3,86.3c-0.2,0-0.3,0.2-0.4,0.3l0,0l0,0l0,0l0,0c-0.1,0.4-0.2,0.7-0.2,1.1l0,0
		c0,0,0,0,0,0.1l0,0l0,0l0,0l0,0l0,0l0,0l0,0l0,0l0,0l0,0l0,0l0,0l0,0l0,0l0,0l0,0c0,0,0,0,0,0.1l0,0l0,0l0,0c0,0,0,0,0,0.1l0,0l0,0
		l0,0c-0.1,0.2-0.1,0.6-0.2,0.8c0,0.2,0.1,0.4,0.3,0.5h0.1c0.2,0,0.4-0.2,0.4-0.3c0.2-0.8,0.2-1.6,0.4-2.4c0.1-0.2-0.1-0.4-0.3-0.5
		C37.3,86.3,37.3,86.3,37.3,86.3L37.3,86.3z M36.5,91.1c-0.2,0-0.4,0.2-0.4,0.3c-0.1,0.4-0.1,0.7-0.2,1.1l0,0c0,0,0,0,0,0.1l0,0l0,0
		l0,0l0,0l0,0l0,0l0,0l0,0l0,0l0,0l0,0l0,0l0,0l0,0l0,0l0,0c0,0,0,0,0,0.1l0,0c0,0.3-0.1,0.7-0.1,1c0,0.2,0.2,0.4,0.4,0.4l0,0
		c0.2,0,0.4-0.2,0.4-0.4c0.1-0.8,0.2-1.6,0.2-2.4C36.9,91.3,36.7,91.1,36.5,91.1L36.5,91.1L36.5,91.1z M36,95.9
		c-0.2,0-0.4,0.2-0.4,0.4c0,0.4-0.1,0.8-0.1,1.2l0,0l0,0l0,0c0,0,0,0,0,0.1l0,0l0,0l0,0l0,0l0,0l0,0l0,0l0,0l0,0l0,0l0,0l0,0l0,0
		l0,0l0,0l0,0l0,0l0,0l0,0l0,0l0,0l0,0l0,0l0,0l0,0l0,0l0,0l0,0l0,0l0,0c0,0,0,0,0,0.1l0,0l0,0l0,0c0,0.2,0,0.4,0,0.7
		s0.2,0.4,0.4,0.4l0,0c0.2,0,0.4-0.2,0.4-0.4c0-0.8,0.1-1.6,0.1-2.4C36.4,96.2,36.2,95.9,36,95.9L36,95.9L36,95.9z M35.9,100.8
		L35.9,100.8c-0.2,0-0.4,0.2-0.4,0.4c0,0.2,0,0.6,0,0.8l0,0c0,0,0,0,0,0.1l0,0l0,0l0,0c0,0,0,0,0,0.1l0,0l0,0l0,0l0,0l0,0l0,0l0,0
		l0,0l0,0l0,0l0,0l0,0l0,0l0,0l0,0l0,0l0,0l0,0l0,0l0,0l0,0l0,0l0,0l0,0v0.1l0,0c0,0.4,0,0.7,0.1,1.1c0,0.2,0.2,0.4,0.4,0.4l0,0
		c0.2,0,0.4-0.2,0.4-0.4c-0.1-0.8-0.1-1.6-0.1-2.4C36.3,101,36.2,100.8,35.9,100.8L35.9,100.8z M36.2,105.6L36.2,105.6
		c-0.2,0-0.4,0.2-0.4,0.4l0,0l0,0l0,0l0,0c0.1,0.8,0.2,1.6,0.2,2.4c0,0.2,0.2,0.3,0.4,0.3c0,0,0,0,0.1,0c0.2,0,0.4-0.2,0.3-0.5
		c-0.1-0.8-0.2-1.6-0.2-2.4C36.6,105.8,36.4,105.6,36.2,105.6L36.2,105.6z M36.8,110.5L36.8,110.5c-0.3,0.1-0.4,0.2-0.4,0.5
		c0.1,0.5,0.2,1,0.2,1.5l0,0l0,0l0,0c0,0,0,0,0,0.1l0,0l0,0l0,0l0,0l0,0l0,0l0,0l0,0l0,0l0,0l0,0l0,0l0,0l0,0l0,0l0,0
		c0.1,0.2,0.1,0.5,0.2,0.7c0,0.2,0.2,0.3,0.4,0.3h0.1c0.2-0.1,0.3-0.2,0.3-0.5c-0.2-0.8-0.3-1.6-0.4-2.4
		C37.2,110.6,37.1,110.5,36.8,110.5L36.8,110.5z M37.8,115.3L37.8,115.3c-0.3,0.1-0.4,0.2-0.4,0.5l0,0l0,0l0,0l0,0l0,0l0,0l0,0l0,0
		l0,0l0,0l0,0l0,0l0,0l0,0l0,0l0,0l0,0l0,0l0,0l0,0l0,0l0,0l0,0l0,0l0,0l0,0l0,0l0,0l0,0l0,0l0,0l0,0l0,0l0,0l0,0l0,0l0,0l0,0l0,0
		l0,0c0,0,0,0,0,0.1l0,0c0.2,0.7,0.3,1.2,0.5,1.9c0.1,0.2,0.2,0.3,0.4,0.3h0.1c0.2-0.1,0.3-0.3,0.2-0.5
		C38.4,116.9,38.2,116,37.8,115.3C38.2,115.3,38,115.3,37.8,115.3L37.8,115.3z M39.2,119.9c-0.1,0-0.1,0-0.2,0
		c-0.2,0.1-0.3,0.3-0.2,0.5s0.2,0.5,0.2,0.7l0,0l0,0l0,0l0,0l0,0l0,0l0,0l0,0l0,0l0,0c0.2,0.5,0.3,1,0.5,1.5
		c0.1,0.2,0.2,0.2,0.4,0.2c0.1,0,0.1,0,0.2,0c0.2-0.1,0.3-0.3,0.2-0.5c-0.2-0.7-0.6-1.6-0.8-2.3C39.5,120.1,39.3,119.9,39.2,119.9
		L39.2,119.9z M40.9,124.5c-0.1,0-0.1,0-0.2,0c-0.2,0.1-0.3,0.3-0.2,0.6l0,0l0,0l0,0l0,0c0.1,0.2,0.2,0.5,0.3,0.7l0,0l0,0l0,0
		c0,0,0,0,0,0.1l0,0l0,0l0,0l0,0l0,0l0,0l0,0l0,0l0,0l0,0l0,0l0,0l0,0l0,0l0,0l0,0l0,0l0,0c0,0,0,0,0,0.1l0,0l0,0l0,0v0.1l0,0
		c0.2,0.4,0.3,0.7,0.5,1.1c0.1,0.2,0.2,0.2,0.4,0.2c0.1,0,0.1,0,0.2,0c0.2-0.1,0.3-0.3,0.2-0.6c-0.3-0.7-0.7-1.5-1-2.2
		C41.1,124.6,41.1,124.5,40.9,124.5L40.9,124.5z M42.9,128.9c-0.1,0-0.2,0-0.2,0.1c-0.2,0.1-0.2,0.3-0.2,0.6
		c0.4,0.7,0.7,1.5,1.1,2.2c0.1,0.2,0.2,0.2,0.3,0.2s0.2,0,0.2-0.1c0.2-0.1,0.2-0.3,0.2-0.6c-0.4-0.7-0.7-1.4-1.1-2.1
		C43.2,129,43,128.9,42.9,128.9L42.9,128.9z M45.3,133.1c-0.1,0-0.2,0-0.2,0.1c-0.2,0.1-0.2,0.3-0.2,0.6c0.4,0.7,0.7,1.2,1.1,1.8
		l0,0l0,0l0,0l0,0l0,0l0,0l0,0l0,0l0,0l0,0l0,0l0,0c0,0.1,0.1,0.1,0.1,0.2c0.1,0.1,0.2,0.2,0.3,0.2s0.2,0,0.2-0.1
		c0.2-0.2,0.2-0.4,0.1-0.6c-0.4-0.7-0.9-1.4-1.3-2C45.5,133.2,45.4,133.1,45.3,133.1L45.3,133.1z M47.9,137.2c-0.1,0-0.2,0-0.2,0.1
		c-0.2,0.2-0.2,0.4-0.1,0.6c0.5,0.7,1,1.3,1.5,2c0.1,0.1,0.2,0.2,0.3,0.2s0.2,0,0.2-0.1c0.2-0.2,0.2-0.4,0.1-0.6
		c-0.5-0.7-1-1.3-1.5-2C48.2,137.3,48.1,137.2,47.9,137.2L47.9,137.2z M50.9,141.1c-0.1,0-0.2,0-0.2,0.1c-0.2,0.2-0.2,0.4-0.1,0.6
		l0.1,0.1l0,0c0,0,0,0,0.1,0.1l0,0l0,0l0,0l0,0l0,0l0,0l0,0l0,0l0,0l0,0l0,0l0,0l0,0l0,0l0,0l0,0l0,0l0,0l0,0l0,0l0,0l0,0l0,0l0,0
		l0,0l0,0l0,0l0,0c0,0,0,0,0.1,0.1l0,0c0,0,0,0,0.1,0.1l0,0l0,0l0,0l0,0l0,0l0,0l0,0c0,0,0,0,0.1,0.1l0,0c0,0,0,0,0.1,0.1l0,0l0,0
		l0,0l0,0l0,0l0,0l0,0c0,0,0,0,0.1,0.1l0,0l0,0l0,0l0,0l0,0l0,0l0,0l0,0l0,0l0,0l0,0c0,0,0,0,0.1,0.1l0,0l0,0l0,0l0,0l0,0l0,0l0,0
		l0,0l0,0l0,0l0,0l0,0l0,0l0,0l0,0l0,0l0,0l0,0l0,0l0,0l0,0l0,0l0,0l0,0l0,0l0,0l0,0l0,0l0,0l0,0l0,0l0,0l0,0l0,0l0,0l0,0l0,0l0,0
		l0,0l0,0l0,0l0,0l0,0l0,0l0,0l0,0c0.1,0.1,0.2,0.2,0.3,0.2s0.2,0,0.2-0.1c0.2-0.2,0.2-0.4,0-0.6c-0.6-0.6-1.1-1.2-1.6-1.8
		C51.2,141.1,51,141.1,50.9,141.1L50.9,141.1z M54.2,144.7c-0.1,0-0.2,0-0.2,0.1c-0.2,0.2-0.2,0.4,0,0.6l0.1,0.1l0,0l0,0l0,0
		c0,0,0,0,0.1,0.1l0,0l0,0l0,0l0,0l0,0l0,0l0,0l0,0l0,0l0,0l0,0l0,0l0,0l0,0c0,0,0,0,0.1,0.1l0,0c0,0,0,0,0.1,0.1l0,0
		c0.4,0.4,0.8,0.8,1.3,1.2c0.1,0.1,0.2,0.1,0.2,0.1c0.1,0,0.2-0.1,0.3-0.2c0.2-0.2,0.2-0.4,0-0.6c-0.6-0.6-1.1-1.1-1.7-1.7
		C54.4,144.7,54.3,144.7,54.2,144.7L54.2,144.7z M57.7,148.1c-0.1,0-0.2,0.1-0.3,0.2c-0.2,0.2-0.2,0.4,0,0.6l0.1,0.1l0,0l0,0l0,0
		l0,0l0,0l0,0l0,0l0,0l0,0l0,0c0.4,0.3,0.8,0.7,1.2,1.1l0,0l0,0l0,0l0,0l0,0l0,0l0,0l0,0l0,0l0,0l0,0l0,0l0,0l0,0l0,0l0,0l0,0l0,0
		l0.1,0.1c0.1,0.1,0.2,0.1,0.2,0.1c0.1,0,0.2-0.1,0.3-0.2c0.2-0.2,0.1-0.4-0.1-0.6c-0.7-0.5-1.2-1.1-1.9-1.6
		C57.9,148.1,57.8,148.1,57.7,148.1L57.7,148.1z M61.5,151.1c-0.2,0-0.2,0.1-0.3,0.2c-0.2,0.2-0.1,0.4,0.1,0.6
		c0.1,0.1,0.2,0.2,0.3,0.2l0,0l0,0l0,0l0,0l0,0l0,0l0,0l0,0l0,0l0,0l0,0l0,0c0.5,0.4,1,0.7,1.6,1.1c0.1,0.1,0.2,0.1,0.2,0.1
		c0.2,0,0.2-0.1,0.3-0.2c0.2-0.2,0.1-0.4-0.1-0.6C62.9,152,62.3,151.5,61.5,151.1C61.6,151.2,61.5,151.1,61.5,151.1L61.5,151.1z
		 M65.5,154c-0.2,0-0.2,0.1-0.3,0.2c-0.1,0.2-0.1,0.4,0.1,0.6c0.2,0.1,0.2,0.2,0.4,0.2l0,0l0,0l0,0l0,0l0,0l0,0l0,0l0,0l0,0l0,0l0,0
		l0,0l0,0l0,0l0,0l0,0l0,0l0,0l0,0l0,0l0,0l0,0l0,0l0,0l0,0l0,0l0,0l0,0l0,0l0,0l0,0l0,0l0,0l0,0l0,0l0,0l0,0l0,0c0,0,0,0,0.1,0l0,0
		c0,0,0.1,0,0.1,0.1l0,0c0.4,0.2,0.7,0.5,1.1,0.7c0.1,0,0.2,0.1,0.2,0.1c0.2,0,0.2-0.1,0.3-0.2c0.1-0.2,0.1-0.4-0.2-0.6
		c-0.7-0.4-1.4-0.8-2-1.3C65.6,154,65.5,154,65.5,154L65.5,154z M69.6,156.4c-0.2,0-0.2,0.1-0.3,0.2c-0.1,0.2,0,0.4,0.2,0.6
		c0.7,0.4,1.5,0.7,2.2,1.1c0.1,0,0.1,0.1,0.2,0.1c0.2,0,0.3-0.1,0.3-0.2c0.1-0.2,0-0.4-0.2-0.6c-0.7-0.3-1.5-0.7-2.1-1.1
		C69.8,156.4,69.7,156.4,69.6,156.4L69.6,156.4z M74,158.5c-0.2,0-0.3,0.1-0.4,0.2c-0.1,0.2,0,0.4,0.2,0.6c0.1,0.1,0.2,0.1,0.3,0.2
		l0,0c0,0,0,0,0.1,0l0,0l0,0l0,0l0,0l0,0c0,0,0,0,0.1,0l0,0l0,0l0,0l0,0l0,0l0,0l0,0l0,0l0,0l0,0l0,0l0,0l0,0l0,0l0,0l0,0l0,0l0,0
		c0.6,0.2,1.1,0.5,1.6,0.7c0.1,0,0.1,0,0.2,0c0.2,0,0.3-0.1,0.4-0.2c0.1-0.2,0-0.4-0.2-0.6c-0.7-0.3-1.5-0.7-2.2-1
		C74.1,158.5,74,158.5,74,158.5L74,158.5z M78.5,160.4c-0.2,0-0.3,0.1-0.4,0.2c-0.1,0.2,0,0.4,0.2,0.5l0,0l0,0l0,0l0,0l0,0l0,0l0,0
		c0.3,0.1,0.7,0.2,0.9,0.3l0,0h0.1l0,0l0,0l0,0l0,0l0,0l0,0l0,0l0,0l0,0l0,0l0,0l0,0l0,0l0,0l0,0l0,0c0.3,0.1,0.7,0.2,1.1,0.3h0.1
		c0.2,0,0.3-0.1,0.4-0.2c0.1-0.2-0.1-0.4-0.2-0.5c-0.7-0.2-1.6-0.5-2.3-0.7C78.6,160.4,78.5,160.4,78.5,160.4L78.5,160.4z
		 M83.2,161.8c-0.2,0-0.3,0.1-0.4,0.3s0.1,0.4,0.2,0.5c0.7,0.2,1.4,0.4,2.1,0.6l0,0l0,0l0,0l0,0l0,0l0,0l0,0l0,0l0,0l0,0l0,0l0,0
		l0,0l0,0l0,0l0,0l0,0l0,0l0,0h0.1c0.2,0,0.3-0.2,0.4-0.3c0.1-0.2-0.1-0.4-0.3-0.5c-0.8-0.2-1.6-0.4-2.4-0.6
		C83.3,161.9,83.2,161.8,83.2,161.8L83.2,161.8z M87.9,162.9c-0.2,0-0.3,0.2-0.4,0.3c-0.1,0.2,0.1,0.4,0.3,0.5
		c0.2,0,0.3,0.1,0.4,0.1l0,0l0,0l0,0c0,0,0,0,0.1,0l0,0l0,0l0,0l0,0l0,0l0,0l0,0l0,0l0,0l0,0l0,0l0,0l0,0l0,0l0,0l0,0l0,0l0,0l0,0
		l0,0l0,0l0,0l0,0l0,0l0,0l0,0l0,0l0,0c0,0,0,0,0.1,0l0,0l0,0l0,0l0,0l0,0l0,0l0,0l0,0l0,0l0,0l0,0l0,0l0,0l0,0l0,0l0,0l0,0l0,0l0,0
		l0,0l0,0l0,0l0,0l0,0l0,0l0,0l0,0l0,0l0,0l0,0l0,0l0,0l0,0l0,0h0.1l0,0c0.3,0.1,0.7,0.1,1.1,0.2h0.1c0.2,0,0.4-0.2,0.4-0.3
		c0-0.2-0.1-0.4-0.3-0.5C89.5,163.3,88.7,163.1,87.9,162.9L87.9,162.9L87.9,162.9z M92.7,163.7c-0.2,0-0.4,0.2-0.4,0.3
		c0,0.2,0.2,0.4,0.3,0.5c0.4,0.1,0.8,0.1,1.2,0.2l0,0H94l0,0l0,0l0,0h0.1l0,0c0,0,0,0,0.1,0l0,0l0,0l0,0c0,0,0,0,0.1,0l0,0l0,0l0,0
		l0,0l0,0l0,0l0,0l0,0l0,0l0,0l0,0l0,0l0,0l0,0l0,0l0,0l0,0l0,0l0,0l0,0l0,0l0,0l0,0l0,0l0,0l0,0l0,0l0,0c0.2,0,0.3,0,0.5,0l0,0
		c0.2,0,0.4-0.2,0.4-0.4s-0.2-0.4-0.4-0.4C94.4,163.8,93.5,163.8,92.7,163.7L92.7,163.7L92.7,163.7z M97.6,164
		c-0.2,0-0.4,0.2-0.4,0.4s0.2,0.4,0.4,0.4c0.1,0,0.2,0,0.2,0l0,0c0,0,0,0,0.1,0l0,0l0,0l0,0l0,0l0,0l0,0l0,0l0,0l0,0l0,0l0,0l0,0
		l0,0l0,0l0,0l0,0l0,0l0,0l0,0l0,0l0,0l0,0l0,0l0,0l0,0l0,0l0,0l0,0l0,0l0,0l0,0l0,0l0,0l0,0l0,0l0,0l0,0c0,0,0,0,0.1,0l0,0l0,0l0,0
		c0,0,0,0,0.1,0l0,0l0,0l0,0c0,0,0,0,0.1,0l0,0c0.5,0,0.9,0,1.4,0l0,0l0,0l0,0l0,0l0,0l0,0l0,0l0,0l0,0c0.2,0,0.4-0.2,0.4-0.4
		s-0.2-0.4-0.4-0.4C99.2,164.1,98.4,164.1,97.6,164L97.6,164L97.6,164z M104.9,163.9C104.8,163.9,104.8,163.9,104.9,163.9
		c-0.8,0.1-1.6,0.1-2.4,0.2c-0.2,0-0.4,0.2-0.4,0.4s0.2,0.4,0.4,0.4l0,0c0.7,0,1.2-0.1,1.8-0.1l0,0h0.1l0,0c0,0,0,0,0.1,0l0,0l0,0
		l0,0l0,0l0,0l0,0l0,0l0,0l0,0l0,0l0,0l0,0l0,0l0,0l0,0l0,0l0,0l0,0l0,0l0,0c0.1,0,0.2,0,0.2,0c0.2,0,0.4-0.2,0.4-0.4
		C105.2,164.1,105.1,163.9,104.9,163.9L104.9,163.9z M109.7,163.4C109.7,163.4,109.6,163.4,109.7,163.4c-0.8,0.2-1.6,0.2-2.4,0.3
		c-0.2,0-0.4,0.2-0.3,0.5c0,0.2,0.2,0.3,0.4,0.3c0,0,0,0,0.1,0c0.2,0,0.3,0,0.5-0.1l0,0c0,0,0,0,0.1,0l0,0l0,0l0,0l0,0l0,0l0,0l0,0
		l0,0l0,0l0,0l0,0l0,0l0,0l0,0l0,0l0,0l0,0l0,0l0,0l0,0l0,0l0,0c0,0,0,0,0.1,0l0,0c0.5-0.1,1.1-0.2,1.6-0.2c0.2,0,0.4-0.2,0.3-0.5
		C110,163.5,109.9,163.4,109.7,163.4L109.7,163.4z M114.5,162.5L114.5,162.5c-0.9,0.2-1.6,0.3-2.4,0.5c-0.2,0.1-0.3,0.2-0.3,0.5
		c0,0.2,0.2,0.3,0.4,0.3h0.1c0.8-0.2,1.6-0.3,2.4-0.5c0.2-0.1,0.3-0.2,0.3-0.5C114.9,162.5,114.7,162.5,114.5,162.5L114.5,162.5z
		 M119.2,161.2c0,0-0.1,0-0.2,0c-0.7,0.2-1.6,0.5-2.3,0.7c-0.2,0.1-0.3,0.2-0.3,0.5c0.1,0.2,0.2,0.3,0.4,0.3h0.1
		c0.2-0.1,0.3-0.1,0.5-0.2l0,0h0.1l0,0l0,0l0,0c0,0,0,0,0.1,0l0,0l0,0l0,0h0.1l0,0h0.1l0,0l0,0l0,0c0,0,0,0,0.1,0l0,0l0,0l0,0h0.1
		l0,0c0.4-0.1,0.7-0.2,1.1-0.3l0,0l0,0l0,0l0,0l0,0l0,0l0,0l0,0l0,0l0,0l0,0l0,0l0,0l0,0l0,0l0,0h0.1c0.2-0.1,0.3-0.3,0.2-0.5
		C119.5,161.2,119.3,161.2,119.2,161.2L119.2,161.2z M123.8,159.5c-0.1,0-0.1,0-0.2,0c-0.7,0.3-1.5,0.6-2.3,0.9
		c-0.2,0.1-0.3,0.3-0.2,0.5s0.2,0.2,0.4,0.2c0.1,0,0.1,0,0.2,0s0.1-0.1,0.2-0.1l0,0l0,0l0,0c0,0,0,0,0.1,0l0,0l0,0l0,0l0,0
		c0,0,0,0,0.1,0l0,0c0.5-0.2,1-0.4,1.6-0.6l0,0l0,0l0,0l0,0l0,0l0,0l0,0l0,0l0,0l0,0c0.1-0.1,0.2-0.1,0.3-0.2
		c0.2-0.1,0.3-0.3,0.2-0.6C124.1,159.6,123.9,159.5,123.8,159.5L123.8,159.5z M128.2,157.6c-0.1,0-0.1,0-0.2,0.1
		c-0.7,0.3-1.5,0.7-2.2,1.1c-0.2,0.1-0.3,0.3-0.2,0.6c0.1,0.2,0.2,0.2,0.4,0.2c0.1,0,0.1,0,0.2,0l0,0l0,0c0.2-0.1,0.5-0.2,0.7-0.3
		l0,0c0.1,0,0.1-0.1,0.2-0.1l0,0l0,0l0,0c0,0,0,0,0.1,0l0,0l0,0l0,0h0.1l0,0l0,0l0,0c0,0,0,0,0.1,0l0,0l0,0l0,0l0,0l0,0
		c0,0,0,0,0.1,0l0,0l0,0l0,0c0,0,0,0,0.1,0l0,0l0,0l0,0l0,0l0,0c0,0,0,0,0.1,0l0,0l0,0l0,0l0,0l0,0l0,0l0,0l0,0l0,0l0,0l0,0
		c0,0,0,0,0.1,0l0,0l0,0l0,0h0.1l0,0l0,0l0,0c0.2-0.1,0.4-0.2,0.6-0.3s0.2-0.3,0.2-0.6C128.5,157.6,128.3,157.6,128.2,157.6
		L128.2,157.6z M132.5,155.2c-0.1,0-0.2,0-0.2,0.1c-0.7,0.4-1.4,0.8-2.1,1.2c-0.2,0.1-0.2,0.3-0.2,0.6c0.1,0.2,0.2,0.2,0.3,0.2
		s0.2,0,0.2-0.1c0.6-0.3,1.2-0.7,1.8-1l0,0l0,0l0,0l0,0l0,0l0,0l0,0l0,0l0,0l0,0l0,0l0,0c0,0,0,0,0.1,0l0,0c0.1,0,0.1-0.1,0.2-0.1
		c0.2-0.1,0.2-0.3,0.2-0.6C132.7,155.3,132.6,155.2,132.5,155.2L132.5,155.2z M136.6,152.6c-0.1,0-0.2,0-0.2,0.1
		c-0.7,0.5-1.3,0.9-2,1.4c-0.2,0.1-0.2,0.4-0.1,0.6c0.1,0.1,0.2,0.2,0.3,0.2s0.2,0,0.2-0.1c0.6-0.3,1.1-0.7,1.6-1.1l0,0l0,0l0,0l0,0
		l0,0l0,0l0,0l0,0l0,0l0,0l0,0l0,0c0.1-0.1,0.2-0.2,0.3-0.2c0.2-0.2,0.2-0.4,0.1-0.6C136.8,152.7,136.7,152.6,136.6,152.6
		L136.6,152.6z M140.4,149.6c-0.1,0-0.2,0-0.2,0.1c-0.7,0.5-1.2,1-1.9,1.5c-0.2,0.2-0.2,0.4-0.1,0.6c0.1,0.1,0.2,0.2,0.3,0.2
		s0.2,0,0.2-0.1c0.7-0.5,1.3-1,2-1.6c0.2-0.2,0.2-0.4,0.1-0.6C140.7,149.7,140.6,149.6,140.4,149.6L140.4,149.6z M144.1,146.4
		c-0.1,0-0.2,0-0.2,0.1c-0.6,0.6-1.1,1.1-1.8,1.6c-0.2,0.2-0.2,0.4,0,0.6c0.1,0.1,0.2,0.2,0.3,0.2s0.2,0,0.2-0.1
		c0.2-0.2,0.6-0.5,0.8-0.7l0,0c0,0,0,0,0.1-0.1l0,0l0,0l0,0l0,0l0,0l0,0l0,0c0,0,0,0,0.1-0.1l0,0l0,0l0,0l0,0l0,0l0,0l0,0l0,0l0,0
		l0,0l0,0l0,0l0,0l0,0l0,0l0,0l0,0l0,0l0,0l0,0l0,0l0,0l0,0l0,0l0,0l0,0l0,0l0,0l0,0l0,0l0,0l0,0l0,0l0,0l0,0l0,0l0,0l0,0l0,0
		c0,0,0,0,0.1-0.1l0,0l0,0l0,0c0.1-0.1,0.1-0.1,0.2-0.2c0.2-0.2,0.2-0.4,0-0.6C144.3,146.5,144.2,146.4,144.1,146.4L144.1,146.4z
		 M147.5,142.9c-0.1,0-0.2,0.1-0.3,0.2c-0.6,0.6-1.1,1.2-1.6,1.8c-0.2,0.2-0.2,0.4,0,0.6c0.1,0.1,0.2,0.1,0.2,0.1
		c0.1,0,0.2-0.1,0.3-0.2c0,0,0,0,0.1-0.1l0,0c0,0,0,0,0.1-0.1l0,0c0,0,0,0,0.1-0.1l0,0l0,0l0,0l0,0l0,0l0,0l0,0c0,0,0,0,0.1-0.1l0,0
		c0,0,0,0,0.1-0.1l0,0l0,0l0,0l0,0l0,0l0,0l0,0c0,0,0,0,0.1-0.1l0,0c0,0,0,0,0.1-0.1l0,0l0.1-0.1l0,0c0.3-0.4,0.7-0.7,1.1-1.1
		c0.2-0.2,0.2-0.4,0-0.6C147.7,142.9,147.6,142.9,147.5,142.9L147.5,142.9z M150.6,139.2c-0.1,0-0.2,0.1-0.3,0.2
		c-0.5,0.7-1,1.3-1.6,1.9c-0.2,0.2-0.1,0.4,0.1,0.6c0.1,0.1,0.2,0.1,0.2,0.1s0.2-0.1,0.3-0.2c0.5-0.7,1-1.2,1.5-1.9l0,0l0,0l0,0
		c0.2-0.2,0.1-0.4-0.1-0.6C150.8,139.2,150.7,139.2,150.6,139.2L150.6,139.2z M153.4,135.2c-0.2,0-0.2,0.1-0.3,0.2
		c-0.4,0.7-0.9,1.3-1.4,2c-0.2,0.2-0.1,0.4,0.1,0.6c0.1,0.1,0.2,0.1,0.2,0.1c0.2,0,0.2-0.1,0.3-0.2c0.3-0.5,0.7-1,1.1-1.5l0,0l0,0
		l0,0c0,0,0,0,0-0.1l0,0l0,0l0,0l0,0l0,0l0,0l0,0l0,0l0,0l0,0l0,0l0,0l0,0l0,0l0,0l0,0l0,0l0,0l0,0l0,0l0,0l0,0l0,0l0,0l0,0l0,0l0,0
		l0,0l0,0l0,0l0,0l0,0l0,0l0,0c0,0,0-0.1,0.1-0.1c0.2-0.2,0.1-0.4-0.1-0.6C153.6,135.3,153.5,135.2,153.4,135.2L153.4,135.2z
		 M155.9,131c-0.2,0-0.2,0.1-0.3,0.2c-0.4,0.7-0.8,1.4-1.2,2.1c-0.1,0.2-0.1,0.4,0.2,0.6c0.1,0,0.2,0.1,0.2,0.1
		c0.2,0,0.2-0.1,0.3-0.2c0-0.1,0.1-0.1,0.1-0.2l0,0l0,0l0,0l0,0l0,0l0,0l0,0l0,0l0,0l0,0l0,0l0,0c0,0,0,0,0-0.1l0,0l0,0l0,0
		c0.2-0.2,0.3-0.6,0.5-0.8l0,0v-0.1l0,0l0,0l0,0l0,0l0,0l0,0l0,0l0,0l0,0l0,0l0,0l0,0l0,0l0,0l0,0l0,0l0,0l0,0
		c0.2-0.2,0.2-0.5,0.4-0.7c0.1-0.2,0-0.4-0.2-0.6C156.1,131.1,156,131,155.9,131L155.9,131z M158.1,126.7c-0.2,0-0.3,0.1-0.4,0.2
		c-0.3,0.7-0.7,1.5-1.1,2.2c-0.1,0.2,0,0.4,0.2,0.6c0.1,0,0.1,0.1,0.2,0.1c0.2,0,0.3-0.1,0.3-0.2c0.4-0.7,0.7-1.5,1.1-2.2
		C158.5,127.1,158.4,126.9,158.1,126.7C158.3,126.7,158.2,126.7,158.1,126.7L158.1,126.7z M160,122.2c-0.2,0-0.3,0.1-0.4,0.2
		c-0.2,0.7-0.6,1.5-0.9,2.3c-0.1,0.2,0,0.4,0.2,0.6c0.1,0,0.1,0,0.2,0c0.2,0,0.3-0.1,0.4-0.2c0.2-0.3,0.3-0.7,0.4-1.1l0,0l0,0l0,0
		l0,0l0,0l0,0l0,0l0,0l0,0l0,0l0,0l0,0l0,0l0,0l0,0l0,0c0,0,0,0,0-0.1l0,0l0,0l0,0v-0.1l0,0c0.1-0.3,0.2-0.6,0.3-0.9
		c0.1-0.2,0-0.4-0.2-0.5C160.1,122.2,160.1,122.2,160,122.2L160,122.2z M161.6,117.6c-0.2,0-0.3,0.1-0.4,0.3
		c-0.2,0.7-0.5,1.6-0.7,2.3c-0.1,0.2,0.1,0.4,0.2,0.5c0.1,0,0.1,0,0.2,0c0.2,0,0.3-0.1,0.4-0.2c0-0.1,0-0.1,0.1-0.2l0,0l0,0l0,0l0,0
		l0,0l0,0l0,0l0,0l0,0l0,0l0,0l0,0c0,0,0,0,0-0.1l0,0l0,0l0,0c0.2-0.5,0.3-1,0.5-1.5l0,0l0,0l0,0l0,0l0,0l0,0l0,0l0,0l0,0l0,0
		c0,0,0,0,0-0.1l0,0c0-0.1,0.1-0.2,0.1-0.4c0.1-0.2-0.1-0.4-0.2-0.5C161.6,117.6,161.6,117.6,161.6,117.6L161.6,117.6z M162.7,112.9
		c-0.2,0-0.3,0.2-0.4,0.3c-0.2,0.8-0.3,1.6-0.6,2.4c-0.1,0.2,0.1,0.4,0.3,0.5h0.1c0.2,0,0.3-0.2,0.4-0.3c0.1-0.5,0.2-1,0.3-1.4l0,0
		v-0.1l0,0c0,0,0,0,0-0.1l0,0l0,0l0,0l0,0l0,0l0,0l0,0l0,0l0,0l0,0l0,0l0,0l0,0l0,0l0,0l0,0l0,0l0,0l0,0l0,0l0,0l0,0l0,0l0,0
		c0,0,0,0,0-0.1l0,0c0-0.2,0.1-0.3,0.1-0.5c0.1-0.2-0.1-0.4-0.3-0.5C162.8,112.9,162.8,112.9,162.7,112.9L162.7,112.9z M163.5,108.1
		c-0.2,0-0.4,0.2-0.4,0.3c-0.1,0.8-0.2,1.6-0.3,2.4c0,0.2,0.1,0.4,0.3,0.5h0.1c0.2,0,0.4-0.2,0.4-0.3c0.2-0.8,0.2-1.6,0.3-2.4
		C164,108.3,163.8,108.1,163.5,108.1C163.6,108.1,163.5,108.1,163.5,108.1L163.5,108.1z M164,103.3c-0.2,0-0.4,0.2-0.4,0.4
		c-0.1,0.8-0.1,1.6-0.2,2.4c0,0.2,0.2,0.4,0.4,0.4l0,0c0.2,0,0.4-0.2,0.4-0.4c0-0.2,0-0.4,0.1-0.7l0,0v-0.1l0,0c0,0,0,0,0-0.1l0,0
		l0,0l0,0c0,0,0,0,0-0.1l0,0l0,0l0,0c0,0,0,0,0-0.1l0,0l0,0l0,0l0,0l0,0l0,0l0,0l0,0l0,0l0,0l0,0l0,0l0,0l0,0l0,0l0,0l0,0l0,0l0,0
		l0,0l0,0l0,0l0,0l0,0l0,0c0,0,0,0,0-0.1l0,0l0,0l0,0c0,0,0,0,0-0.1l0,0l0,0l0,0c0,0,0,0,0-0.1l0,0c0-0.1,0-0.1,0-0.2l0,0v-0.1l0,0
		v-0.1l0,0v-0.1l0,0v-0.1l0,0c0,0,0,0,0-0.1l0,0l0,0l0,0l0,0l0,0l0,0l0,0l0,0l0,0l0,0l0,0l0,0l0,0l0,0l0,0l0,0l0,0l0,0l0,0l0,0
		c0-0.1,0-0.2,0-0.2C164.4,103.4,164.3,103.3,164,103.3L164,103.3L164,103.3z M164.1,98.4L164.1,98.4c-0.2,0-0.4,0.2-0.4,0.4
		c0,0.4,0,0.8,0,1.2s0,0.8,0,1.2c0,0.2,0.2,0.4,0.4,0.4l0,0c0.2,0,0.4-0.2,0.4-0.4c0-0.3,0-0.6,0-0.9l0,0l0,0l0,0l0,0l0,0l0,0l0,0
		l0,0l0,0l0,0l0,0l0,0l0,0l0,0l0,0l0,0l0,0l0,0l0,0l0,0l0,0l0,0l0,0l0,0l0,0l0,0l0,0l0,0l0,0l0,0l0,0l0,0l0,0l0,0l0,0l0,0l0,0l0,0
		l0,0l0,0l0,0l0,0l0,0l0,0l0,0l0,0l0,0l0,0l0,0l0,0l0,0l0,0l0,0l0,0l0,0l0,0l0,0c0,0,0,0,0-0.1l0,0c0-0.2,0-0.5,0-0.7
		C164.5,98.5,164.3,98.4,164.1,98.4L164.1,98.4z M163.8,93.5L163.8,93.5c-0.2,0-0.4,0.2-0.4,0.4c0.1,0.8,0.2,1.6,0.2,2.4
		c0,0.2,0.2,0.4,0.4,0.4l0,0c0.2,0,0.4-0.2,0.4-0.4c-0.1-0.8-0.1-1.6-0.2-2.4C164.2,93.7,164,93.5,163.8,93.5L163.8,93.5z
		 M163.2,88.7C163.2,88.7,163.1,88.7,163.2,88.7c-0.3,0.1-0.4,0.2-0.4,0.5c0.2,0.8,0.2,1.6,0.3,2.4c0,0.2,0.2,0.3,0.4,0.3
		c0,0,0,0,0.1,0c0.2,0,0.4-0.2,0.3-0.5c-0.1-0.8-0.2-1.6-0.3-2.4C163.5,88.8,163.4,88.7,163.2,88.7L163.2,88.7z M162.2,83.9
		L162.2,83.9c-0.3,0.1-0.4,0.2-0.4,0.5c0.2,0.8,0.4,1.6,0.6,2.4c0,0.2,0.2,0.3,0.4,0.3h0.1c0.2-0.1,0.3-0.2,0.3-0.5
		c0-0.2-0.1-0.3-0.1-0.5l0,0l0,0l0,0l0,0l0,0l0,0l0,0l0,0c-0.2-0.6-0.2-1.2-0.4-1.8C162.5,84.1,162.4,83.9,162.2,83.9L162.2,83.9z
		 M160.8,79.3c-0.1,0-0.1,0-0.2,0c-0.2,0.1-0.3,0.3-0.2,0.5c0.2,0.7,0.5,1.6,0.7,2.3c0.1,0.2,0.2,0.3,0.4,0.3h0.1
		c0.2-0.1,0.3-0.3,0.2-0.5c0-0.1-0.1-0.2-0.1-0.2l0,0l0,0l0,0c0,0,0,0,0-0.1l0,0l0,0l0,0l0,0l0,0l0,0l0,0l0,0l0,0l0,0c0,0,0,0,0-0.1
		l0,0l0,0l0,0c-0.2-0.4-0.2-0.9-0.4-1.3l0,0l0,0l0,0l0,0l0,0l0,0l0,0l0,0l0,0l0,0l0,0l0,0l0,0l0,0c0-0.1-0.1-0.2-0.1-0.3
		C161.2,79.3,161,79.3,160.8,79.3L160.8,79.3z M159.1,74.7c-0.1,0-0.1,0-0.2,0c-0.2,0.1-0.3,0.3-0.2,0.6c0.3,0.7,0.6,1.5,0.9,2.3
		c0.1,0.2,0.2,0.2,0.4,0.2c0.1,0,0.1,0,0.2,0c0.2-0.1,0.3-0.3,0.2-0.5s-0.2-0.6-0.3-0.8l0,0v-0.1l0,0l0,0l0,0c0,0,0,0,0-0.1l0,0l0,0
		l0,0l0,0l0,0l0,0l0,0l0,0l0,0l0,0l0,0l0,0l0,0l0,0l0,0l0,0l0,0l0,0c0,0,0,0,0-0.1l0,0c-0.2-0.3-0.2-0.7-0.4-1.1
		C159.4,74.8,159.3,74.7,159.1,74.7L159.1,74.7z M157.1,70.3c-0.1,0-0.2,0-0.2,0.1c-0.2,0.1-0.2,0.3-0.2,0.6
		c0.3,0.7,0.7,1.5,1.1,2.2c0.1,0.2,0.2,0.2,0.4,0.2c0.1,0,0.1,0,0.2,0c0.2-0.1,0.3-0.3,0.2-0.6c0-0.1-0.1-0.2-0.1-0.2l0,0l0,0l0,0
		l0,0l0,0l0,0l0,0l0,0l0,0l0,0c-0.3-0.7-0.6-1.2-0.9-1.8l0,0l0,0l0,0l0,0l0,0l0,0C157.4,70.4,157.2,70.3,157.1,70.3L157.1,70.3z
		 M154.7,66c-0.1,0-0.2,0-0.2,0.1c-0.2,0.1-0.2,0.4-0.2,0.6c0.4,0.7,0.8,1.4,1.2,2.1c0.1,0.2,0.2,0.2,0.3,0.2s0.2,0,0.2-0.1
		c0.2-0.1,0.2-0.3,0.2-0.6l0,0l0,0l0,0l0,0c-0.2-0.4-0.5-0.9-0.7-1.3l0,0l0,0l0,0l0,0l0,0l0,0l0,0l0,0l0,0l0,0l0,0l0,0l0,0l0,0l0,0
		l0,0l0,0l0,0l0,0l0,0l0,0l0,0l0,0l0,0l0,0l0,0l0,0l0,0l0,0l0,0c0,0,0,0,0-0.1l0,0l0,0l0,0v-0.1l0,0c0,0,0-0.1-0.1-0.1l0,0
		c0-0.1-0.1-0.1-0.1-0.2l0,0l0,0l0,0l0,0l0,0l0,0l0,0l0,0l0,0C155,66.1,154.9,66,154.7,66L154.7,66z M152.1,62c-0.1,0-0.2,0-0.2,0.1
		c-0.2,0.2-0.2,0.4-0.1,0.6c0.5,0.7,0.9,1.3,1.4,2c0.1,0.1,0.2,0.2,0.3,0.2s0.2,0,0.2-0.1c0.2-0.2,0.2-0.4,0.1-0.6
		c-0.2-0.4-0.6-0.8-0.8-1.2l0,0c0,0,0,0-0.1-0.1l0,0l0,0l0,0l0,0l0,0l0,0l0,0l0,0l0,0l0,0l0,0l0,0l0,0l0,0l0,0l0,0l0,0l0,0l0,0l0,0
		l0,0l0,0l0,0l0,0l0,0l0,0l0,0l0,0l0,0l0,0l0,0l0,0l0,0l0,0l0,0l0,0l0,0l0,0l0,0l0,0l0,0l0,0l0,0l0,0l0,0l0,0l0,0l0,0l0,0l0,0l0,0
		l0,0l0,0l0,0l0,0l0,0l0,0l0,0l0,0l0,0l0,0c0,0,0-0.1-0.1-0.1C152.3,62,152.2,62,152.1,62L152.1,62z M149.1,58.1
		c-0.1,0-0.2,0-0.2,0.1c-0.2,0.2-0.2,0.4-0.1,0.6c0.5,0.7,1.1,1.2,1.6,1.9c0.1,0.1,0.2,0.2,0.3,0.2s0.2,0,0.2-0.1
		c0.2-0.2,0.2-0.4,0.1-0.6c-0.1-0.2-0.2-0.3-0.3-0.5l0,0c0,0,0,0-0.1-0.1l0,0l0,0l0,0l0,0l0,0l0,0l0,0l0,0l0,0l0,0l0,0l0,0l0,0l0,0
		l0,0l0,0l0,0l0,0l0,0l0,0l0,0l0,0l0,0l0,0l0,0l0,0l0,0l0,0l0,0l0,0l0,0l0,0l0,0l0,0l0,0l0,0l0,0l0,0l0,0l0,0l0,0l0,0c0,0,0,0,0-0.1
		l0,0l0,0l0,0l0,0l0,0l0,0l0,0l0,0l0,0l0,0l0,0c0,0,0,0-0.1-0.1l0,0l0,0l0,0l0,0l0,0l0,0l0,0l0,0l0,0l0,0l0,0l0,0l0,0l0,0l0,0l0,0
		l0,0l0,0l0,0l0,0l0,0l0,0l0,0l0,0l0,0l0,0l0,0l0,0l0,0l0,0l0,0l0,0l0,0l0,0l0,0l0,0C149.3,58.1,149.2,58.1,149.1,58.1L149.1,58.1z
		 M145.8,54.5c-0.1,0-0.2,0-0.2,0.1c-0.2,0.2-0.2,0.4,0,0.6c0.6,0.6,1.1,1.1,1.6,1.8c0.1,0.1,0.2,0.2,0.3,0.2s0.2,0,0.2-0.1
		c0.2-0.2,0.2-0.4,0-0.6l0,0l0,0l0,0l0,0l0,0l0,0l0,0l0,0l0,0l0,0l0,0l0,0l0,0l0,0l0,0l0,0l0,0l0,0c0,0,0,0-0.1-0.1l0,0l0,0l0,0l0,0
		l0,0l0,0l0,0l0,0l0,0l0,0l0,0l0,0l0,0l0,0l0,0l0,0l0,0l0,0l0,0l0,0l0,0l0,0l0,0l0,0l0,0l0,0l0,0l0,0l0,0l0,0l0,0l0,0l0,0l0,0l0,0
		l0,0l0,0l0,0l0,0l0,0l0,0l0,0c0,0,0,0-0.1-0.1l0,0l0,0l0,0l0,0l0,0l0,0l0,0c-0.2-0.2-0.5-0.5-0.7-0.7
		C146,54.5,145.9,54.5,145.8,54.5L145.8,54.5z M142.3,51.1c-0.1,0-0.2,0.1-0.3,0.2c-0.2,0.2-0.2,0.4,0,0.6c0.6,0.6,1.2,1.1,1.8,1.6
		c0.1,0.1,0.2,0.1,0.2,0.1s0.2-0.1,0.3-0.2c0.2-0.2,0.2-0.4,0-0.6c0,0,0,0-0.1-0.1l0,0c0,0,0,0-0.1-0.1l0,0l0,0l0,0l0,0l0,0l0,0l0,0
		l0,0l0,0l0,0l0,0l0,0l0,0l0,0l0,0l0,0l0,0l0,0c0,0,0,0-0.1-0.1l0,0c0,0,0,0-0.1-0.1l0,0l0,0l0,0c0,0,0,0-0.1-0.1l0,0
		c-0.2-0.2-0.3-0.3-0.6-0.5l0,0c0,0,0,0-0.1-0.1l0,0c0,0,0,0-0.1-0.1l0,0l0,0l0,0l0,0l0,0l0,0l0,0l0,0l0,0l0,0l0,0l0,0l0,0l0,0l0,0
		l0,0l0,0l0,0l0,0l0,0l0,0l0,0l0,0l0,0l0,0l0,0l0,0l0,0l0,0l0,0l0,0l0,0l0,0l0,0l0,0l0,0l0,0l0,0c0,0,0,0-0.1-0.1l0,0c0,0,0,0-0.1,0
		C142.5,51.2,142.4,51.1,142.3,51.1L142.3,51.1z M138.5,48.1c-0.2,0-0.2,0.1-0.3,0.2c-0.2,0.2-0.1,0.4,0.1,0.6
		c0.7,0.5,1.3,1,1.9,1.5c0.1,0.1,0.2,0.1,0.2,0.1s0.2-0.1,0.3-0.2c0.2-0.2,0.1-0.4-0.1-0.6c-0.2-0.1-0.2-0.2-0.4-0.3l0,0l0,0l0,0
		l0,0l0,0l0,0l0,0l0,0l0,0l0,0l0,0l0,0l0,0l0,0l0,0l0,0l0,0l0,0l0,0l0,0l0,0l0,0l0,0l0,0l0,0l0,0l0,0l0,0l0,0l0,0c0,0,0,0-0.1,0l0,0
		l0,0l0,0c0,0,0,0-0.1-0.1l0,0c-0.3-0.2-0.7-0.6-1.1-0.8C138.7,48.1,138.6,48.1,138.5,48.1L138.5,48.1z M134.5,45.2
		c-0.2,0-0.2,0.1-0.3,0.2c-0.1,0.2-0.1,0.4,0.1,0.6c0.7,0.4,1.4,0.9,2,1.4c0.1,0.1,0.2,0.1,0.2,0.1c0.2,0,0.2-0.1,0.3-0.2
		c0.2-0.2,0.1-0.4-0.1-0.6c-0.1-0.1-0.2-0.2-0.2-0.2l0,0l0,0l0,0l0,0l0,0l0,0l0,0l0,0l0,0l0,0l0,0l0,0l0,0l0,0
		c-0.6-0.4-1.1-0.7-1.6-1.1C134.7,45.3,134.6,45.2,134.5,45.2L134.5,45.2z M130.4,42.8c-0.2,0-0.2,0.1-0.3,0.2
		c-0.1,0.2,0,0.4,0.2,0.6c0.7,0.4,1.4,0.8,2.1,1.2c0.1,0,0.2,0.1,0.2,0.1c0.2,0,0.2-0.1,0.3-0.2c0.1-0.2,0.1-0.4-0.2-0.6l0,0l0,0
		c0,0,0,0-0.1,0l0,0l0,0l0,0l0,0l0,0l0,0l0,0l0,0l0,0l0,0l0,0l0,0l0,0l0,0l0,0l0,0l0,0l0,0l0,0l0,0c0,0,0,0-0.1,0l0,0l0,0l0,0
		c-0.5-0.3-1.1-0.6-1.6-0.9l0,0c0,0,0,0-0.1,0l0,0l0,0l0,0l0,0c-0.1,0-0.2-0.1-0.2-0.1C130.5,42.8,130.5,42.8,130.4,42.8L130.4,42.8
		z M126,40.6c-0.2,0-0.3,0.1-0.4,0.2c-0.1,0.2,0,0.4,0.2,0.6c0.7,0.3,1.5,0.7,2.2,1.1c0.1,0,0.1,0.1,0.2,0.1c0.2,0,0.3-0.1,0.3-0.2
		c0.1-0.2,0-0.4-0.2-0.6c-0.2-0.1-0.3-0.2-0.4-0.2l0,0c0,0,0,0-0.1,0l0,0l0,0l0,0l0,0l0,0l0,0l0,0l0,0l0,0l0,0l0,0l0,0h-0.1l0,0
		c-0.2-0.1-0.4-0.2-0.7-0.3l0,0l0,0l0,0c0,0,0,0-0.1,0l0,0l0,0l0,0l0,0l0,0l0,0l0,0l0,0l0,0l0,0l0,0l0,0l0,0l0,0l0,0l0,0l0,0l0,0
		h-0.1l0,0c-0.2-0.1-0.4-0.2-0.6-0.2C126.1,40.6,126,40.6,126,40.6L126,40.6z M121.5,38.8c-0.2,0-0.3,0.1-0.4,0.2
		c-0.1,0.2,0,0.4,0.2,0.5c0.7,0.2,1.6,0.6,2.3,0.9c0.1,0,0.1,0,0.2,0c0.2,0,0.3-0.1,0.4-0.2c0.1-0.2,0-0.4-0.2-0.6
		c-0.2-0.1-0.6-0.2-0.8-0.3l0,0H123l0,0l0,0l0,0l0,0l0,0l0,0l0,0l0,0l0,0l0,0l0,0l0,0l0,0l0,0l0,0l0,0l0,0l0,0l0,0l0,0l0,0l0,0l0,0
		l0,0l0,0l0,0c0,0,0,0-0.1,0l0,0l0,0l0,0c0,0,0,0-0.1,0l0,0c-0.3-0.2-0.7-0.2-1-0.4C121.6,38.8,121.6,38.8,121.5,38.8L121.5,38.8z
		 M116.8,37.4c-0.2,0-0.3,0.1-0.4,0.3s0.1,0.4,0.3,0.5c0.7,0.2,1.6,0.4,2.3,0.7c0.1,0,0.1,0,0.2,0c0.2,0,0.3-0.1,0.4-0.2
		c0.1-0.2-0.1-0.4-0.2-0.5c-0.8-0.2-1.6-0.5-2.4-0.7C116.9,37.4,116.9,37.4,116.8,37.4L116.8,37.4z M112.1,36.2
		c-0.2,0-0.3,0.2-0.4,0.3c-0.1,0.2,0.1,0.4,0.3,0.5c0.8,0.2,1.6,0.3,2.4,0.5h0.1c0.2,0,0.3-0.2,0.4-0.3c0.1-0.2-0.1-0.4-0.3-0.5l0,0
		l0,0l0,0l0,0C113.7,36.6,113,36.4,112.1,36.2C112.2,36.2,112.1,36.2,112.1,36.2L112.1,36.2z M107.3,35.5c-0.2,0-0.4,0.2-0.4,0.3
		c0,0.2,0.2,0.4,0.3,0.5c0.8,0.1,1.6,0.2,2.4,0.3h0.1c0.2,0,0.4-0.2,0.4-0.3c0-0.2-0.1-0.4-0.3-0.5c-0.2,0-0.4-0.1-0.6-0.1l0,0l0,0
		l0,0l0,0l0,0l0,0l0,0l0,0l0,0l0,0l0,0l0,0l0,0l0,0c0,0,0,0-0.1,0l0,0l0,0l0,0C108.4,35.7,107.8,35.6,107.3,35.5L107.3,35.5
		L107.3,35.5z M102.4,35.2c-0.2,0-0.4,0.2-0.4,0.4s0.2,0.4,0.4,0.4c0.8,0,1.6,0.1,2.4,0.2l0,0c0.2,0,0.4-0.2,0.4-0.4
		s-0.2-0.4-0.4-0.4C104.1,35.3,103.3,35.2,102.4,35.2L102.4,35.2L102.4,35.2z M100,36.1L100,36.1L100,36.1L100,36.1z M100,36.1
		L100,36.1L100,36.1L100,36.1z M100,36.1L100,36.1L100,36.1L100,36.1z M100,36.1L100,36.1L100,36.1L100,36.1z M100,36.1L100,36.1
		L100,36.1L100,36.1z M100,36.1L100,36.1L100,36.1L100,36.1z M100,36.1L100,36.1L100,36.1L100,36.1z M100,36.1L100,36.1L100,36.1
		L100,36.1z M100,36.1L100,36.1L100,36.1L100,36.1z M100,36.1L100,36.1L100,36.1L100,36.1z M100,36.1L100,36.1L100,36.1L100,36.1z
		 M100,36.1L100,36.1L100,36.1L100,36.1z"/>
</g>
<image style="overflow:visible;" width="558" height="550" xlink:href="../../../E3349B9.png"  transform="matrix(0.24 0 0 0.24 33 34)">
</image>
</svg>
