<?xml version="1.0" encoding="utf-8"?>
<!-- Generator: Adobe Illustrator 21.0.0, SVG Export Plug-In . SVG Version: 6.00 Build 0)  -->
<svg version="1.1" id="Layer_1" xmlns="http://www.w3.org/2000/svg" xmlns:xlink="http://www.w3.org/1999/xlink" x="0px" y="0px"
	 viewBox="0 0 200 200" style="enable-background:new 0 0 200 200;" xml:space="preserve">
<style type="text/css">
	.st0{fill:#808080;}
</style>
<g>
	<g>
		
			<animateTransform  accumulate="none" additive="replace" attributeName="transform" attributeType="XML" calcMode="linear" dur="10s" fill="remove" from="0 100 100" repeatCount="indefinite" restart="always" to="360 100 100" type="rotate">
			</animateTransform>
		<path class="st0" d="M100.2,50L100.2,50L100.2,50L100.2,50L100.2,50L100.2,50L100.2,50L100.2,50L100.2,50L100.2,50L100.2,50
			L100.2,50L100.2,50L100.2,50L100.2,50L100.2,50L100.2,50L100.2,50L100.2,50L100.2,50L100.2,50L100.2,50L100.2,50L100.2,50
			L100.2,50L100.2,50L100.2,50L100.2,50L100.2,50L100.2,50L100.2,50L100.2,50H100l0,0l0,0l0,0l0,0l0,0h-0.6l0,0l0,0l0,0h-0.1l0,0
			l0,0l0,0l0,0l0,0l0,0l0,0l0,0l0,0l0,0h-0.2c-0.2,0.2-0.3,0.3-0.3,0.5c-0.5,0.2-0.4,0.3-0.2,0.5l0,0h1.5c0.2-0.2,0.3-0.3,0.3-0.5
			s0-0.3-0.2-0.3l0,0V50z M97.2,50L97.2,50c-0.1,0-0.2,0-0.3,0l0,0l0,0l0,0l0,0l0,0l0,0l0,0l0,0l0,0l0,0l0,0l0,0l0,0l0,0l0,0l0,0
			l0,0l0,0l0,0l0,0l0,0l0,0l0,0l0,0l0,0l0,0l0,0l0,0l0,0l0,0l0,0l0,0l0,0l0,0l0,0l0,0l0,0l0,0l0,0l0,0l0,0l0,0l0,0l0,0l0,0l0,0l0,0
			l0,0l0,0l0,0l0,0l0,0l0,0l0,0l0,0l0,0l0,0l0,0l0,0l0,0l0,0l0,0l0,0l0,0l0,0l0,0l0,0l0,0l0,0l0,0l0,0l0,0l0,0l0,0l0,0l0,0l0,0l0,0
			l0,0l0,0l0,0l0,0l0,0l0,0l0,0l0,0h-0.1l0,0c0,0-0.1,0-0.2,0c-0.2,0-0.3,0.2-0.3,0.3c0,0.2,0.1,0.3,0.3,0.3l0,0
			c0.5,0,1-0.1,1.5-0.1c0.2,0,0.3-0.2,0.3-0.3C97.5,50.1,97.4,50,97.2,50L97.2,50z M94.2,50.8L94.2,50.8c-0.3,0.1-0.7,0.1-1,0.2l0,0
			l0,0l0,0l0,0l0,0l0,0l0,0l0,0l0,0l0,0l0,0l0,0l0,0l0,0l0,0l0,0l0,0l0,0l0,0l0,0l0,0l0,0l0,0l0,0h-0.1l0,0l0,0l0,0l0,0l0,0
			c0,0,0,0-0.1,0l0,0l0,0l0,0l0,0c-0.2,0-0.3,0.2-0.2,0.3c0,0.1,0.2,0.2,0.3,0.2l0,0c0.5,0,1-0.2,1.5-0.2c0.2,0,0.3-0.1,0.2-0.3
			C94.5,51,94.4,50.8,94.2,50.8L94.2,50.8z M91.3,51C91.3,51,91.2,51,91.3,51c-0.2,0-0.3,0-0.4,0l0,0l0,0l0,0l0,0l0,0l0,0l0,0l0,0
			l0,0l0,0l0,0l0,0l0,0l0,0l0,0l0,0h-0.1l0,0l0,0l0,0c-0.3,0.1-0.6,0.2-0.8,0.2s-0.2,0.2-0.2,0.3s0.2,0.2,0.3,0.2l0,0
			c0.5-0.1,1-0.2,1.5-0.3c0.2,0,0.3-0.2,0.2-0.3C91.5,51.1,91.4,51,91.3,51L91.3,51z M88.4,51L88.4,51h-0.2l0,0l0,0l0,0l0,0l0,0l0,0
			l0,0l0,0l0,0l0,0l0,0l0,0l0,0l0,0l0,0l0,0l0,0l0,0l0,0l0,0l0,0l0,0h-0.1l0,0l0,0l0,0l0,0l0,0l0,0l0,0l0,0l0,0l0,0l0,0l0,0l0,0l0,0
			l0,0l0,0l0,0l0,0l0,0l0,0l0,0l0,0l0,0l0,0l0,0l0,0l0,0l0,0l0,0l0,0l0,0l0,0l0,0l0,0l0,0l0,0l0,0l0,0l0,0l0,0l0,0l0,0H88l0,0l0,0
			l0,0c-0.2,0.6-0.3,0.7-0.5,0.7s-0.2,0.2-0.2,0.3c0.1,0.1,0.2,0.2,0.3,0h0.1c0.4,0.1,0.9-0.1,1.4-0.1c0.2,0,0.2-0.2,0.2-0.3
			c-0.7,0.1-0.8,0-0.9,0V51z M85.5,52L85.5,52h-0.3l0,0l0,0l0,0h-0.1l0,0l0,0l0,0l0,0l0,0l0,0l0,0l0,0l0,0l0,0l0,0l0,0
			c-0.1,0.4-0.3,0-0.3,0l0,0l0,0l0,0l0,0l0,0l0,0l0,0l0,0l0,0l0,0l0,0l0,0l0,0l0,0l0,0l0,0l0,0l0,0h-0.1l0,0
			c-0.2,0.6-0.3,0.6-0.4,0.7s-0.2,0.2-0.2,0.3c0.1,0.1,0.3,0,0.3,0h0.1c0,0,1-0.1,1.4-0.3c-0.2,0.2-0.2,0-0.2-0.1
			c0-0.1-0.1-0.2-0.2-0.2V52z M82.6,53.4L82.6,53.4c-0.4,0.1-0.6,0.2-0.9-0.4l0,0l0,0l0,0l0,0l0,0l0,0l0,0l0,0l0,0h-0.1l0,0l0,0l0,0
			l0,0l0,0l0,0l0,0l0,0l0,0l0,0l0,0l0,0l0,0l0,0l0,0l0,0l0,0l0,0l0,0l0,0l0,0l0,0l0,0l0,0l0,0l0,0l0,0l0,0l0,0l0,0h-0.1l0,0l0,0
			c-0.2,0.7-0.2,0.9-0.2,1.1c0.1,0.1,0.2,0.1,0.3-0.1h0.1c0.4,0,0.9-0.1,1.4-0.3c0.2,0,0.2-0.2,0.2-0.3
			C82.9,53.5,82.7,53.4,82.6,53.4L82.6,53.4z M79.9,54v0.5l0,0l0,0l0,0c-0.2,0-0.4,0.5-0.4,0.5l0,0h-0.1l0,0l0,0l0,0l0,0l0,0l0,0
			l0,0l0,0l0,0l0,0l0,0l0,0l0,0l0,0l0,0l0,0l0,0l0,0l0,0l0,0l0,0l0,0h-0.1l0,0l0,0l0,0l0,0l0,0c-0.3-0.2-0.4-0.1-0.7,0
			c-0.1,0.1-0.2,0.2-0.1,0.4c0.1,0.1,0.3,0.6,0.3,0.6h0.1c0,0,0.9-1,1.3-1.1c0.2-0.1,0.2-0.9,0.2-0.9H79.9L79.9,54z M77.2,56
			L77.2,56L77,55.9l0,0l0,0l0,0l0,0l0,0l0,0l0,0l0,0l0,0l0,0c-0.4,0.2-0.8,0.4-1.1,0.6c-0.1,0-0.2,0.2-0.1,0.4C75.9,57,76,57,76,57
			h0.1c0.5-0.3,0.8-0.5,1.3-0.7c0.1,0,0.1-0.2,0.1-0.3c-0.1-0.1-0.2-0.2-0.3-0.2V56z M74.6,57h-0.2c-0.1,0.3-0.2,0.3-0.3,0.4l0,0
			l0,0l0,0l0,0l0,0l0,0l0,0l0,0l0,0l0,0l0,0l0,0l0,0l0,0l0,0l0,0l0,0l0,0l0,0l0,0c-0.3,0.2-0.6,0.3-0.8,0.5
			c-0.1,0.1-0.2,0.3-0.1,0.4c0.1,0,0.2,0.1,0.2-0.3h0.1c0.4,0.1,0.9-0.1,1.3-0.4c0.1-0.1,0.2-0.2,0.1-0.4c-0.1,0.1-0.2,0-0.3,0V57z
			 M72.1,59h-0.2C71.8,58.9,71.8,58.9,72.1,59L72.1,59L72.1,59L72.1,59L72,59.1l0,0l0,0l0,0l0,0l0,0l0,0l0,0l0,0l0,0l0,0l0,0l0,0
			l0,0l0,0l0,0l0,0l0,0l0,0l0,0l0,0c-0.6,0.1-0.8,0.3-1.1,0.5l0,0l0,0l0,0l0,0l0,0l0,0l0,0l0,0l0,0l0,0l0,0
			c-0.1,0.1-0.2,0.3-0.1,0.4c0.1,0,0.2,0.1,0.2,0h0.1c0.4-0.2,0.8-0.5,1.2-0.8c0.1-0.1,0.2-0.3,0-0.2L72.1,59L72.1,59z M69.7,60
			h-0.2c0,0-0.1,0.7-0.5,0.8l0,0l0,0l0,0l0,0l0,0l0,0l0,0l0,0l0,0l0,0l0,0l0,0l0,0l0,0V61h0.3l0,0l0,0H70v-0.1l0,0l0,0l0,0l0,0V61
			l0,0l0,0l0,0l0,0l0,0l0,0l0,0l0,0l0,0l0,0l0,0l0,0l0,0l0,0l0,0l0,0l0,0l0,0l0,0l0,0l0,0l0,0l0,0l0,0c-1,0.1-1.1,0.2-1.2,0.3
			s-0.1,0.3,0,0.4c0,0,0.1,0.1,0.2,0.3h0.2c0.4-0.5,0.8-0.8,1.2-1.2c0.1-0.1,0.1-0.3,0-0.3c-0.5,0.2-0.7,0.2-0.7,0.2V60z M67.4,63
			L67.4,63c-0.2-0.3-0.4-0.2-0.5-0.1l0,0l0,0l0,0l0,0l0,0l0,0l0,0l0,0l0,0l0,0l0,0l0,0l0,0l0,0l0,0l0,0c-0.2,0.2-0.4,0.4-0.6,0.6
			c-0.1,0.1-0.1,0.3,0,0.3c0,0,0.1,0.1,0.2,0.2h0.2c0.3-0.4,0.8-0.7,1.1-1.1c0.1-0.1,0.1-0.3,0-0.3c-0.3-0.1-0.3-0.1-0.4-0.1V63z
			 M65.2,65h0.1c-0.1,0.1-0.2,0.2-0.3,0.3v-0.4l0,0l0,0l0,0l0,0l0,0l0,0l0,0l0,0l0,0l0,0l0,0l0,0l0,0l0,0l0,0l0,0l0,0l0,0l0,0l0,0
			l0,0l0,0l0,0l0,0l0,0l0,0l0,0V65l0,0l0,0l0,0l-0.4,0l0,0H65v0.1l0,0l0,0V66h-0.5l0,0l0,0h-0.1l0,0l0,0l0,0H65v-0.8l0,0l0,0V64
			h-0.5l0,0l0,0H64v1.3l0,0l0,0l0,0l0,0v0.1l0,0c0.3,0.1,0.3,0.3,0.4,0.3c0,0.1,0.1,0.1,0.1,0.1c0.1,0,0.2-0.1,0.2-0.1
			c0.3-0.4,0.7-0.7,1-1.1c0.1-0.1,0.1-0.3,0-0.3c-0.3,0.3-0.4,0.3-0.5,0.3V65z M62.7,67.3c-0.1,0-0.2,0-0.2,0.1
			c-0.2,0.2-0.4,0.3-0.5,0.5l0,0l0,0l0,0l0,0l0,0l0,0l0,0l0,0l0,0l0,0l0,0l0,0l0,0l0,0l0,0l0,0l0,0l0,0l0,0l0,0l0,0l0,0
			c0,0,0,0,0,0.1l0,0l0,0l0,0h-0.1l0,0c-0.1,0.1-0.1,0.2-0.3,0.3c-0.1,0.1-0.1,0.3,0.1,0.3c0,0.1,0,0.1,0.1,0.1s0.2-0.1,0.2-0.1
			c0.3-0.4,0.6-0.8,1-1.1c0.1-0.1,0.1-0.3,0-0.3C62.8,67.3,62.7,67.3,62.7,67.3L62.7,67.3z M61.2,69c0,0-0.1,0-0.2,0.1
			c-0.3,0.4-0.6,0.8-0.9,1.2c-0.1,0.1,0,0.3,0,0.3c0,0.1,0,0.1,0.1,0.1s0.2-0.1,0.2-0.1c0.3-0.4,0.6-0.8,0.9-1.2
			C61.5,69.3,61.5,69.1,61.2,69C61.3,69,61.3,69,61.2,69L61.2,69z M59.5,71.4c-0.1,0-0.2,0.1-0.2,0.1c-0.1,0.1-0.1,0.2-0.2,0.3l0,0
			l0,0l0,0l0,0l0,0l0,0l0,0l0,0l0,0l0,0l0,0l0,0l0,0l0,0c-0.1,0.3-0.3,0.5-0.4,0.7l0,0l0,0l0,0l0,0l0,0l0,0l0,0l0,0l0,0l0,0l0,0
			c-0.1,0.1-0.1,0.3,0,0.3c0,0.1,0.1,0.1,0.1,0.1c0.1,0,0.2-0.1,0.2-0.1c0.3-0.4,0.5-0.8,0.9-1.3c0.1-0.1,0-0.3-0.1-0.3
			C59.5,71.5,59.5,71.4,59.5,71.4L59.5,71.4z M57.8,74c-0.1,0-0.1,0.1-0.2,0.1c-0.3,0.4-0.5,0.8-0.8,1.3c-0.1,0.1-0.1,0.3,0.1,0.3
			l0.1,0.1c0.1,0,0.2-0.1,0.2-0.2c0.3-0.4,0.5-0.8,0.8-1.3C58,74.2,58,74,57.8,74C57.9,74,57.9,74,57.8,74L57.8,74z M55.8,76.2
			c-0.1,0-0.1,0-0.2,0.1c-0.2,0.4-0.4,0.7-0.6,1.1l0,0l0,0l0,0l0,0l0,0l0,0l0,0l0,0l0,0l0,0v0.1l0,0c0,0,0,0.1,0,0.2s0,0.3,0.1,0.3
			s0.1,0,0.1,0c0.1,0,0.2,0,0.2-0.1c0.2-0.5,0.4-0.9,0.7-1.3c0.1-0.1,0-0.3-0.1-0.3C55.9,76.2,55.9,76.2,55.8,76.2L55.8,76.2z
			 M54.6,79.1c-0.1,0-0.2,0.1-0.3,0.2c-0.1,0.3-0.2,0.5-0.3,0.7l0,0l0,0l0,0l0,0l0,0l0,0l0,0l0,0l0,0l0,0l0,0l0,0l0,0l0,0l0,0l0,0
			l0,0l0,0l0,0l0,0l0,0l0,0c0,0,0,0,0,0.1l0,0l0,0l0,0l0,0l0,0l0,0l0,0l0,0l0,0c0,0,0,0.1-0.1,0.1l0,0c-0.1,0.3-0.1,0.4-0.1,0.5
			c0,0.2,0,0.3,0.1,0.3s0.1,0,0.1,0c0.1,0,0.2,0,0.3-0.2c0.2-0.4,0.4-0.9,0.6-1.3c0-0.2,0-0.3-0.1-0.3
			C54.6,79.1,54.6,79.1,54.6,79.1L54.6,79.1z M53.8,82.1c-0.1,0-0.2,0.1-0.3,0.2c-0.2,0.5-0.3,1-0.5,1.4c0,0.2,0,0.3,0.2,0.3
			c0,0,0,0,0.1,0s0.2-0.1,0.3-0.2c0.2-0.4,0.4-0.9,0.5-1.3c0.1-0.2,0-0.3-0.1-0.3C53.9,82.1,53.9,82.1,53.8,82.1L53.8,82.1z
			 M52.8,85c-0.1,0-0.2,0.1-0.3,0.2l0,0l0,0l0,0l0,0l0,0l0,0l0,0l0,0l0,0l0,0c0,0.2-0.1,0.4-0.2,0.6l0,0l0,0l0,0l0,0l0,0l0,0l0,0
			l0,0l0,0l0,0l0,0l0,0l0,0l0,0l0,0l0,0l0,0l0,0l0,0l0,0l0,0l0,0l0,0l0,0l0,0l0,0c-0.1,0.6-0.1,0.7-0.1,0.9s0,0.3,0.1,0.3h0.1
			c0.1,0,0.2,0,0.3-0.2c0.1-0.4,0.3-0.9,0.4-1.4c0.1-0.2,0-0.3-0.1-0.3S52.9,85,52.8,85L52.8,85z M52.4,87.8c-0.1,0-0.2,0-0.3,0.2
			c0,0.1,0,0.2-0.1,0.3l0,0l0,0l0,0l0,0l0,0v0.1l0,0l0,0l0,0l0,0l0,0l0,0l0,0l0,0l0,0l0,0l0,0l0,0l0,0l0,0l0,0l0,0l0,0l0,0l0,0l0,0
			l0,0l0,0l0,0l0,0l0,0l0,0v0.1l0,0l0,0l0,0l0,0l0,0l0,0l0,0l0,0l0,0l0,0l0,0l0,0l0,0l0,0l0,0l0,0l0,0l0,0l0,0l0,0l0,0l0,0l0,0l0,0
			l0,0l0,0l0,0l0,0l0,0l0,0l0,0l0,0l0,0l0,0l0,0l0,0l0,0l0,0l0,0l0,0l0,0l0,0v0.2c-0.1,0.1,0,0.3,0.2,0.3h0.1c0.1,0,0.2-0.1,0.3-0.2
			c0.1-0.5,0.2-0.9,0.3-1.4c0-0.2,0-0.3-0.2-0.3C52.4,87.8,52.4,87.8,52.4,87.8L52.4,87.8z M51.5,90.3c-0.1,0-0.2,0.1-0.3,0.2
			c-0.1,0.2-0.1,0.3-0.1,0.4l0,0l0,0l0,0l0,0l0,0l0,0l0,0l0,0l0,0l0,0l0,0l0,0l0,0l0,0c0,0.2,0,0.4-0.1,0.6l0,0l0,0l0,0l0,0l0,0l0,0
			l0,0l0,0l0,0l0,0l0,0l0,0l0,0l0,0c0,0,0,0.1,0,0.2c0,0.2,0,0.3,0.2,0.3h0.1c0.1,0,0.3-0.1,0.3-0.2c0.1-0.5,0.1-1,0.3-1.5
			C51.7,90.4,51.6,90.3,51.5,90.3L51.5,90.3L51.5,90.3z M50.9,93.5c-0.1,0-0.3,0.1-0.3,0.2c-0.1,0.4-0.1,0.8-0.2,1.2l0,0l0,0l0,0
			l0,0l0,0l0,0l0,0l0,0l0,0l0,0l0,0l0,0l0,0l0,0l0,0l0,0l0,0l0,0l0,0l0,0c0,0.2,0.1,0.3,0.2,0.3l0,0c0.2,0,0.3-0.1,0.3-0.3
			c0-0.5,0.1-1,0.2-1.5C51.2,93.6,51,93.5,50.9,93.5L50.9,93.5L50.9,93.5z M50.3,96c-0.1,0-0.3,0.1-0.3,0.3c0,0.2,0,0.3,0,0.5l0,0
			l0,0l0,0l0,0l0,0l0,0l0,0l0,0l0,0l0,0l0,0l0,0l0,0l0,0l0,0l0,0c0,0.3,0,0.6,0,0.9c0,0.2,0.1,0.3,0.3,0.3l0,0
			c0.2,0,0.3-0.1,0.3-0.3c0-0.5,0-1,0.1-1.5C50.7,96.1,50.5,96.1,50.3,96C50.4,96,50.4,96,50.3,96L50.3,96z M50.5,99.4
			c-0.2,0-0.3,0.1-0.5,0.3v0.4l0,0l0,0l0,0l0,0l0,0l0,0l0,0l0,0l0,0l0,0l0,0l0,0l0,0l0,0l0,0l0,0l0,0l0,0l0,0l0,0l0,0l0,0l0,0l0,0
			l0,0l0,0l0,0l0,0l0,0l0,0l0,0l0,0l0,0l0,0l0,0l0,0l0,0l0,0l0,0l0,0v0.7l0,0l0,0l0,0l0,0l0,0c0.2,0.2,0.3,0.3,0.5,0.3l0,0
			c0.2,0,0.3-0.1,0.5-0.3v-0.9v-0.6C50.7,99.5,50.6,99.4,50.5,99.4L50.5,99.4L50.5,99.4z M50.3,102.4L50.3,102.4
			c-0.1,0-0.3,0.1-0.3,0.3v0.1l0,0l0,0l0,0l0,0l0,0l0,0l0,0v0.1l0,0l0,0l0,0l0,0l0,0l0,0l0,0l0,0l0,0l0,0l0,0l0,0l0,0l0,0l0,0l0,0
			l0,0l0,0l0,0l0,0l0,0l0,0l0,0l0,0l0,0l0,0l0,0v0.1l0,0l0,0l0,0l0,0l0,0l0,0l0,0l0,0l0,0v0.1l0,0l0,0l0,0l0,0l0,0l0,0l0,0
			c0,0,0,0,0,0.1l0,0c0,0.2,0,0.4,0,0.6c0,0.1,0.1,0.3,0.3,0.3l0,0c0.2,0,0.3-0.2,0.3-0.3c0-0.5,0-1-0.1-1.5
			C50.5,102.5,50.5,102.4,50.3,102.4L50.3,102.4z M50.3,105.4L50.3,105.4c-0.1,0-0.3,0.2-0.3,0.3c0,0.2,0,0.4,0,0.6l0,0l0,0l0,0l0,0
			l0,0l0,0l0,0v0.1l0,0l0,0l0,0l0,0l0,0l0,0l0,0l0,0l0,0l0,0l0,0l0,0l0,0l0,0l0,0l0,0l0,0l0,0c0,0,0,0,0,0.1l0,0l0,0l0,0
			c0,0.2,0.1,0.4,0.1,0.5s0.1,0.2,0.3,0.2l0,0c0.1,0,0.3-0.2,0.2-0.3C50.5,106.4,50.4,105.9,50.3,105.4
			C50.6,105.5,50.5,105.4,50.3,105.4L50.3,105.4z M51.3,108C51.3,108,51.2,108,51.3,108c-0.2,0-0.3,0.2-0.3,0.3c0,0.1,0,0.1,0,0.2
			l0,0l0,0l0,0l0,0l0,0l0,0l0,0l0,0l0,0l0,0l0,0l0,0l0,0l0,0l0,0l0,0c0,0.3,0.1,0.8,0.2,1.1c0,0.1,0.1,0.2,0.3,0.2l0,0
			c0.1,0,0.2-0.1,0.2-0.3c-0.1-0.5-0.2-1-0.3-1.5C51.5,108.1,51.3,108,51.3,108L51.3,108z M52.1,111.1L52.1,111.1
			c-0.2,0-0.3,0.1-0.3,0.3c0,0.3,0.1,0.5,0.2,0.8l0,0l0,0l0,0v0.1l0,0l0,0l0,0l0,0l0,0l0,0v0.1l0,0l0,0l0,0c0,0.1,0.1,0.3,0.1,0.4
			c0.1,0.1,0.2,0.2,0.3,0.2h0.1c0.1,0,0.2-0.1,0.2-0.3c-0.1-0.5-0.3-1-0.3-1.5C52.4,111.1,52.3,111.1,52.1,111.1L52.1,111.1z
			 M52.9,114.2L52.9,114.2c-0.2,0.1-0.3,0.2-0.2,0.3c0.1,0.3,0.2,0.7,0.3,1l0,0l0,0l0,0l0,0l0,0l0,0l0,0l0,0l0,0l0,0l0,0l0,0l0,0
			l0,0v0.1l0,0c0,0.1,0,0.2,0,0.2c0,0.1,0.1,0.2,0.3,0.2c0,0,0,0,0.1,0c0.2-0.1,0.2-0.2,0.2-0.3c-0.2-0.4-0.3-0.9-0.5-1.4
			C53.1,114.3,53,114.2,52.9,114.2L52.9,114.2z M53.5,117L53.5,117c-0.3,0.1-0.3,0.2-0.3,0.3c0,0.2,0.1,0.3-0.2,0.4l0,0l0,0l0,0l0,0
			l0,0v0.1l0,0l0,0l0,0l0,0l0,0l0,0l0,0l0,0l0,0l0,0l0,0l0,0l0,0l0,0c0.5,0.3,0.6,0.5,0.7,0.8c0,0.1,0.1,0.2,0.3,0.4h0.1
			c0.2-0.3,0.2-0.4,0.2-0.5c-0.2-0.4-0.4-0.9-0.5-1.4C53.7,117,53.5,117,53.5,117L53.5,117z M54.5,120v-0.2
			c-0.3,0.1-0.3,0.2-0.3,0.3c0.1,0.1,0.1,0.2-0.2,0.2l0,0v0.1l0,0l0,0l0,0l0,0l0,0v0.1l0,0l0,0l0,0l0,0l0,0l0,0l0,0l0,0l0,0l0,0l0,0
			l0,0l0,0l0,0l0,0l0,0l0,0l0,0l0,0l0,0l0,0l0,0l0,0l0,0v0.1l0,0l0,0l0,0c0.4,0.3,0.5,0.4,0.6,0.7c0,0.1,0.2,0.2,0.3,0.7H55
			c0.1-0.6,0.2-0.7,0.1-0.8C54.9,120.8,54.7,120.3,54.5,120L54.5,120L54.5,120z M55.8,123C55.7,123,55.7,123,55.8,123
			c-0.2,0.1-0.3,0.3-0.2,0.4c0.1,0.3,0.3,0.6,0.4,0.8l0,0l0,0l0,0v0.1l0,0l0,0l0,0l0,0l0,0l0,0l0,0l0,0l0,0l0,0l0,0l0,0l0,0l0,0
			c0.1,0.1,0.1,0.2,0.2,0.3s0.2,0.2,0.2,0.2s0.1,0,0.1-0.1c0.1-0.1,0.2-0.2,0.1-0.3C56.3,124,56.2,123.6,55.8,123
			C56,123,55.9,123,55.8,123L55.8,123z M57.1,125C57.1,125,57,125,57.1,125c-0.2,0.2-0.3,0.3-0.2,0.4c0,0.1,0.1,0.2,0.1,0.2l0,0v0.1
			l0,0l0,0l0,0l0,0l0,0l0,0l0,0l0,0l0,0l0,0l0,0l0,0l0,0l0,0c0.2,0.3,0.3,0.6,0.5,0.9c0,0.1,0.2,0.1,0.2,0.1s0.1,0,0.1-0.1
			c0.1-0.1,0.2-0.3,0.1-0.3C57.6,125.9,57.4,125.5,57.1,125C57.3,125.1,57.3,125,57.1,125L57.1,125z M58.8,128L58.8,128
			C58.6,127.8,58.5,128,58.8,128c0.1,0.3,0.3,0.6,0.2,0.8l0,0l0,0l0,0v0.2h0.3l0,0l0,0l0,0l0,0l0,0h0.1l0,0c0,0,0.1,0.1,0.1,0.2
			s0.2,0.1,0.2,0.1s0.1,0,0.1-0.1c0.1-0.1,0.2-0.3,0.1-0.3c-0.3-0.4-0.6-0.8-0.9-1.2c0-0.1-0.1-0.1-0.2-0.1V128z M60.5,130
			c0,0-0.1,0-0.1,0.1c-0.1,0.1-0.2,0.3,0,0.4c0.3,0.4,0.6,0.8,0.9,1.2c0.1,0.1,0.1,0.1,0.2,0.1c0,0,0.1,0,0.2-0.1
			c0.1-0.1,0.1-0.3,0-0.3c-0.3-0.4-0.6-0.8-0.9-1.2C60.7,130.1,60.7,130,60.5,130L60.5,130z M62.8,132.3c0,0-0.1,0-0.2,0.1
			c-0.1,0.1-0.1,0.3,0,0.3c0.2,0.2,0.3,0.3,0.4,0.4l0,0l0,0l0,0l0,0l0,0l0,0l0,0l0,0l0,0l0,0l0,0l0,0l0,0l0,0l0,0l0,0l0,0l0,0l0,0
			l0,0c0,0,0,0,0,0.1l0,0l0,0l0,0l0,0l0,0c0,0,0,0,0,0.1l0,0l0,0l0,0l0,0l0,0c0,0,0,0,0,0.1l0,0l0,0l0,0l0,0l0,0l0,0l0,0l0,0l0,0
			l0,0l0,0l0,0l0,0l0,0l0,0l0,0l0,0l0,0l0,0l0,0c0.1,0.1,0.1,0.1,0.2,0.2c0,0,0.1,0.1,0.2,0.1c0,0,0.1,0,0.1-0.1
			c0.1-0.1,0.1-0.3,0-0.4c-0.3-0.3-0.6-0.8-1-1.1C62.9,132.3,62.8,132.3,62.8,132.3L62.8,132.3z M64.5,135h-0.2
			c-0.1-0.3-0.1-0.1,0,0c0.2,0.1,0.3,0.3,0.4,0.4l0,0l0,0l0,0l0.1,0.1l0,0l0,0l0,0l0,0l0,0l0,0l0,0l0,0l0,0l0,0l0,0l0,0l0,0l0,0l0,0
			l0,0l0,0l0,0l0,0l0,0l0,0l0,0l0,0l0,0l0,0l0,0l0,0l0,0l0,0l0,0l0,0l0,0l0,0l0,0l0.1,0.1l0,0c0.1,0.1,0.2,0.1,0.3,0.4h0.2
			c0-0.1,0.1-0.1,0.2-0.2s0.1-0.3,0-0.3c-0.3-0.4-0.7-0.7-1.1-1.1c0.1,0.2,0,0.2,0,0.2V135z M66.6,137c-0.1-0.4-0.2-0.3-0.2-0.3
			c-0.1,0.1-0.1,0.3,0,0.4c0.2,0.1-0.4,0.4-0.4,0.4l0,0v0.5h0.9l0,0l0,0H67v-0.4l0,0l0,0v0.4h0l0,0l0,0h0.1l0,0l0,0l0,0
			c0.1-0.2,0.3,0,0.4,0.1c0.1,0.1,0.1,0.1,0.2,0.1s0.2-0.1,0.2-0.1c0.1-0.1,0.1-0.3-0.1-0.4C67.4,137.4,67,137,66.6,137L66.6,137
			L66.6,137z M68.8,138.6c-0.1,0-0.2,0.1-0.2,0.1c-0.1,0.1,0,0.3,0.1,0.4c0.1,0,0.1,0.1,0.3,0.2l0,0l0,0l0,0l0,0l0,0l0,0l0,0l0,0
			l0,0l0,0l0,0l0,0l0,0l0,0l0,0l0,0l0,0l0,0l0,0l0,0l0,0l0,0l0,0l0,0l0,0l0,0l0,0l0,0l0,0l0,0l0,0l0,0l0,0l0,0l0,0l0,0l0,0l0,0l0,0
			l0,0l0,0l0,0l0,0l0,0l0,0c0,0,0,0,0,0.1l0,0l0,0l0,0l0,0l0,0c0.2,0.1,0.3,0.3,0.5,0.3c0,0.1,0.1,0.1,0.1,0.1
			c0.1,0,0.2-0.1,0.2-0.1c0.1-0.1,0-0.3-0.1-0.3c-0.4-0.3-0.8-0.6-1.1-0.9C68.9,138.6,68.8,138.6,68.8,138.6L68.8,138.6z M71.2,140
			c-0.1,0-0.2,0.1-0.2,0.1c-0.1,0.1,0,0.3,0.1,0.4c0.2,0.1,0.3,0.2,0.4,0.3l0,0l0,0l0,0l0,0l0,0l0,0l0,0l0,0l0,0l0,0l0,0l0,0
			c0.3,0.2,0.4,0.3,0.7,0.5c0.1,0.1,0.1,0.1,0.2,0.1s0.2-0.1,0.2-0.1c0.1-0.1,0.1-0.3,0-0.3C72,140.6,71.6,140.3,71.2,140
			C71.3,140,71.2,140,71.2,140L71.2,140z M73.8,142.4c-0.1,0-0.2,0-0.2,0.1s0,0.3,0.1,0.3l0,0l0,0l0,0l0,0l0,0l0,0l0,0l0,0l0,0l0,0
			l0,0l0,0l0,0l0,0l0,0l0,0l0,0l0,0l0,0l0,0l0,0l0,0l0,0l0,0l0,0l0,0l0,0l0,0c0,0,0.1,0,0.1,0.1l0,0l0,0l0,0l0,0l0,0l0,0l0,0
			c0,0,0.1,0,0.1,0.1l0,0l0,0l0,0l0,0l0,0l0,0l0,0l0,0l0,0l0,0l0,0H74l0,0l0,0l0,0l0,0l0,0l0,0l0,0l0,0l0,0l0,0l0,0l0,0
			c0,0,0,0,0,0.1l0,0c0.2,0.1,0.3,0.2,0.5,0.3l0.1,0.1c0.1,0,0.2-0.1,0.2-0.1c0-0.1,0-0.3-0.1-0.4c-0.4-0.3-0.9-0.5-1.3-0.8
			C73.9,142.4,73.8,142.4,73.8,142.4L73.8,142.4z M76.2,143.6c-0.1,0-0.1,0-0.2,0.1s0,0.3,0.1,0.4c0.1,0,0.3,0.1,0.3,0.2l0,0l0,0
			l0,0l0,0l0,0l0,0l0,0l0,0l0,0l0,0l0,0l0,0c0,0,0.1,0,0.1,0.1l0,0l0,0l0,0c0.2,0,0.3,0.1,0.4,0.2l0,0l0,0l0,0l0,0l0,0l0,0l0,0l0,0
			l0,0l0,0l0,0l0,0c0.1,0.1,0.1,0.1,0.3,0.2c0,0,0,0.1,0.1,0.1s0.2-0.1,0.2-0.1c0.1-0.1,0-0.3-0.1-0.4c-0.4-0.2-0.9-0.4-1.3-0.7
			C76.4,143.6,76.3,143.6,76.2,143.6L76.2,143.6z M78.9,145c-0.1,0-0.2,0.1-0.3,0.1c0,0.1,0,0.3,0.1,0.4c0.1,0.1,0.2,0.1,0.3,0.1
			l0,0l0,0l0,0l0,0l0,0l0,0l0,0l0,0l0,0l0,0l0,0l0,0c0.3,0.2,0.6,0.3,1,0.4c0,0,0,0,0.1,0s0.2-0.1,0.3-0.2c0-0.1,0-0.3-0.2-0.3
			C79.8,145.3,79.3,145.1,78.9,145C79,145,79,145,78.9,145L78.9,145z M81.6,146.1c-0.1,0-0.2,0.1-0.3,0.2c0,0.1,0.2-0.3,0.2-0.3h0.1
			l0,0l0,0l0,0l0,0l0,0l0,0l0,0l0,0l0,0l0,0l0,0l0,0l0,0l0,0l0,0l0,0l0,0l0,0l0,0l0,0c0,0.6,0.1,1,0.1,1l0,0l0,0l0,0l0,0l0,0l0,0
			l0,0l0,0l0,0h0.1l0,0l0,0l0,0l0,0l0,0l0,0l0,0l0,0l0,0l0,0l0,0l0,0l0,0l0,0l0,0l0,0l0,0l0,0l0,0l0,0l0,0l0,0h0.1l0,0l0,0l0,0
			c0.2-0.2,0.5,0,0.5,0h0.1c0,0,0.2-0.2,0.3-0.3c0.1-0.2,0-0.3-0.2-0.3c-0.4-0.1-0.9-0.4-1.4-0.6C81.7,146.1,81.7,146.1,81.6,146.1
			L81.6,146.1z M84.5,147.1c-0.1,0-0.2,0.1-0.3,0.2c-0.1,0.1,0,0.3,0.2,0.3c0.2,0.1,0.3,0.1,0.4-0.6l0,0l0,0l0,0l0,0l0,0l0,0l0,0
			l0,0l0,0h0.1l0,0l0,0l0,0l0,0l0,0l0,0l0,0l0,0l0,0c0.3,0.8,0.5,0.8,0.8,1h0.1c0.1,0,0.2-0.1,0.3-0.2c0-0.2-0.1-0.3-0.2-0.3
			C85.4,147.4,84.9,147.2,84.5,147.1L84.5,147.1L84.5,147.1z M87.3,148c-0.1,0-0.2,0.1-0.3,0.2c-0.1,0.1,0,0.3,0.2,0.3
			c0.1,0,0.1,0,0.1,0.5l0,0l0,0l0,0h0.1l0,0l0,0l0,0l0,0l0,0l0,0l0,0l0,0c0.4-0.3,0.8-0.2,1.3-0.1l0,0c0.1,0,0.2-0.1,0.3-0.2
			c0.1-0.1,0-0.3-0.2-0.3C88.2,148.3,87.8,148.1,87.3,148L87.3,148L87.3,148z M90.2,148.3c-0.1,0-0.2,0.1-0.3,0.2
			c-0.1,0.2,0,0.3,0.2,0.3c0.2,0.1,0.5,0.1,0.7,0.1l0,0l0,0l0,0l0,0l0,0l0,0l0,0l0,0l0,0l0,0l0,0l0,0l0,0l0,0l0,0l0,0
			c0.2,0.1,0.5,0.1,0.7,0.1h0.1c0.1,0,0.3-0.1,0.3-0.2c0-0.2-0.1-0.3-0.2-0.3C91,148.4,90.5,148.4,90.2,148.3L90.2,148.3L90.2,148.3
			z M93.1,149c-0.1,0.2-0.3,0.3-0.3,0.4c0,0.2,0.1,0.3,0.2,0.3c0.4,0.1,0.8,0.1,1.2,0.3l0,0l0,0l0,0l0,0l0,0h0.1l0,0l0,0l0,0l0,0
			l0,0l0,0h0.2l0,0c0.2-0.2,0.3-0.3,0.3-0.4c0-0.2-0.1-0.3-0.2-0.3C94.2,149.3,93.7,149.3,93.1,149L93.1,149L93.1,149z M96.1,150
			c-0.2-0.4-0.3-0.3-0.3-0.1c0,0.1,0.1,0.3,0.3-0.9h0.3l0,0l0,0l0,0l0,0l0,0l0,0l0,0l0,0l0,0l0,0l0,0l0,0l0,0l0,0l0,0l0,0l0,0l0,0
			l0,0l0,0l0,0l0,0l0,0l0,0l0,0l0,0l0,0l0,0l0,0l0,0l0,0l0,0l0,0h0.1l0,0l0,0l0,0l0,0l0,0h0.7l0,0c0.2,1.2,0.3,1.1,0.3,0.9
			c0-0.1-0.1-0.3-0.3,0.1H96.1L96.1,150L96.1,150z M99.1,151c-0.2-1.3-0.3-1.2-0.3-1s0.1,0.3,0.3,0h0.3l0,0l0,0l0,0l0,0l0,0l0,0l0,0
			l0,0l0,0l0,0l0,0l0,0l0,0l0,0h0.1l0,0l0,0l0,0l0,0l0,0l0,0l0,0h0.1l0,0l0,0l0,0l0,0l0,0l0,0l0,0l0,0l0,0l0,0l0,0l0,0l0,0h0.1l0,0
			l0,0l0,0l0,0l0,0l0,0l0,0l0,0l0,0l0,0l0,0l0,0l0,0l0,0l0,0l0,0l0,0l0,0l0,0l0,0l0,0l0,0l0,0l0,0l0,0l0,0l0,0l0,0l0,0l0,0l0,0l0,0
			l0,0l0,0l0,0l0,0l0,0l0,0l0,0l0,0l0,0l0,0l0,0h0.3c0.2,0.3,0.3,0.2,0.3,0s-0.1-0.3-0.3,1l0,0h-0.4H99.1L99.1,151L99.1,151z
			 M103.6,149L103.6,149c-0.5,0.7-1,0.7-1.5,0.7c-0.2,0-0.3,0.1-0.3,0.3s0.1,0.3,0.3,0.3l0,0c0.3,0,0.8-0.1,1.1-0.3l0,0l0,0l0,0l0,0
			l0,0l0,0l0,0l0,0l0,0l0,0l0,0l0,0h0.1l0,0l0,0l0,0l0,0l0,0l0,0l0,0h0.2c0.2,0.2,0.3,0,0.3-0.1c0-0.2-0.1-0.3-0.2-0.3V149z
			 M106.5,149.4L106.5,149.4c-0.5,0-1,0.1-1.5,0.1c-0.2,0-0.3,0.1-0.2,0.3c0,0.1,0.1,0.3,0.3,0.3l0,0c0.2,0,0.3-0.1,0.5-0.1l0,0l0,0
			l0,0c0,0,0,0,0.1,0l0,0l0,0l0,0l0,0l0,0c0,0,0,0,0.1,0l0,0l0,0l0,0l0,0l0,0c0,0,0,0,0.1,0l0,0c0.3-0.1,0.4-0.1,0.7-0.1
			c0.2,0,0.3-0.2,0.2-0.3C106.8,149.5,106.7,149.4,106.5,149.4L106.5,149.4z M109.5,148.8L109.5,148.8c-0.5,0.1-1,0.2-1.5,0.3
			c-0.2,0-0.3,0.2-0.2,0.3c0,0.1,0.2,0.2,0.3,0.2l0,0c0.3,0,0.7-0.1,1.1-0.2l0,0l0,0l0,0l0,0l0,0l0,0l0,0l0,0l0,0l0,0l0,0l0,0l0,0
			l0,0c0.1,0,0.2-0.1,0.3-0.1c0.2,0,0.2-0.1,0.2-0.3C109.7,148.9,109.6,148.8,109.5,148.8L109.5,148.8z M112.4,148.3L112.4,148.3
			c-0.5,0.1-1,0.3-1.5,0.4c-0.2,0-0.2,0.1-0.2,0.3c0,0.1,0.2,0.2,0.3,0.2l0,0c0.3-0.1,0.6-0.2,0.9-0.2l0,0l0,0l0,0l0,0l0,0h0.1l0,0
			l0,0l0,0l0,0l0,0l0,0l0,0l0,0l0,0l0,0l0,0l0,0l0,0h0.1l0,0l0,0l0,0l0,0l0,0l0,0l0,0l0,0l0,0l0,0l0,0l0,0l0,0h0.1l0,0l0,0l0,0
			c0.2,0,0.2-0.1,0.2-0.3C112.6,148.4,112.5,148.3,112.4,148.3L112.4,148.3z M115.3,147L115.3,147c-0.5,0.5-1,0.6-1.5,0.8
			c-0.2,0-0.2,0.2-0.2,0.3s0.2,0.2,0.3,0.2l0,0c0.2-0.1,0.3-0.1,0.5-0.2l0,0c0.1,0,0.1,0,0.1-0.1l0,0l0,0l0,0l0,0l0,0h0.1l0,0l0,0
			l0,0l0,0l0,0l0,0l0,0h0.1l0,0l0,0l0,0l0,0l0,0l0,0l0,0l0,0l0,0l0,0l0,0l0,0l0,0l0,0l0,0h0.1l0,0l0,0l0,0l0,0l0,0l0,0l0,0l0,0l0,0
			l0,0l0,0l0,0l0,0l0,0l0,0l0,0l0,0l0,0l0,0l0,0l0,0l0,0l0,0l0,0h0.1l0,0l0,0l0,0l0,0l0,0c0.1,0,0.1-0.1,0.2-0.1
			c0.2-0.1,0.2-0.2,0.2-0.3c0.2-0.1,0.1-0.3,0-0.3V147z M118.1,146L118.1,146c-0.5,0.6-1,0.7-1.5,0.9c-0.2,0.1-0.2,0.2-0.2,0.3
			c0.1,0.1,0.2,0.1,0.3-0.2h0.1c0.4,0.2,0.9,0,1.4-0.2c0.2,0,0.2-0.2,0.2-0.3c-0.1,0-0.2-0.1-0.3-0.1V146z M120.9,145
			C120.9,145,120.7,145,120.9,145c-0.5,0.2-1,0.4-1.3,0.5c-0.2,0-0.2,0.2-0.2,0.3c0.1,0.1,0.2,0.2,0.3,0.2s0.1,0,0.1,0
			s0.2,0.2,0.3,0.2l0,0l0,0l0,0l0.1,0.8l0,0l0,0l0,0l0,0l0,0h0.1l0,0l0,0l0,0l0,0l0,0l0,0l0,0l0,0l0,0l0,0l0,0l0,0l0,0l0,0l0,0l0,0
			l0,0l0,0l0,0l0,0l0,0l0,0l0,0l0,0l0,0l0,0l0,0l0,0l0,0l0,0l0,0l0,0l0,0l0,0l0,0l0,0l0,0l0,0l0,0l0,0l0,0l0,0l0,0l0,0l0,0l0,0l0,0
			l0,0l0,0l0,0l0,0l0,0l0,0l0,0l0,0l0,0l0,0l0,0l0,0l0,0l0,0l0,0l0,0l0,0l0,0l0,0l0,0l0,0l0,0l0,0l0,0l0,0l0,0l0,0l0,0l0,0l0,0l0,0
			l0,0l0,0l0,0l0,0l0,0l0,0l0,0l0,0l0,0l0,0c0.2-1,0.2-1.1,0.1-1.2c0.7-0.5,0.7-0.6,0.6-0.6V145z M123.5,143.8L123.5,143.8
			c-0.5,0.3-1,0.5-1.4,0.8c-0.1,0.1-0.2,0.2-0.1,0.3s0.2,0.2,0.2,0.2c0.1,0,0.1,0,0.1-0.1l0,0l0,0l0,0l0,0l0,0l0,0l0,0l0,0l0,0l0,0
			l0,0l0,0l0,0l0,0l0,0l0,0l0,0l0,0l0,0h0.1l0,0l0,0l0,0l0,0l0,0l0,0l0,0h0.1l0,0l0,0l0,0l0,0l0,0h0.1l0,0l0,0l0,0l0,0l0,0h0.1l0,0
			l0,0l0,0l0,0l0,0l0,0l0,0l0,0l0,0l0,0l0,0l0,0l0,0l0,0h0.1l0,0l0,0l0,0l0,0l0,0c0,0,0.1,0,0.1-0.1l0,0c0.2-0.1,0.3-0.2,0.6-0.3
			c0.1-0.1,0.2-0.2,0.1-0.4C123.7,143.9,123.6,143.8,123.5,143.8L123.5,143.8z M126.1,142c-0.1,0-0.1,0-0.2,0.1
			c-0.4,0.3-0.8,0.5-1.3,0.8c-0.1,0.1-0.2,0.2-0.1,0.4c0.1,0.1,0.2,0.1,0.2,0.1c0.1,0,0.1,0,0.1-0.1c0.2-0.1,0.3-0.2,0.4-0.3l0,0
			l0,0l0,0l0,0l0,0l0,0l0,0l0,0l0,0l0,0l0,0l0,0l0,0l0,0l0,0l0,0l0,0l0,0l0,0l0,0l0,0l0,0l0,0l0,0l0,0l0,0l0,0l0,0l0,0l0,0l0,0l0,0
			l0,0l0,0l0,0l0,0l0,0l0,0l0,0l0,0l0,0l0,0l0,0l0,0l0,0c0,0,0,0,0.1,0l0,0l0,0l0,0l0,0l0,0c0,0,0.1,0,0.1-0.1l0,0
			c0.1-0.1,0.2-0.1,0.3-0.1c0.1-0.1,0.2-0.3,0.1-0.4C126.3,142.1,126.2,142,126.1,142L126.1,142z M128.6,141h-0.1
			c-0.4,0.1-0.8,0.4-1.3,0.7c-0.1,0.1-0.2,0.3-0.1,0.4c0.1,0,0.2,0.1,0.2,0.1c0.1,0,0.1,0,0.2-0.1s0.2-0.1,0.3-0.2l0,0l0,0l0,0
			l0.1-0.1l0,0l0,0l0,0l0.1,0.2l0,0l0,0l0,0l0,0l0,0h0.1l0,0l0,0l0,0l0,0l0,0c0-0.3,0.1-0.3,0.1-0.4l0,0l0,0l0,0l0,0l0,0l0,0l0,0
			c0,0,0.1,0,0.1-0.1l0,0l0,0l0,0l0,0l0,0c0,0,0.1,0,0.1-0.1l0,0l0,0l0,0l0,0l0,0c0,0,0.1,0,0.1-0.1l0,0l0,0l0,0l0,0l0,0
			c0,0,0.1,0,0.1-0.1l0,0l0,0l0,0l0,0l0,0c0,0,0.1,0,0.1-0.1l0,0l0,0l0,0l0,0l0,0c0,0,0.1,0,0.1-0.1l0,0l0,0l0,0l0,0l0,0l0,0l0,0
			l0,0l0,0l0,0l0,0l0,0l0,0l0,0l0,0l0,0c0.1-0.1,0.1-0.3,0.1-0.4c-0.1,0.2-0.2,0.2-0.3,0.2V141z M131,139c-0.1,0-0.1,0-0.2,0.1
			c-0.4,0.3-0.8,0.6-1.2,0.9c-0.1,0.1-0.1,0.3-0.1,0.4c0.1,0.1,0.1,0.1,0.2,0.1c0.1,0,0.1,0,0.2-0.1c0.1,0,0.1,0,0.1-0.1l0,0l0,0
			l0,0l0,0l0,0l0,0l0,0l0,0l0,0l0,0l0,0l0,0l0,0l0,0l0,0l0,0l0,0l0,0l0,0l0,0l0.1-0.1l0,0l0,0l0,0l0.1-0.1l0,0l0,0l0,0l0.1-0.1l0,0
			l0,0l0,0l0.1-0.1l0,0l0,0l0,0l0,0l0,0l0,0l0,0l0,0l0,0l0,0l0,0l0,0l0,0l0,0l0,0l0,0l0,0l0,0l0,0l0,0c0,0,0,0,0.1-0.1l0,0l0,0l0,0
			l0,0l0,0c0,0,0.1,0,0.1-0.1l0,0l0,0l0,0c0.1-0.1,0.2-0.2,0.3-0.3S131.1,139.1,131,139C131.1,139.1,131.1,139,131,139L131,139z
			 M133.3,137.1c-0.1,0-0.1,0-0.1,0.1c-0.4,0.3-0.8,0.6-1.1,0.9c-0.1,0.1-0.1,0.3-0.1,0.4c0.1,0.1,0.1,0.1,0.2,0.1
			c0.1,0,0.1,0,0.2-0.1l0,0l0,0l0,0l0,0l0,0l0,0l0,0l0,0l0,0c0.3-0.2,0.4-0.4,0.6-0.6l0,0l0,0l0,0l0,0l0,0l0,0l0,0l0,0l0,0l0,0l0,0
			l0,0c0.1-0.1,0.2-0.2,0.3-0.3s0.1-0.3,0-0.3C133.5,137.1,133.3,137.1,133.3,137.1L133.3,137.1z M135.5,135c-0.1,0-0.2,0-0.2,0
			s-0.7,0.8-1.1,1.2c-0.1,0.1-0.1,0.3,0,0.3c0.1,0.1,0.2,0.5,0.2,0.5h0.1l0.4-1l0,0l0,0l0,0c0,0,0,0,0.1,0l0,0l0,0l0,0l0,0l0,0l0,0
			l0,0l0,0l0,0l0,0l0,0l0,0l0,0l0,0c0,0,0,0,0.1-0.1l0,0l0,0l0,0c0.2-0.1,0.3-0.3,0.4-0.4c0.1-0.1,0.1-0.3,0-0.4
			C135.6,135,135.5,135,135.5,135L135.5,135z M137.5,132.8c-0.1,0-0.2,0.1-0.2,0.1c-0.4,0.4-0.7,0.8-1,1.1c-0.1,0.1-0.1,0.3,0,0.3
			c0.1,0.1,0.1,0.1,0.1,0.1l0.2-0.1c0.1-0.1,0.3-0.3,0.4-0.4l0,0l0,0l0,0l0,0l0,0l0,0l0,0l0,0l0,0l0,0l0,0l0,0l0,0l0,0l0,0l0,0l0,0
			l0,0l0,0l0,0l0,0l0,0l0,0l0,0l0,0l0,0l0,0l0,0l0,0l0,0l0,0l0,0l0,0l0,0l0,0l0,0l0,0l0,0l0,0l0,0l0,0l0,0l0,0l0,0l0,0l0,0l0,0l0,0
			l0,0l0,0l0,0l0,0l0,0l0,0l0,0l0,0l0,0l0,0l0,0l0,0l0,0l0,0l0,0l0,0l0,0l0,0l0,0l0,0l0,0l0,0l0,0l0,0l0,0l0,0l0,0l0,0l0,0
			c0,0,0,0,0.1-0.1l0,0l0,0l0,0l0,0c0.1-0.1,0.1-0.3,0-0.3C137.6,132.9,137.5,132.8,137.5,132.8L137.5,132.8z M139.4,130.6
			c-0.1,0-0.2,0-0.2,0.1c-0.3,0.4-0.6,0.8-0.9,1.2c-0.1,0.1-0.1,0.3,0.1,0.3c0.1,0.1,0.1,0.1,0.1,0.1l0.2-0.1
			c0.1-0.1,0.2-0.1,0.2-0.2l0,0l0,0l0,0h0.1v-0.1l0,0l0,0l0,0l0,0l0,0l0,0l0,0l0,0l0,0l0,0l0,0l0,0l0,0l0,0l0,0l0,0l0,0l0,0l0,0l0,0
			l0,0l0,0l0,0l0,0l0,0l0,0l0,0l0,0l0,0l0,0l0,0l0,0l0,0l0,0l0,0l0,0l0,0l0,0V131h0l0,0l0,0l0,0l0,0h0.1l0,0l0,0l0,0l0.1,1l0,0l0,0
			l0,0h0.1l0,0l0,0l0,0l0.1-1l0,0l0,0l0,0h0.1l0,0l0,0l0,0c0,0.6,0,0.5,0.1,0.5l0,0l0,0l0,0l0,0l0,0l0,0c0.1-0.1,0.1-0.3-0.1-0.3
			C139.5,130.6,139.5,130.6,139.4,130.6L139.4,130.6z M141.2,128c-0.1,0-0.2,0.1-0.2,0.1c-0.3,0.4-0.6,0.8-0.9,1.2
			c-0.1,0.1-0.1,0.3,0.1,0.3c0.1,0.1,0.1,0.1,0.2,0.1c0.1,0,0.1-0.1,0.2-0.1c0.3-0.4,0.6-0.8,0.8-1.2c0.1-0.1,0.1-0.3-0.1-0.4
			C141.3,128,141.3,128,141.2,128L141.2,128z M142.8,125.6c-0.1,0-0.1,0.1-0.2,0.1c-0.3,0.4-0.5,0.8-0.8,1.3
			c-0.1,0.1-0.1,0.3,0.1,0.3c0.1,0.1,0.1,0.1,0.2,0.1c0.1,0,0.1-0.1,0.2-0.1c0.1-0.2,0.3-0.4,0.4-0.6l0,0c0,0,0-0.1-0.7-0.1l0,0l0,0
			l0,0l0,0l0,0v-0.1l0,0l0,0l0,0l0,0l0,0l0,0l0,0l0,0l0,0l0,0l0,0l0,0l0,0l0,0l0,0l0,0l0,0l0,0l0,0l0,0l0,0l0,0v-0.1l0,0l0,0l0,0
			l0,0l0,0c0.8,0,0.8-0.1,0.9-0.1l0,0l0,0l0,0l0,0l0,0c0,0,0-0.1,0.1-0.1l0,0l0,0l0,0l0,0l0,0c0,0,0-0.1,0-0.1l0,0V126
			c0.2-0.1,0.2-0.3,0-0.3C142.9,125.6,142.8,125.6,142.8,125.6L142.8,125.6z M144.3,123c-0.1,0-0.2,0.1-0.2,0.2
			c-0.3,0.4-0.4,0.8-0.7,1.3c-0.1,0.1-0.1,0.3,0.1,0.3c0.1,0,0.1,0.1,0.1,0.1c0.1,0,0.1-0.1,0.2-0.2l0,0l0,0l0,0l0,0l0,0l0,0
			c0.3-0.4,0.4-0.8,0.7-1.3l0,0l0,0l0,0l0,0c0.1-0.1,0-0.3-0.1-0.3C144.3,123,144.3,123,144.3,123L144.3,123z M146,120.4
			c-0.1,0-0.2,0.1-0.3,0.2c-0.2,0.4-0.4,0.9-0.6,1.3c-0.1,0.1,0,0.3,0.1,0.3s0.1,0.1,0.1,0.1c0.1,0,0.2-0.1,0.2-0.2
			c0.1-0.3,0.3-0.7,0.5-1.1l0,0l0,0l0,0v-0.1l0,0l0,0l0,0l0,0l0,0l0,0c0.1-0.1,0.1-0.2,0.1-0.2C146.1,120.6,146.1,120.5,146,120.4
			L146,120.4L146,120.4z M146.7,118.1c-0.1,0-0.2,0.1-0.3,0.2c-0.2,0.4-0.4,0.9-0.6,1.4c-0.1,0.2,0,0.3,0.1,0.3s0.1,0,0.1,0
			c0.1,0,0.2-0.1,0.3-0.2c0.1-0.3,0.3-0.7,0.4-1.1l0,0l0,0l0,0l0,0l0,0l0,0l0,0l0,0l0,0l0,0l0,0l0,0c0-0.1,0.1-0.1,0.1-0.2
			c0.1-0.2,0-0.3-0.2-0.3C146.8,118.1,146.8,118.1,146.7,118.1L146.7,118.1z M147.7,115c-0.1,0-0.2,0.1-0.3,0.2
			c-0.2,0.4-0.3,0.9-0.4,1.5c-0.1,0.2,0,0.3,0.1,0.3c0.1,0,0.1,0,0.1,0c0.1,0,0.2-0.1,0.3-0.2c0.1-0.4,0.3-0.9,0.4-1.5
			C148,115.2,147.9,115.1,147.7,115C147.8,115,147.7,115,147.7,115L147.7,115z M148,112c-0.1,0-0.2,0.1-0.3,0.2
			c-0.1,0.5-0.3,1-0.4,1.5c-0.1,0.1,0.1,0.3,0.2,0.3h0.1c0.1,0,0.2,0,0.3-0.2c0.1-0.3,0.1-0.5,0.2-0.8l0,0l0,0l0,0l0,0l0,0l0,0l0,0
			l0,0l0,0l0,0l0,0l0,0l0,0l0,0c0.1-0.2,0.1-0.3,0.1-0.5c0.1-0.2-0.1-0.3-0.2-0.3C148,112,148,112,148,112L148,112z M149.1,109.1
			c-0.1,0-0.2,0.1-0.3,0.2c-0.1,0.5-0.2,0.9-0.3,1.4c-0.1,0.2,0.1,0.3,0.2,0.3h0.1c0.1,0,0.2-0.1,0.3-0.2c0.1-0.3,0.1-0.6,0.2-0.9
			l0,0l0,0l0,0l0,0l0,0l0,0l0,0l0,0l0,0l0,0l0,0l0,0l0,0l0,0l0,0l0,0l0,0l0,0c0-0.1,0.1-0.2,0.1-0.3
			C149.4,109.2,149.3,109.1,149.1,109.1L149.1,109.1L149.1,109.1z M149.8,106.1c-0.1,0-0.3,0.1-0.3,0.2c-0.1,0.5-0.1,1-0.2,1.4
			c0,0.2,0.1,0.3,0.2,0.3h0.1c0.1,0,0.3-0.1,0.3-0.2c0-0.2,0.1-0.3,0.1-0.4l0,0l0,0l0,0l0,0l0,0l0,0l0,0l0,0l0,0l0,0l0,0l0,0l0,0
			l0,0l0,0l0,0l0,0l0,0v-0.1l0,0l0,0l0,0l0,0l0,0l0,0l0,0l0,0l0,0l0,0l0,0l0,0l0,0v-0.1l0,0c0-0.1,0-0.1,0-0.1l0,0c0,0,0,0,0-0.1
			l0,0l0,0l0,0l0,0l0,0c0-0.1,0-0.1,0-0.1l0,0l0,0l0,0l0,0l0,0l0,0l0,0l0,0l0,0l0,0l0,0l0,0l0,0l0,0l0,0l0,0l0,0l0,0
			C150,106.3,150,106.1,149.8,106.1L149.8,106.1L149.8,106.1z M149.8,103.1c-0.1,0-0.3,0.1-0.3,0.3c-0.1,0.5-0.1,1-0.1,1.5
			c0,0.2,0.1,0.3,0.3,0.3l0,0c0.1,0,0.3-0.1,0.3-0.3c0,0,0-0.1,0-0.2l0,0l0,0l0,0l0,0l0,0l0,0l0,0l0,0c0.1-0.4,0.1-0.8,0.1-1.3
			C150.1,103.2,150,103.1,149.8,103.1L149.8,103.1L149.8,103.1z M150,100.1c-0.2,0-0.3,0.1-0.3,0.3c0,0.5,0,1-0.1,1.5
			c0,0.2,0.1,0.3,0.3,0.3l0,0c0.1,0,0.3-0.1,0.3-0.3c0-0.5,0.1-1,0.1-1.5C150.2,100.2,150.1,100.1,150,100.1L150,100.1L150,100.1z
			 M149.8,97.1L149.8,97.1c-0.1,0-0.3,0.2-0.3,0.3c0.1,0.5,0.1,1,0.1,1.5c0,0.2,0.1,0.3,0.3,0.3l0,0c0.2,0,0.3-0.1,0.3-0.3l0,0l0,0
			l0,0l0,0l0,0l0,0l0,0l0,0l0,0l0,0l0,0l0,0l0,0l0,0l0,0l0,0l0,0c0-0.5-0.1-0.9-0.1-1.3C150.1,97.2,150,97.1,149.8,97.1L149.8,97.1z
			 M149.7,94.1L149.7,94.1c-0.1,0-0.3,0.2-0.3,0.3c0.1,0.5,0.1,1,0.2,1.5c0,0.2,0.1,0.3,0.3,0.3l0,0c0.1,0,0.3-0.2,0.3-0.3
			c-0.1-0.5-0.1-0.9-0.2-1.4l0,0v-0.1l0,0C149.9,94.3,149.9,94.1,149.7,94.1L149.7,94.1z M149.2,91C149.1,91,149.1,91,149.2,91
			c-0.2,0.1-0.3,0.2-0.3,0.3c0.1,0.5,0.1,1.1,0.3,1.5c0,0.1,0.1,0.2,0.3,0.2c0,0,0,0,0.1,0c0.1,0,0.3-0.1,0.2-0.3
			c-0.1-0.5-0.2-1.1-0.3-1.6l0,0l0,0l0,0C149.4,91.1,149.3,91,149.2,91L149.2,91z M148.3,88L148.3,88c-0.2,0-0.3,0.1-0.3,0.3
			c0.1,0.5,0.2,1,0.4,1.5c0,0.1,0.1,0.2,0.3,0.2h0.1c0.1-0.1,0.2-0.2,0.2-0.3l0,0l0,0l0,0l0,0l0,0l0,0l0,0l0,0l0,0l0,0l0,0l0,0l0,0
			l0,0l0,0l0,0l0,0l0,0l0,0l0,0l0,0l0,0l0,0l0,0l0,0v-0.1l0,0l0,0l0,0l0,0l0,0l0,0l0,0v-0.1l0,0l0,0l0,0l0,0l0,0l0,0l0,0l0,0l0,0
			l0,0l0,0l0,0l0,0l0,0l0,0l0,0l0,0l0,0l0,0l0,0l0,0l0,0l0,0l0,0l0,0l0,0l0,0l0,0l0,0l0,0l0,0l0,0l0,0l0,0l0,0l0,0l0,0l0,0l0,0l0,0
			l0,0l0,0l0,0l0,0l0,0l0,0l0,0l0,0l0,0l0,0l0,0v-0.1l0,0l0,0l0,0l0,0l0,0v-0.1l0,0c0,0-0.1-0.1-0.1-0.2
			C148.6,88.1,148.5,88,148.3,88L148.3,88z M147.3,85.1L147.3,85.1c-0.2,0.1-0.3,0.2-0.2,0.3c0.1,0.4,0.3,0.9,0.4,1.4
			c0.1,0.1,0.2,0.2,0.3,0.2h0.1c0.2,0,0.2-0.2,0.2-0.3c-0.1-0.1-0.1-0.2-0.1-0.3l0,0l0,0l0,0l0,0l0,0l0,0l0,0l0,0l0,0l0,0l0,0l0,0
			l0,0l0,0v-0.1l0,0l0,0l0,0l0,0l0,0c-0.1-0.3-0.2-0.6-0.3-0.9C147.5,85.2,147.4,85.1,147.3,85.1L147.3,85.1z M146.4,82.2
			L146.4,82.2c-0.3,0-0.3,0.2-0.3,0.3c0.2,0.5,0.4,1,0.5,1.4c0.1,0.1,0.2,0.1,0.3,0.1s0.1,0,0.1,0c0.1,0,0.2-0.2,0.1-0.3
			c0,0,0,0-0.1-0.1l0,0l0,0l0,0l0,0l0,0c0,0,0,0,0-0.1l0,0l0,0l0,0l0,0l0,0l0,0l0,0l0,0l0,0l0,0l0,0l0,0c-0.1-0.4-0.3-0.8-0.4-1.1
			C146.6,82.3,146.6,82.2,146.4,82.2L146.4,82.2z M145.7,80h-0.1c-0.1-0.1-0.2,0-0.1,0.1c0.2,0.5,0.4,0.9,0.6,1.4
			c0.1,0.1,0.2,0.1,0.3,0.5h0.1c0.1-0.4,0.2-0.6,0.1-0.7c-0.1-0.1-0.1-0.3-0.1-0.3l0,0c0-0.1-0.1-0.1-0.1-0.1l0,0
			c-0.2-0.3-0.3-0.6-0.4-0.9c-0.1-0.1-0.2-0.2-0.3-0.2V80z M144.3,77c-0.1,0-0.1,0-0.1,0c-0.1,0.1-0.1,0.2-0.1,0.4
			c0.3,0.4,0.4,0.9,0.6,1.4c0.1,0.1,0.2,0.2,0.3,0.2s0.1,0,0.1,0c0.1-0.1,0.2-0.2,0.1-0.4c-0.2-0.4-0.4-0.9-0.6-1.4
			C144.6,77,144.5,77,144.3,77L144.3,77z M143,74h-0.2c0,0-0.1,0.7-0.1,0.8c0.3,0.4,0.5,0.9,0.8,1.3c0.1,0.1,0.2-0.1,0.2-0.1h0.1
			c0,0,0.2,0,0.1-0.1c-0.2-0.4-0.7-1.9-0.7-1.9l0,0h-0.1l0,0l0,0l0,0l0,0l0,0c0,0.7,0,0.6-0.1,0.6l0,0l0,0l0,0l0,0
			c0.1-0.1,0-0.1,0-0.1V74z M141.3,72h-0.1c-0.1,0.1-0.2,0.3-0.1,0.3c0.3,0.4,0.6,0.8,0.8,1.3c0.1,0.1,0.1,0.1,0.2,0.1
			s0.1,0,0.1-0.1c0.1-0.1,0.2-0.3,0.1-0.3c-0.1-0.2-0.2-0.3-0.4-0.5l0,0l-0.1,0.2l0,0l0,0l0,0l0,0l0,0h-0.1l0,0l0,0l0,0l0,0l0,0l0,0
			l0,0l0,0l0,0l0,0l0,0l0,0l0,0l0,0l0,0l0,0l0,0l0,0l0,0l0,0l0,0l0,0l0,0l0,0l0,0l0,0l0,0l0,0l0,0l0,0l0,0c0-0.3,0-0.4-0.1-0.4l0,0
			l0,0l0,0c-0.1-0.1-0.1-0.2-0.2-0.3C141.5,72,141.5,72,141.3,72L141.3,72z M139.6,69.5c-0.1,0-0.1,0-0.1,0.1
			c-0.1,0.1-0.2,0.3-0.1,0.3c0.3,0.4,0.6,0.8,0.9,1.2c0.1,0.1,0.2,0.1,0.2,0.1c0.1,0,0.1,0,0.2-0.1c0.1-0.1,0.1-0.1,0.1-0.1l0,0
			h-0.1l0,0l0,0l0,0l0,0l0,0l0,0c0-0.2,0-0.3-0.1-0.3l0,0c-0.1-0.2-0.3-0.7-0.3-0.7l0,0l0,0l0,0l0,0l0,0h-0.1l0,0l0,0l0,0l0,0l0,0
			l0,0l0,0l0,0l0,0l0,0l0,0l0,0l0,0l0,0l0,0l0,0l0,0l0,0l0,0l0,0l-0.1,0.2l0,0L140,71l0,0h-0.1l0,0l-0.1-1l0,0l0,0l0,0l0,0l0,0l0,0
			l0,0l0,0l0,0l0,0l0,0l0,0l-0.1-0.1C139.8,69.6,139.6,69.5,139.6,69.5L139.6,69.5z M137.7,67h-0.2c-0.1,0.4-0.1,0.6,0,0.6
			c0.3,0.4,0.7,0.8,0.9,1.2c0.1,0,0.1,0.1,0.2,0.2h0.2c0.1-0.2,0.1-0.4,0.1-0.4c-0.3-0.4-0.7-0.8-0.9-1.2c-0.2-0.1-0.2-0.1-0.3-0.1
			V67z M135.6,65.5c-0.1,0-0.2,0-0.2,0.1c-0.1,0.1-0.1,0.3,0,0.3c0.3,0.3,0.6,0.6,1,1c0.1,0,0.1,0.1,0.2,0.1c0.1,0,0.2,0,0.2,0
			s0.1-0.7,0-0.8s-0.4-1.2-0.4-1.2l0,0h-0.1l0,0l0,0l0,0l0,0l0,0c0,0,0,0.7-0.1,0.6l0,0l0,0l0,0l0,0l0,0l0,0l0,0l0,0l0,0l0,0l0,0
			l0,0l0,0l0,0l0,0l0,0l0,0l0,0l0,0l0,0l-0.1,0.4h0l0,0l0,0H136l0,0l0,0l0,0c0,0,0-0.1-0.1-0.1l0,0l0,0l0,0l0,0l0,0l0,0l0,0l0,0l0,0
			l0,0l0,0l0,0l0,0l0,0l0,0l0,0l0,0l0,0l0,0l0,0C135.8,65.6,135.8,65.5,135.6,65.5L135.6,65.5z M133.5,63c-0.1,0-0.2,0-0.2,0.1
			c-0.1,0.1-0.1,0.3,0,0.3c0.3,0.4,0.8,0.7,1.1,1c0.1,0.1,0.1,0.1,0.2,0.1s0.1-0.1,0.2-0.1c0.1-0.1,0.1-0.2,0-0.3
			c-0.4-0.3-0.8-0.7-1.1-1C133.6,63,133.6,63,133.5,63L133.5,63z M131.3,61c-0.1,0-0.2,0.1-0.2,0.1c-0.1,0.1-0.1,0.3,0.1,0.4
			c0.4,0.3,0.8,0.6,1.1,0.9c0.1,0.1,0.1,0.1,0.2,0.1s0.1-0.1,0.2-0.1c0.1-0.1,0.1-0.3-0.1-0.4l0,0l0,0l0,0l0,0l0,0l0,0l0,0l0,0l0,0
			l0,0l0,0l0,0l0,0l0,0l0,0l0,0l0,0l0,0l0,0c0,0,0,0-0.1,0l0,0l0,0l0,0l0,0l0,0l0,0l0,0l0,0l0,0l0,0l0,0l0,0l0,0c0,0,0,0-0.1,0l0,0
			l0,0l0,0l0,0l0,0l0,0l0,0l0,0l0,0l0,0l0,0l0,0l0,0l0,0l0,0l0,0l0,0l0,0l0,0l0,0l0,0l0,0l0,0l0,0l0,0l0,0l0,0l0,0l0,0l0,0
			c0,0,0,0-0.1,0l0,0l0,0l0,0l0,0l0,0c-0.2-0.2-0.4-0.3-0.5-0.4C131.3,61.1,131.3,61,131.3,61L131.3,61z M128.8,60
			c-0.1-0.7-0.1-0.6-0.2-0.6c-0.1,0.1-0.1,0.3,0.1,0.4c0.4,0.3,1.2,1.2,1.2,1.2h0.2c0,0,0.1-0.4,0.2-0.5c0.1-0.1,0.1-0.3-0.1-0.4
			l0,0l0,0l0,0l0,0l0,0l0,0l0,0l0,0l0,0l0,0l0,0l0,0c-0.2-0.1-0.5-0.1-0.5-0.1l0,0l0,0l0,0h-0.1l0,0l0,0l0,0l0,0l0,0l0,0
			c0,0,0-0.3-0.1-0.4l0,0l0,0l0,0c-0.2-0.1-0.4,0.4-0.4,0.4H128.8L128.8,60z M126.4,57.7c-0.1,0-0.2,0-0.2,0.1
			c-0.1,0.1-0.1,0.3,0.1,0.4c0.4,0.3,0.8,0.5,1.3-0.2h0.2c0.1,1,0.2,1,0.2,0.9c0.1-0.1,0.1-0.3-0.1,0.1h-0.1l0,0l0,0l0,0l0,0l0,0
			l0,0l0,0l0,0l0,0l0,0l0,0l0,0c-0.3-0.8-0.7-1-1.1-1.2C126.5,57.7,126.4,57.7,126.4,57.7L126.4,57.7z M123.8,56.2
			c-0.1,0-0.2,0-0.2,0.1c-0.1,0.1,0,0.3,0.1,0.4c0.4,0.3,0.8,0.5,1.3,0.3h0.2c0.1,0.4,0.2,0.4,0.2,0.3c0.1-0.1,0.1-0.3-0.1-0.3
			c-0.2-0.1-0.4-0.3-0.6,1l0,0l0,0l0,0l0,0l0,0h-0.1l0,0l0,0l0,0l0,0l0,0l0,0l0,0l0,0l0,0l0,0l0,0l0,0l0,0l0,0l0,0l0,0l0,0l0,0l0,0
			l0,0l0,0l0,0l0,0l0,0h-0.1l0,0l0,0l0,0l0,0l0,0l0,0l0,0l0,0l0,0l0,0l0,0l0,0l0,0l0,0l0,0l0,0l0,0l0,0l0,0l0,0
			c-0.1-1.4-0.1-1.4-0.2-1.4C123.9,56.2,123.9,56.2,123.8,56.2L123.8,56.2z M121.1,54.8c-0.1,0-0.2,0.1-0.3,0.2
			c-0.1,0.2,0,0.3,0.1,0.3c0.4,0.2,0.9,0.4,1.3-0.3h0.1c0.1,1,0.2,1,0.2,0.9c0.1-0.1,0-0.3-0.1,0.1h-0.1l0,0l0,0l0,0h-0.1l0,0l0,0
			l0,0h-0.1l0,0l0,0l0,0l0,0l0,0H122l0,0l0,0l0,0l0,0l0,0h0.2l0,0l0,0l0,0l0,0l0,0l0,0l0,0l0,0l0,0l0,0l0,0l0,0l0,0l0,0l0,0l0,0l0,0
			l0,0l0,0l0,0l0,0l0,0l0,0l0,0h-0.1l0,0l0,0l0,0l0,0l0,0l0,0l0,0H122l0,0l0,0l0,0c0,0-0.4-0.7-0.6-0.8
			C121.2,54.8,121.1,54.8,121.1,54.8L121.1,54.8z M118.4,54c-0.1,0-0.2,0-0.3,0.1c-0.1,0.2,0,0.3,0.2,0.3c0.4,0.2,0.9,0.4,1.3,0.6
			c0.1,0,0.1,0,0.1,0c0.1,0,0.2-0.1,0.3-0.2c0.1-0.2,0-0.3-0.2-0.3C119.4,54.3,118.9,54.1,118.4,54C118.5,54.1,118.4,54,118.4,54
			L118.4,54z M115.5,53.1c-0.1,0-0.2,0-0.3,0.1c-0.1,0.2,0.1,0.3,0.2,0.3c0.4,0.2,0.9,0.3,1.4,0.5c0.1,0,0.1,0,0.1,0
			c0.1,0,0.2,0,0.3-0.1c0.1-0.2,0-0.3-0.2-0.3c-0.1,0-0.1,0-0.1-0.1l0,0l0,0l0,0l0,0l0,0l0,0l0,0l0,0l0,0l0,0l0,0l0,0
			c-0.2-0.1-0.4-0.1-0.7-0.3l0,0l0,0l0,0l0,0l0,0l0,0l0,0l0,0l0,0l0,0l0,0l0,0l0,0l0,0l0,0l0,0l0,0l0,0l0,0l0,0l0,0l0,0l0,0l0,0l0,0
			l0,0l0,0l0,0l0,0l0,0l0,0l0,0l0,0l0,0l0,0l0,0l0,0l0,0l0,0l0,0l0,0l0,0l0,0l0,0l0,0C115.6,53.1,115.6,53.1,115.5,53.1L115.5,53.1z
			 M112.7,51.8c-0.1,0-0.2,0.1-0.3,0.2c-0.1,0.2,0,0.3,0.2,0.3c0.5,0.1,1,0.3,1.5,0.4l0,0c0.1,0,0.2,0,0.3-0.2
			c0.1-0.1-0.1-0.3-0.2-0.5h-0.1l0,0l0,0l0,0H114l0,0l0,0l0,0l0,0l0,0l0,0l0,0l0,0l0,0l0,0c-0.2,0.2-0.3,0.1-0.5,1l0,0l0,0l0,0l0,0
			l0,0h-0.1l0,0l0,0l0,0l0,0l0,0l0,0l0,0l0,0l0,0l0,0l0,0l0,0l0,0l0,0l0,0l0,0l0,0l0,0l0,0l0,0l0,0l0,0l0,0l0,0l0,0l0,0l0,0l0,0l0,0
			l0,0l0,0l0,0h-0.1l0,0l0,0l0,0l0,0l0,0l0,0l0,0l0,0l0,0l0,0l0,0L112.7,51.8L112.7,51.8z M109.8,50.9c-0.1,0-0.2,0.1-0.3,0.2
			c-0.1,0.2,0,0.3,0.2,0.3c0.5,0.1,1,0.2,1.5,0.3l0,0c0.1,0,0.2-0.1,0.3-0.2c0.1-0.2,0-0.3-0.2-0.3s-0.4-0.1-0.6-0.2l0,0l0,0l0,0
			h-0.1l0,0l0,0l0,0l0,0l0,0l0,0l0,0l0,0l0,0l0,0l0,0l0,0l0,0l0,0l0,0l0,0l0,0l0,0C110.2,51,110,51,109.8,50.9L109.8,50.9
			L109.8,50.9z M106.9,50.8c-0.1,0-0.3,0.1-0.3,0.2c0,0.1,0.1,0.3,0.2,0.3c0.5,0,1,0.1,1.5,0.2l0,0c0.1,0,0.3-0.1,0.3-0.2
			c0-0.2,0-0.3-0.2-0.3l0,0h-0.1l0,0l0,0l0,0l0,0l0,0l0,0l0,0l0,0l0,0l0,0l0,0l0,0l0,0l0,0l0,0l0,0l0,0l0,0l0,0l0,0l0,0l0,0l0,0l0,0
			l0,0l0,0l0,0l0,0l0,0l0,0l0,0l0,0l0,0l0,0l0,0l0,0c-0.1,0-0.1,0-0.1,0l0,0l0,0l0,0C107.5,50.8,107.2,50.8,106.9,50.8L106.9,50.8
			L106.9,50.8z M103.9,50.8c-0.2,0-0.3,0.1-0.3,0.3c0,0.1,0.1,0.3,0.3,0.3c0.5,0,1,0.1,1.5,0.1l0,0c0.2,0,0.3-0.1,0.3-0.2
			c0-0.1-0.1-0.3-0.2-0.3c0,0,0,0-0.1,0l0,0l0,0l0,0l0,0l0,0l0,0l0,0l0,0l0,0l0,0l0,0l0,0l0,0l0,0C104.7,50.8,104.4,50.8,103.9,50.8
			L103.9,50.8L103.9,50.8z M100.9,50c-0.2,0.2-0.3,0.3-0.3,0.5s0.1,0.3,0.3,0.5h1.5l0,0c0.2-0.2,0.3-0.3,0.3-0.5
			c0-0.1-0.1-0.3-0.3-0.5h-0.3l0,0l0,0l0,0l0,0l0,0l0,0l0,0l0,0l0,0l0,0l0,0l0,0l0,0l0,0l0,0l0,0l0,0l0,0l0,0l0,0l0,0l0,0l0,0l0,0
			l0,0l0,0l0,0l0,0l0,0l0,0H102l0,0l0,0l0,0l0,0l0,0l0,0l0,0l0,0l0,0l0,0l0,0l0,0l0,0l0,0l0,0l0,0l0,0l0,0l0,0h-0.1l0,0l0,0l0,0l0,0
			l0,0H100.9L100.9,50L100.9,50z"/>
	</g>
	<g>
		
			<animateTransform  accumulate="none" additive="replace" attributeName="transform" attributeType="XML" calcMode="linear" dur="10s" fill="remove" from="360 100 100" repeatCount="indefinite" restart="always" to="0 100 100" type="rotate">
			</animateTransform>
		<path class="st0" d="M99.9,35L99.9,35L99.9,35C99.9,35,99.8,35,99.9,35C99.8,35,99.8,35,99.9,35C99.8,35,99.8,35,99.9,35
			C99.8,35,99.8,35,99.9,35C99.8,35,99.8,35,99.9,35L99.9,35L99.9,35L99.9,35L99.9,35L99.9,35L99.9,35L99.9,35L99.9,35L99.9,35
			L99.9,35L99.9,35L99.9,35L99.9,35L99.9,35L99.9,35L99.9,35L99.9,35L99.9,35L99.9,35c-0.1,0-0.1,0-0.2,0l0,0l0,0l0,0c0,0,0,0-0.1,0
			l0,0h-0.1l0,0c-0.7,0-1.3,0-1.9,0.1c-0.2,0-0.4,0.2-0.4,0.4s0.2,0.4,0.4,0.4l0,0c0.8,0,1.6-0.1,2.4-0.1c0,0.1,0,0.2,0,0.2
			s0-0.1,0-0.2l0,0l0,0l0,0c0,0.1,0,0.2,0,0.2s0-0.1,0-0.2l0,0c0.2,0,0.4-0.2,0.4-0.4C100.3,35.2,100.1,35,99.9,35L99.9,35L99.9,35
			L99.9,35L99.9,35L99.9,35L99.9,35L99.9,35L99.9,35L99.9,35L99.9,35z M95.3,36L95.3,36c-0.8,0.1-1.6,0.2-2.4,0.2
			c-0.2,0-0.4,0.2-0.3,0.5c0,0.2,0.2,0.3,0.4,0.3c0,0,0,0,0.1,0c0.8-0.1,1.6-0.2,2.4-0.2c0.2,0,0.4-0.2,0.4-0.4
			C95.7,36.1,95.5,36,95.3,36L95.3,36z M90.5,35.9L90.5,35.9c-0.3,0-0.5,0.1-0.7,0.1l0,0l0,0l0,0c0,0,0,0-0.1,0l0,0l0,0l0,0l0,0l0,0
			l0,0l0,0l0,0l0,0l0,0c0,0,0,0-0.1,0l0,0l0,0l0,0c-0.5,0.1-1,0.2-1.5,0.2c-0.2,0.1-0.3,0.2-0.3,0.5c0,0.2,0.2,0.3,0.4,0.3h0.1
			c0.8-0.2,1.6-0.3,2.4-0.4c0.2,0,0.4-0.2,0.3-0.5C90.9,36.1,90.7,35.9,90.5,35.9L90.5,35.9z M85.7,36.6L85.7,36.6
			c-0.9,0.2-1.6,0.4-2.4,0.6c-0.2,0.1-0.3,0.2-0.3,0.5c0.1,0.2,0.2,0.3,0.4,0.3h0.1c0.7-0.2,1.6-0.4,2.4-0.6
			c0.2-0.1,0.3-0.2,0.3-0.5C86.1,36.8,85.9,36.6,85.7,36.6L85.7,36.6z M81,38L81,38h-0.2l0,0l0,0l0,0l0,0l0,0l0,0l0,0l0,0l0,0l0,0
			c-0.6,0.4-1.1,0.5-1.6,0.8l0,0l0,0l0,0l0,0l0,0l0,0l0,0l0,0C79,38.9,79,38.9,78.8,39c-0.2,0.1-0.3,0.3-0.2,0.5
			c0.1,0.2,0.2,0.2,0.4,0.5h0.2c0.7-0.5,1.6-0.8,2.3-1c0.2-0.1,0.3-0.3,0.2-0.5c-0.4-0.2-0.5-0.3-0.7-0.3V38z M76.4,40h-0.2l0,0l0,0
			l0,0l0,0l0,0l0,0l0,0l0,0l0,0l0,0l0,0l0,0l0,0l0,0l0,0l0,0l0,0l0,0l0,0l0,0l0,0h-0.1l0,0c-0.2,0-0.6,1-0.6,1l0,0h-0.1l0,0l0,0l0,0
			l0,0l0,0l0,0l0,0l0,0l0,0l0,0l0,0l0,0l0,0l0,0l0,0l0,0l0,0l0,0l0,0l0,0l0,0l0,0l0,0l0,0l0,0l0,0l0,0l0,0h-0.1l0,0
			c-0.2-0.8-0.6-0.7-0.8-0.5c-0.2,0.1-0.3,0.3-0.2,0.6c0.1,0.2,0.4-0.1,0.4-0.1h0.2c0,0,1.5-0.4,2.2-0.7c0.2-0.1,0.3-0.3,0.2-0.6
			C76.8,39.9,76.6,39.9,76.4,40L76.4,40z M72,41.8c-0.1,0-0.1,0-0.2,0.1l0,0l0,0l0,0l0,0c-0.7,0.3-1.5,0.7-2.1,1.1
			c-0.2,0.1-0.2,0.3-0.2,0.6c0.1,0.2,0.2,0.2,0.3,0.2c0.1,0,0.2,0,0.2-0.1c0.7-0.4,1.4-0.7,2.1-1.1c0.2-0.1,0.2-0.3,0.2-0.6
			C72.3,41.9,72.1,41.8,72,41.8L72,41.8z M67.7,44.2c-0.1,0-0.2,0-0.2,0.1c-0.2,0.2-0.5,0.3-0.7,0.4l0,0l0,0l0,0l0,0l0,0l0,0l0,0
			l0,0l0,0l0,0l0,0l0,0c-0.4,0.2-0.8,0.5-1.2,0.7c-0.2,0.1-0.2,0.4-0.1,0.6c0.1,0.1,0.2,0.2,0.3,0.2c0.1,0,0.2,0,0.2-0.1
			c0.7-0.4,1.4-0.9,2-1.3c0.2-0.1,0.2-0.3,0.2-0.6C68,44.3,67.9,44.2,67.7,44.2L67.7,44.2z M63.6,46.8c-0.1,0-0.2,0-0.2,0.1
			c-0.2,0.2-0.4,0.2-0.6,0.4l0,0l0,0l0,0l0,0l0,0l0,0l0,0l0,0l0,0l0,0l0,0l0,0l0,0l0,0l0,0l0,0l0,0l0,0l0,0l0,0l0,0l0,0l0,0l0,0l0,0
			l0,0l0,0l0,0c-0.3,0.2-0.7,0.5-1.1,0.8c-0.2,0.2-0.2,0.4-0.1,0.6c0.1,0.1,0.2,0.2,0.3,0.2s0.2,0,0.2-0.1c0.7-0.5,1.3-1,2-1.4
			c0.2-0.2,0.2-0.4,0.1-0.6C63.9,46.9,63.8,46.8,63.6,46.8L63.6,46.8z M59.8,49.7c-0.1,0-0.2,0-0.2,0.1c-0.7,0.5-1.2,1.1-1.9,1.6
			c-0.2,0.2-0.2,0.4,0,0.6c0.1,0.1,0.2,0.2,0.3,0.2s0.2,0,0.2-0.1c0.6-0.6,1.2-1.1,1.9-1.6c0.2-0.2,0.2-0.4,0.1-0.6
			C60,49.8,59.9,49.7,59.8,49.7L59.8,49.7z M56.1,53c-0.1,0-0.2,0-0.2,0.1l0,0c0,0,0,0-0.1,0.1l0,0l0,0l0,0l0,0l0,0l0,0l0,0l0,0l0,0
			l0,0l0,0l0,0l0,0l0,0l0,0l0,0l0,0l0,0l0,0l0,0l0,0c0,0,0,0-0.1,0.1l0,0l0,0l0,0l0,0l0,0l0,0l0,0l0,0l0,0l0,0l0,0c0,0,0,0-0.1,0.1
			l0,0c-0.3,0.3-0.7,0.7-1.1,1.1l0,0l0,0l0,0l0,0l0,0l0,0l0,0c-0.2,0.2-0.2,0.4,0,0.6c0.1,0.1,0.2,0.1,0.2,0.1
			c0.1,0,0.2-0.1,0.3-0.2c0.6-0.6,1.1-1.1,1.7-1.7c0.2-0.2,0.2-0.4,0-0.6C56.4,53,56.2,53,56.1,53L56.1,53z M52.7,56.4
			c-0.1,0-0.2,0.1-0.3,0.2l0,0l0,0l0,0l0,0c0,0,0,0-0.1,0.1l0,0c-0.2,0.2-0.3,0.4-0.6,0.6l0,0c0,0,0,0-0.1,0.1l0,0l0,0l0,0
			c0,0,0,0-0.1,0.1l0,0c0,0,0,0-0.1,0.1l0,0l0,0l0,0l0,0l0,0l0,0l0,0l0,0l0,0l0,0l0,0l0,0l0,0l0,0l0,0l0,0l0,0l0,0l0,0l0,0l0,0l0,0
			l0,0l0,0l0,0l0,0l0,0l0,0l0,0l0,0l0,0l0,0c0,0,0,0-0.1,0.1l0,0c-0.2,0.2-0.2,0.3-0.4,0.4c-0.2,0.2-0.1,0.4,0.1,0.6
			c0.1,0.1,0.2,0.1,0.2,0.1c0.1,0,0.2-0.1,0.3-0.2c0.5-0.7,1.1-1.2,1.6-1.8c0.2-0.2,0.2-0.4,0-0.6C52.9,56.5,52.8,56.4,52.7,56.4
			L52.7,56.4z M49.6,60.2c-0.1,0-0.2,0.1-0.3,0.2c-0.2,0.2-0.2,0.3-0.4,0.5l0,0l0,0l0,0l0,0l0,0l0,0l0,0l0,0l0,0l0,0l0,0l0,0l0,0
			l0,0l0,0l0,0l0,0l0,0c0,0,0,0-0.1,0.1l0,0c-0.3,0.4-0.6,0.8-0.9,1.2c-0.2,0.2-0.1,0.4,0.1,0.6c0.1,0.1,0.2,0.1,0.2,0.1
			c0.2,0,0.2-0.1,0.3-0.2c0.5-0.7,1-1.3,1.5-2c0.2-0.2,0.1-0.4-0.1-0.6C49.7,60.2,49.7,60.2,49.6,60.2L49.6,60.2z M46.9,64
			c-0.2,0-0.2,0.1-0.3,0.2c-0.2,0.3-0.4,0.6-0.6,0.9l0,0l0,0l0,0c0,0,0,0,0,0.1l0,0l0,0l0,0l0,0l0,0l0,0l0,0l0,0l0,0l0,0l0,0l0,0
			l0,0l0,0l0,0l0,0l0,0l0,0l0,0l0,0l0,0l0,0l0,0l0,0v0.1l0,0c-0.2,0.2-0.3,0.6-0.5,0.8c-0.1,0.2-0.1,0.4,0.2,0.6
			c0.1,0,0.2,0.1,0.2,0.1c0.2,0,0.2-0.1,0.3-0.2c0.4-0.7,0.8-1.4,1.3-2c0.2-0.2,0.1-0.4-0.1-0.6C47,64,47,64,46.9,64L46.9,64z
			 M43.9,68.4c-0.2,0-0.2,0.1-0.3,0.2c-0.2,0.3-0.4,0.7-0.6,1.1l0,0c0,0,0,0,0,0.1l0,0l0,0l0,0l0,0l0,0l0,0l0,0l0,0l0,0l0,0l0,0l0,0
			l0,0l0,0l0,0l0,0l0,0l0,0l0,0l0,0l0,0l0,0l0,0l0,0l0,0l0,0l0,0l0,0l0,0l0,0l0,0l0,0l0,0l0,0l0,0l0,0l0,0l0,0l0,0l0,0l0,0l0,0l0,0
			l0,0l0,0l0,0l0,0l0,0l0,0c0,0,0,0,0,0.1l0,0c-0.1,0.2-0.2,0.3-0.2,0.4c-0.1,0.2,0,0.4,0.2,0.6c0.1,0,0.1,0.1,0.2,0.1
			c0.2,0,0.3-0.1,0.3-0.2c0.3-0.7,0.7-1.5,1.1-2.1c0.1-0.2,0-0.4-0.2-0.6C44,68.4,43.9,68.4,43.9,68.4L43.9,68.4z M42.1,73.2
			c-0.2,0-0.3,0.1-0.4,0.2c-0.2,0.6-0.5,1.1-0.7,1.7l0,0v0.1l0,0l0,0l0,0l0,0l0,0l0,0l0,0l0,0l0,0l0,0l0,0l0,0l0,0l0,0l0,0l0,0l0,0
			l0,0c0,0.1-0.1,0.2-0.1,0.2c-0.1,0.2,0,0.4,0.2,0.6c0.1,0,0.1,0,0.2,0c0.2,0,0.3-0.1,0.4-0.2c0.3-0.7,0.7-1.5,1-2.2
			c0.1-0.2,0-0.4-0.2-0.6C42.2,73.2,42.1,73.2,42.1,73.2L42.1,73.2z M40.2,77.2c-0.2,0-0.3,0.1-0.4,0.2c-0.1,0.1-0.1,0.2,0.2,0.3
			l0,0l0,0l0,0l0,0l0,0l0,0l0,0l0,0l0,0l0,0v0.1l0,0l0,0l0,0c-0.6,0.5-0.8,1.1-1,1.6l0,0v0.1l0,0l0,0l0,0v0.1l0,0l0,0l0,0l0,0l0,0
			l0,0l0,0l0,0c-0.1,0.2,0.1,0.4,0.2,0.4h0.2c0.2,0.1,0.3,0,0.4-0.1c0.2-0.7,0.5-1.6,0.8-2.3c0.1-0.2,0-0.4-0.2-0.5
			C40.3,77.2,40.2,77.2,40.2,77.2L40.2,77.2z M38.9,82c-0.2,0-0.3,0.1-0.4,0.3c-0.2,0.7-0.3,1.3-0.5,1.9l0,0l0,0l0,0l0,0l0,0l0,0
			l0,0l0,0l0,0l0,0l0,0l0,0l0,0l0,0l0,0l0,0l0,0l0,0l0,0l0,0l0,0l0,0c0,0,0,0,0,0.1l0,0l0,0l0,0c0,0.1,0,0.1,0,0.2
			c-0.1,0.2,0.1,0.4,0.3,0.5h0.1c0.2,0,0.3-0.2,0.4-0.3c0.2-0.8,0.4-1.6,0.7-2.4c0.1-0.2-0.1-0.4-0.2-0.5C39,82,38.9,82,38.9,82
			L38.9,82z M37.6,87c-0.2,0-0.3,0.2-0.4,0.3l0,0l0,0l0,0l0,0C37.1,87.7,37,88,37,88.4l0,0c0,0,0,0,0,0.1l0,0l0,0l0,0l0,0l0,0l0,0
			l0,0l0,0l0,0l0,0l0,0l0,0l0,0l0,0l0,0l0,0c0,0,0,0,0,0.1l0,0l0,0l0,0c0,0,0,0,0,0.1l0,0l0,0l0,0c-0.1,0.2-0.1,0.6-0.2,0.8
			c0,0.2,0.1,0.4,0.3,0.5h0.1c0.2,0,0.4-0.2,0.4-0.3c0.2-0.8,0.2-1.6,0.4-2.4c0.1-0.2-0.1-0.4-0.3-0.5C37.6,87,37.6,87,37.6,87
			L37.6,87z M36.6,91.3c-0.2,0-0.4,0.2-0.4,0.3c-0.1,0.4-0.1,0.7-0.2,1.1l0,0c0,0,0,0,0,0.1l0,0l0,0l0,0l0,0l0,0l0,0l0,0l0,0l0,0
			l0,0l0,0l0,0l0,0l0,0l0,0l0,0c0,0,0,0,0,0.1l0,0c0,0.3-0.1,0.7-0.1,1c0,0.2,0.2,0.4,0.4,0.4l0,0c0.2,0,0.4-0.2,0.4-0.4
			c0.1-0.8,0.2-1.6,0.2-2.4C37,91.5,36.8,91.3,36.6,91.3L36.6,91.3L36.6,91.3z M36.5,96.1c-0.2,0-0.4,0.2-0.4,0.4
			c0,0.4-0.1,0.8-0.1,1.2l0,0l0,0l0,0c0,0,0,0,0,0.1l0,0l0,0l0,0l0,0l0,0l0,0l0,0l0,0l0,0l0,0l0,0l0,0l0,0l0,0l0,0l0,0l0,0l0,0l0,0
			l0,0l0,0l0,0l0,0l0,0l0,0l0,0l0,0l0,0l0,0l0,0c0,0,0,0,0,0.1l0,0l0,0l0,0c0,0.2,0,0.4,0,0.7s0.2,0.4,0.4,0.4l0,0
			c0.2,0,0.4-0.2,0.4-0.4c0-0.8,0.1-1.6,0.1-2.4C36.9,96.4,36.7,96.1,36.5,96.1L36.5,96.1L36.5,96.1z M36.4,101L36.4,101
			c-0.2,0-0.4,0.2-0.4,0.4c0,0.2,0,0.6,0,0.8l0,0c0,0,0,0,0,0.1l0,0l0,0l0,0c0,0,0,0,0,0.1l0,0l0,0l0,0l0,0l0,0l0,0l0,0l0,0l0,0l0,0
			l0,0l0,0l0,0l0,0l0,0l0,0l0,0l0,0l0,0l0,0l0,0l0,0l0,0l0,0v0.1l0,0c0,0.4,0,0.7,0.1,1.1c0,0.2,0.2,0.4,0.4,0.4l0,0
			c0.2,0,0.4-0.2,0.4-0.4c-0.1-0.8-0.1-1.6-0.1-2.4C36.8,101.2,36.7,101,36.4,101L36.4,101z M36.4,105.9L36.4,105.9
			c-0.2,0-0.4,0.2-0.4,0.4l0,0l0,0l0,0l0,0c0.1,0.8,0.2,1.6,0.2,2.4c0,0.2,0.2,0.3,0.4,0.3c0,0,0,0,0.1,0c0.2,0,0.4-0.2,0.3-0.5
			c-0.1-0.8-0.2-1.6-0.2-2.4C36.8,106.1,36.6,105.9,36.4,105.9L36.4,105.9z M37.2,110.9L37.2,110.9c-0.3,0.1-0.4,0.2-0.4,0.5
			c0.1,0.5,0.2,1,0.2,1.5l0,0l0,0l0,0c0,0,0,0,0,0.1l0,0l0,0l0,0l0,0l0,0l0,0l0,0l0,0l0,0l0,0l0,0l0,0l0,0l0,0l0,0l0,0
			c0.1,0.2,0.1,0.5,0.2,0.7c0,0.2,0.2,0.3,0.4,0.3h0.1c0.2-0.1,0.3-0.2,0.3-0.5c-0.2-0.8-0.3-1.6-0.4-2.4
			C37.6,111,37.5,110.9,37.2,110.9L37.2,110.9z M38.4,115L38.4,115c-0.3,0.1-0.4,0.2-0.4,0.5l0,0l0,0l0,0l0,0l0,0l0,0l0,0l0,0l0,0
			l0,0l0,0l0,0l0,0l0,0l0,0l0,0l0,0l0,0l0,0l0,0l0,0l0,0l0,0l0,0l0,0l0,0l0,0l0,0l0,0l0,0l0,0l0,0l0,0l0,0l0,0l0,0l0,0l0,0l0,0l0,0
			c0,0,0,0,0,0.1l0,0c0.2,0.8,0.3,1.3,0.5,2c0.1,0.2,0.2,0.3,0.4,0.3h0.1c0.2-0.1,0.3-0.3,0.2-0.5C39.1,116.7,38.9,115.7,38.4,115
			C38.9,115,38.6,115,38.4,115L38.4,115z M39.4,120c-0.1,0-0.1,0-0.2,0c-0.2,0.1-0.3,0.3-0.2,0.5s0.2,0.5,0.2,0.7l0,0l0,0l0,0l0,0
			l0,0l0,0l0,0l0,0l0,0l0,0c0.2,0.5,0.3,1,0.5,1.6c0.1,0.2,0.2,0.2,0.4,0.2c0.1,0,0.1,0,0.2,0c0.2-0.1,0.3-0.3,0.2-0.5
			c-0.2-0.7-0.6-1.7-0.8-2.4C39.7,120.2,39.5,120,39.4,120L39.4,120z M41.1,125c-0.1,0-0.1,0-0.2,0c-0.2,0.1-0.3,0.3-0.2,0.6l0,0
			l0,0l0,0l0,0c0.1,0.2,0.2,0.5,0.3,0.7l0,0l0,0l0,0c0,0,0,0,0,0.1l0,0l0,0l0,0l0,0l0,0l0,0l0,0l0,0l0,0l0,0l0,0l0,0l0,0l0,0l0,0
			l0,0l0,0l0,0c0,0,0,0,0,0.1l0,0l0,0l0,0v0.1l0,0c0.2,0.4,0.3,0.7,0.5,1.1c0.1,0.2,0.2,0.2,0.4,0.2c0.1,0,0.1,0,0.2,0
			c0.2-0.1,0.3-0.3,0.2-0.6c-0.3-0.7-0.7-1.6-1-2.3C41.3,125.1,41.3,125,41.1,125L41.1,125z M43.1,129.1c-0.1,0-0.2,0-0.2,0.1
			c-0.2,0.1-0.2,0.3-0.2,0.6c0.4,0.7,0.7,1.5,1.1,2.2c0.1,0.2,0.2,0.2,0.3,0.2s0.2,0,0.2-0.1c0.2-0.1,0.2-0.3,0.2-0.6
			c-0.4-0.7-0.7-1.4-1.1-2.1C43.4,129.2,43.2,129.1,43.1,129.1L43.1,129.1z M45.5,133.3c-0.1,0-0.2,0-0.2,0.1
			c-0.2,0.1-0.2,0.3-0.2,0.6c0.4,0.7,0.7,1.2,1.1,1.8l0,0l0,0l0,0l0,0l0,0l0,0l0,0l0,0l0,0l0,0l0,0l0,0c0,0.1,0.1,0.1,0.1,0.2
			c0.1,0.1,0.2,0.2,0.3,0.2s0.2,0,0.2-0.1c0.2-0.2,0.2-0.4,0.1-0.6c-0.4-0.7-0.9-1.4-1.3-2C45.7,133.4,45.6,133.3,45.5,133.3
			L45.5,133.3z M48.1,137.4c-0.1,0-0.2,0-0.2,0.1c-0.2,0.2-0.2,0.4-0.1,0.6c0.5,0.7,1,1.3,1.5,2c0.1,0.1,0.2,0.2,0.3,0.2
			s0.2,0,0.2-0.1c0.2-0.2,0.2-0.4,0.1-0.6c-0.5-0.7-1-1.3-1.5-2C48.4,137.5,48.3,137.4,48.1,137.4L48.1,137.4z M51.1,141.3
			c-0.1,0-0.2,0-0.2,0.1c-0.2,0.2-0.2,0.4-0.1,0.6l0.1,0.1l0,0c0,0,0,0,0.1,0.1l0,0l0,0l0,0l0,0l0,0l0,0l0,0l0,0l0,0l0,0l0,0l0,0
			l0,0l0,0l0,0l0,0l0,0l0,0l0,0l0,0l0,0l0,0l0,0l0,0l0,0l0,0l0,0l0,0c0,0,0,0,0.1,0.1l0,0c0,0,0,0,0.1,0.1l0,0l0,0l0,0l0,0l0,0l0,0
			l0,0c0,0,0,0,0.1,0.1l0,0c0,0,0,0,0.1,0.1l0,0l0,0l0,0l0,0l0,0l0,0l0,0c0,0,0,0,0.1,0.1l0,0l0,0l0,0l0,0l0,0l0,0l0,0l0,0l0,0l0,0
			l0,0c0,0,0,0,0.1,0.1l0,0l0,0l0,0l0,0l0,0l0,0l0,0l0,0l0,0l0,0l0,0l0,0l0,0l0,0l0,0l0,0l0,0l0,0l0,0l0,0l0,0l0,0l0,0l0,0l0,0l0,0
			l0,0l0,0l0,0l0,0l0,0l0,0l0,0l0,0l0,0l0,0l0,0l0,0l0,0l0,0l0,0l0,0l0,0l0,0l0,0l0,0c0.1,0.1,0.2,0.2,0.3,0.2s0.2,0,0.2-0.1
			c0.2-0.2,0.2-0.4,0-0.6c-0.6-0.6-1.1-1.2-1.6-1.8C51.4,141.3,51.2,141.3,51.1,141.3L51.1,141.3z M54.4,144.9c-0.1,0-0.2,0-0.2,0.1
			c-0.2,0.2-0.2,0.4,0,0.6l0.1,0.1l0,0l0,0l0,0c0,0,0,0,0.1,0.1l0,0l0,0l0,0l0,0l0,0l0,0l0,0l0,0l0,0l0,0l0,0l0,0l0,0l0,0
			c0,0,0,0,0.1,0.1l0,0c0,0,0,0,0.1,0.1l0,0c0.4,0.4,0.8,0.8,1.3,1.2c0.1,0.1,0.2,0.1,0.2,0.1c0.1,0,0.2-0.1,0.3-0.2
			c0.2-0.2,0.2-0.4,0-0.6c-0.6-0.6-1.1-1.1-1.7-1.7C54.6,144.9,54.5,144.9,54.4,144.9L54.4,144.9z M57.9,148.3
			c-0.1,0-0.2,0.1-0.3,0.2c-0.2,0.2-0.2,0.4,0,0.6l0.1,0.1l0,0l0,0l0,0l0,0l0,0l0,0l0,0l0,0l0,0l0,0c0.4,0.3,0.8,0.7,1.2,1.1l0,0
			l0,0l0,0l0,0l0,0l0,0l0,0l0,0l0,0l0,0l0,0l0,0l0,0l0,0l0,0l0,0l0,0l0,0l0.1,0.1c0.1,0.1,0.2,0.1,0.2,0.1c0.1,0,0.2-0.1,0.3-0.2
			c0.2-0.2,0.1-0.4-0.1-0.6c-0.7-0.5-1.2-1.1-1.9-1.6C58.1,148.3,58,148.3,57.9,148.3L57.9,148.3z M61.7,151.3
			c-0.2,0-0.2,0.1-0.3,0.2c-0.2,0.2-0.1,0.4,0.1,0.6c0.1,0.1,0.2,0.2,0.3,0.2l0,0l0,0l0,0l0,0l0,0l0,0l0,0l0,0l0,0l0,0l0,0l0,0
			c0.5,0.4,1,0.7,1.6,1.1c0.1,0.1,0.2,0.1,0.2,0.1c0.2,0,0.2-0.1,0.3-0.2c0.2-0.2,0.1-0.4-0.1-0.6C63.1,152.2,62.5,151.7,61.7,151.3
			C61.8,151.4,61.7,151.3,61.7,151.3L61.7,151.3z M65.7,154c-0.2,0-0.2,0.1-0.3,0.2c-0.1,0.2-0.1,0.4,0.1,0.6
			c0.2,0.1,0.2,0.2,0.4,0.2l0,0l0,0l0,0l0,0l0,0l0,0l0,0l0,0l0,0l0,0l0,0l0,0l0,0l0,0l0,0l0,0l0,0l0,0l0,0l0,0l0,0l0,0l0,0l0,0l0,0
			l0,0l0,0l0,0l0,0l0,0l0,0l0,0l0,0l0,0l0,0l0,0l0,0l0,0c0,0,0,0,0.1,0l0,0c0,0,0.1,0,0.1,0.1l0,0c0.4,0.2,0.7,0.5,1.1,0.7
			c0.1,0,0.2,0.1,0.2,0.1c0.2,0,0.2-0.1,0.3-0.2c0.1-0.2,0.1-0.4-0.2-0.6c-0.7-0.4-1.4-0.8-2-1.3C65.8,154,65.7,154,65.7,154
			L65.7,154z M69.8,156.6c-0.2,0-0.2,0.1-0.3,0.2c-0.1,0.2,0,0.4,0.2,0.6c0.7,0.4,1.5,0.7,2.2,1.1c0.1,0,0.1,0.1,0.2,0.1
			c0.2,0,0.3-0.1,0.3-0.2c0.1-0.2,0-0.4-0.2-0.6c-0.7-0.3-1.5-0.7-2.1-1.1C70,156.6,69.9,156.6,69.8,156.6L69.8,156.6z M74.2,158.7
			c-0.2,0-0.3,0.1-0.4,0.2c-0.1,0.2,0,0.4,0.2,0.6c0.1,0.1,0.2,0.1,0.3,0.5l0,0h0.1l0,0l0,0l0,0l0,0l0,0h0.1l0,0l0,0l0,0l0,0l0,0
			l0,0l0,0l0,0l0,0l0,0l0,0l0,0l0,0l0,0l0,0l0,0l0,0l0,0c0.6-0.1,1.1,0.2,1.6,1h0.2c0.2-0.6,0.3-0.7,0.4-0.8c0.1-0.2,0-0.4-0.2-0.6
			c-0.7-0.3-1.5-0.7-2.2-1C74.3,158.7,74.2,158.7,74.2,158.7L74.2,158.7z M78.7,160.6c-0.2,0-0.3,0.1-0.4,0.2
			c-0.1,0.2,0,0.4,0.2,0.5l0,0l0,0l0,0l0,0l0,0l0,0l0,0c0.3,0.1,0.7,0.2,0.9-0.3l0,0h0.1l0,0l0,0l0,0l0,0l0,0l0,0l0,0l0,0l0,0l0,0
			l0,0l0,0l0,0l0,0l0,0l0,0c0.3,0.7,0.7,0.8,1.1,1h0.1c0.2-0.1,0.3-0.2,0.4-0.3c0.1-0.2-0.1-0.4-0.2-0.5c-0.7-0.2-1.6-0.5-2.3-0.7
			C78.8,160.6,78.7,160.6,78.7,160.6L78.7,160.6z M83.4,161.6c-0.2,0-0.3,0.1-0.4,0.3s0.1,0.4,0.2,0.5c0.7,0.2,1.4,0.4,2.1,0.6l0,0
			l0,0l0,0l0,0l0,0l0,0l0,0l0,0l0,0l0,0l0,0l0,0l0,0l0,0l0,0l0,0l0,0l0,0l0,0h0.1c0.2,0,0.3-0.2,0.4-0.3c0.1-0.2-0.1-0.4-0.3-0.5
			c-0.8-0.2-1.6-0.4-2.4-0.6C83.5,161.7,83.4,161.6,83.4,161.6L83.4,161.6z M88.1,163.1c-0.2,0-0.3,0.2-0.4,0.3
			c-0.1,0.2,0.1,0.4,0.3,0.5c0.2,0,0.3,0.1,0.4,0.1l0,0l0,0l0,0h0.1l0,0l0,0l0,0l0,0l0,0l0,0l0,0l0,0l0,0l0,0l0,0l0,0l0,0l0,0l0,0
			l0,0l0,0l0,0l0,0l0,0l0,0l0,0l0,0l0,0l0,0l0,0l0,0l0,0h0.1l0,0l0,0l0,0l0,0l0,0l0,0l0,0l0,0l0,0l0,0l0,0l0,0l0,0l0,0l0,0l0,0l0,0
			l0,0l0,0l0,0l0,0l0,0l0,0l0,0l0,0l0,0l0,0l0,0l0,0l0,0l0,0l0,0l0,0l0,0h0.1l0,0c0.3,0.1,0.7,0.1,1.1,1h0.1c0.2-0.8,0.4-1,0.4-1.1
			c0-0.2-0.1-0.4-0.3-0.5C89.7,163.5,88.9,163.3,88.1,163.1L88.1,163.1L88.1,163.1z M92.9,164c-0.2,0-0.4,0.2-0.4,0.3
			c0,0.2,0.2,0.4,0.3,0.5c0.4,0.1,0.8,0.1,1.2,0.2l0,0h0.2l0,0l0,0l0,0h0.1l0,0c0,0,0,0,0.1,0l0,0l0,0l0,0c0,0,0,0,0.1,0l0,0l0,0
			l0,0l0,0l0,0l0,0l0,0l0,0l0,0l0,0l0,0l0,0l0,0l0,0l0,0l0,0l0,0l0,0l0,0l0,0l0,0l0,0l0,0l0,0l0,0l0,0l0,0l0,0c0.2,0,0.3,0,0.5,0
			l0,0c0.2,0,0.4-0.2,0.4-0.4s-0.2-0.4-0.4-0.4C94.6,164.1,93.7,164.1,92.9,164L92.9,164L92.9,164z M97.8,164.2
			c-0.2,0-0.4,0.2-0.4,0.4s0.2,0.4,0.4,0.4c0.1,0,0.2,0,0.2,0l0,0c0,0,0,0,0.1,0l0,0l0,0l0,0l0,0l0,0l0,0l0,0l0,0l0,0l0,0l0,0l0,0
			l0,0l0,0l0,0l0,0l0,0l0,0l0,0l0,0l0,0l0,0l0,0l0,0l0,0l0,0l0,0l0,0l0,0l0,0l0,0l0,0l0,0l0,0l0,0l0,0l0,0c0,0,0,0,0.1,0l0,0l0,0
			l0,0c0,0,0,0,0.1,0l0,0l0,0l0,0c0,0,0,0,0.1,0l0,0c0.5,0,0.9,0,1.4,0l0,0l0,0l0,0l0,0l0,0l0,0l0,0l0,0l0,0c0.2,0,0.4-0.2,0.4-0.4
			s-0.2-0.4-0.4-0.4C99.4,164.3,98.6,164.3,97.8,164.2L97.8,164.2L97.8,164.2z M105.1,164L105.1,164c-0.8,0.2-1.6,0.2-2.4,0.3
			c-0.2,0-0.4,0.2-0.4,0.4s0.2,0.4,0.4,0.4l0,0c0.7,0,1.2-0.1,1.8-0.1l0,0h0.1l0,0h0.1l0,0l0,0l0,0l0,0l0,0l0,0l0,0l0,0l0,0l0,0l0,0
			l0,0l0,0l0,0l0,0l0,0l0,0l0,0l0,0l0,0h0.2c0.2,0,0.4-0.2,0.4-0.4c0.1-0.3,0-0.5-0.2-0.5V164z M109.9,164L109.9,164
			c0,0-1.6-0.2-2.4-0.1c-0.2,0-0.4,0.2-0.3,0.5c0,0.2,0.4-0.4,0.4-0.4h0.1l0.5,1l0,0c0,0,0,0,0.1,0l0,0l0,0l0,0l0,0l0,0l0,0l0,0l0,0
			l0,0l0,0l0,0l0,0l0,0l0,0l0,0l0,0l0,0l0,0l0,0l0,0l0,0l0,0c0,0,0,0,0.1,0l0,0c0.5-0.1,1.1-0.2,1.6-0.2c0.2,0,0.4-0.2,0.3-0.5
			C110.2,164.1,110.1,164,109.9,164L109.9,164z M114.7,162.7L114.7,162.7c-0.9,0.2-1.6,0.3-2.4,0.5c-0.2,0.1-0.3,0.2-0.3,0.5
			c0,0.2,0.2,0.3,0.4,0.3h0.1c0.8-0.2,1.6-0.3,2.4-0.5c0.2-0.1,0.3-0.2,0.3-0.5C115.1,162.7,114.9,162.7,114.7,162.7L114.7,162.7z
			 M119.4,161h-0.2c0,0-1.6,0.9-2.3,1.1c-0.2,0.1-0.3,0.2-0.3,0.5c0.1,0.2,0.4-0.6,0.4-0.6h0.1l0.5,1l0,0h0.1l0,0l0,0l0,0h0.1l0,0
			l0,0l0,0h0.1l0,0h0.1l0,0l0,0l0,0h0.1l0,0l0,0l0,0h0.1l0,0c0.4-0.4,1.1,0,1.1,0l0,0l0,0l0,0l0,0l0,0l0,0l0,0l0,0l0,0l0,0l0,0l0,0
			l0,0l0,0l0,0l0,0h0.1c0.2-0.7,0.3-0.9,0.2-1.1c0.1-0.5-0.1-0.5-0.2-0.5V161z M124,160h-0.2c0,0-1.5,0.3-2.3,0.6
			c-0.2,0.1-0.3,0.3-0.2,0.5s0.4,0.9,0.4,0.9h0.2l0.2-1l0,0l0,0l0,0h0.1l0,0l0,0l0,0l0,0h0.1l0,0c0.5,0,1-0.2,1.6-0.4l0,0l0,0l0,0
			l0,0l0,0l0,0l0,0l0,0l0,0l0,0c0.1-0.1,0.2-0.1,0.3-0.2c0.2-0.1,0.3-0.3,0.2-0.6c-0.1,0-0.3-0.1-0.4-0.1V160z M128.4,157.8
			c-0.1,0-0.1,0-0.2,0.1c-0.7,0.3-1.5,0.7-2.2,1.1c-0.2,0.1-0.3,0.3-0.2,0.6c0.1,0.2,0.2,0.2,0.4,0.4h0.2l0,0l0,0
			c0.2-0.3,0.5-0.4,0.7-0.5l0,0c0.1,0,0.1-0.1,0.2,0.5l0,0l0,0l0,0h0.1l0,0l0,0l0,0h0.1l0,0l0,0l0,0h0.1l0,0l0,0l0,0l0,0l0,0h0.1
			l0,0l0,0l0,0h0.1l0,0l0,0l0,0l0,0l0,0h0.1l0,0l0,0l0,0l0,0l0,0l0,0l0,0l0,0l0,0l0,0l0,0h0.1l0,0l0,0l0,0h0.1l0,0l0,0l0,0
			c0.2-0.7,0.4-0.8,0.6-0.9s0.2-0.3,0.2-0.6C128.7,157.8,128.5,157.8,128.4,157.8L128.4,157.8z M132.7,155c-0.1,0-0.2,0-0.2,0.1
			c-0.7,0.4-1.4,0.8-2.1,1.2c-0.2,0.1-0.2,0.3-0.2,0.6c0.1,0.2,0.2,0.2,0.3,0.2s0.2,0,0.2-0.1c0.6-0.3,1.2-0.7,1.8-1l0,0l0,0l0,0
			l0,0l0,0l0,0l0,0l0,0l0,0l0,0l0,0l0,0c0,0,0,0,0.1,0l0,0c0.1,0,0.1-0.1,0.2-0.1c0.2-0.1,0.2-0.3,0.2-0.6
			C132.9,155.1,132.8,155,132.7,155L132.7,155z M136.8,152.8c-0.1,0-0.2,0-0.2,0.1c-0.7,0.5-1.3,0.9-2,1.4c-0.2,0.1-0.2,0.4-0.1,0.6
			c0.1,0.1,0.2,0.2,0.3,0.2s0.2,0,0.2-0.1c0.6-0.3,1.1-0.7,1.6-1.1l0,0l0,0l0,0l0,0l0,0l0,0l0,0l0,0l0,0l0,0l0,0l0,0
			c0.1-0.1,0.2-0.2,0.3-0.2c0.2-0.2,0.2-0.4,0.1-0.6C137,152.9,136.9,152.8,136.8,152.8L136.8,152.8z M140.6,149.8
			c-0.1,0-0.2,0-0.2,0.1c-0.7,0.5-1.2,1-1.9,1.5c-0.2,0.2-0.2,0.4-0.1,0.6c0.1,0.1,0.2,0.2,0.3,0.2s0.2,0,0.2-0.1
			c0.7-0.5,1.3-1,2-1.6c0.2-0.2,0.2-0.4,0.1-0.6C140.9,149.9,140.8,149.8,140.6,149.8L140.6,149.8z M144.3,146.6
			c-0.1,0-0.2,0-0.2,0.1c-0.6,0.6-1.1,1.1-1.8,1.6c-0.2,0.2-0.2,0.4,0,0.6c0.1,0.1,0.2,0.2,0.3,0.2s0.2,0,0.2-0.1
			c0.2-0.2,0.6-0.5,0.8-0.7l0,0c0,0,0,0,0.1-0.1l0,0l0,0l0,0l0,0l0,0l0,0l0,0c0,0,0,0,0.1-0.1l0,0l0,0l0,0l0,0l0,0l0,0l0,0l0,0l0,0
			l0,0l0,0l0,0l0,0l0,0l0,0l0,0l0,0l0,0l0,0l0,0l0,0l0,0l0,0l0,0l0,0l0,0l0,0l0,0l0,0l0,0l0,0l0,0l0,0l0,0l0,0l0,0l0,0l0,0l0,0
			c0,0,0,0,0.1-0.1l0,0l0,0l0,0c0.1-0.1,0.1-0.1,0.2-0.2c0.2-0.2,0.2-0.4,0-0.6C144.5,146.7,144.4,146.6,144.3,146.6L144.3,146.6z
			 M147.7,143c-0.1,0-0.2,0.1-0.3,0.2c-0.6,0.6-1.1,1.2-1.6,1.8c-0.2,0.2-0.2,0.4,0,0.6c0.1,0.1,0.2,0.1,0.2,0.1
			c0.1,0,0.2-0.1,0.3-0.2c0,0,0,0,0.1-0.1l0,0c0,0,0,0,0.1-0.1l0,0c0,0,0,0,0.1-0.1l0,0l0,0l0,0l0,0l0,0l0,0l0,0c0,0,0,0,0.1-0.1
			l0,0c0,0,0,0,0.1-0.1l0,0l0,0l0,0l0,0l0,0l0,0l0,0c0,0,0,0,0.1-0.1l0,0c0,0,0,0,0.1-0.1l0,0l0.1-0.1l0,0c0.3-0.4,0.7-0.7,1.1-1.1
			c0.2-0.2,0.2-0.4,0-0.6C147.9,143,147.8,143,147.7,143L147.7,143z M150.8,139.4c-0.1,0-0.2,0.1-0.3,0.2c-0.5,0.7-1,1.3-1.6,1.9
			c-0.2,0.2-0.1,0.4,0.1,0.6c0.1,0.1,0.2,0.1,0.2,0.1s0.2-0.1,0.3-0.2c0.5-0.7,1-1.2,1.5-1.9l0,0l0,0l0,0c0.2-0.2,0.1-0.4-0.1-0.6
			C151,139.4,150.9,139.4,150.8,139.4L150.8,139.4z M154,135.4c-0.2,0-0.2,0.1-0.3,0.2c-0.4,0.7-0.9,1.3-1.4,2
			c-0.2,0.2-0.1,0.4,0.1,0.6c0.1,0.1,0.2,0.1,0.2,0.1c0.2,0,0.2-0.1,0.3-0.2c0.3-0.5,0.7-1,1.1-1.5l0,0l0,0l0,0c0,0,0,0,0-0.1l0,0
			l0,0l0,0l0,0l0,0l0,0l0,0l0,0l0,0l0,0l0,0l0,0l0,0l0,0l0,0l0,0l0,0l0,0l0,0l0,0l0,0l0,0l0,0l0,0l0,0l0,0l0,0l0,0l0,0l0,0l0,0l0,0
			l0,0l0,0c0,0,0-0.1,0.1-0.1c0.2-0.2,0.1-0.4-0.1-0.6C154.2,135.5,154.1,135.4,154,135.4L154,135.4z M156.1,131.2
			c-0.2,0-0.2,0.1-0.3,0.2c-0.4,0.7-0.8,1.4-1.2,2.1c-0.1,0.2-0.1,0.4,0.2,0.6c0.1,0,0.2,0.1,0.2,0.1c0.2,0,0.2-0.1,0.3-0.2
			c0-0.1,0.1-0.1-0.3-0.2l0,0l0,0l0,0l0,0l0,0l0,0l0,0l0,0l0,0l0,0l0,0l0,0v-0.1l0,0l0,0l0,0c0.6-0.2,0.7-0.6,1-0.8l0,0v-0.1l0,0
			l0,0l0,0l0,0l0,0l0,0l0,0l0,0l0,0l0,0l0,0l0,0l0,0l0,0l0,0l0,0l0,0l0,0c0.1-0.2,0.1-0.5,0.3-0.7c0.1-0.2,0-0.4-0.2-0.6
			C156.3,131.3,156.2,131.2,156.1,131.2L156.1,131.2z M158.3,127c-0.2,0-0.3,0.1-0.4,0.2c-0.3,0.7-0.7,1.5-1.1,2.2
			c-0.1,0.2,0,0.4,0.2,0.6c0.1,0,0.1,0.1,0.2,0.1c0.2,0,0.3-0.1,0.3-0.2c0.4-0.7,0.7-1.5,1.1-2.2C158.7,127.4,158.6,127.2,158.3,127
			C158.5,127,158.4,127,158.3,127L158.3,127z M160.1,122.9c-0.2,0-0.3,0.1-0.4,0.2c-0.2,0.7-0.6,1.5-0.9,2.3c-0.1,0.2,0,0.4,0.2,0.6
			c0.1,0,0.1,0,0.2,0c0.2,0,0.3-0.1,0.4-0.2c0.2-0.3,0.3-0.7,0.4-1.1l0,0l0,0l0,0l0,0l0,0l0,0l0,0l0,0l0,0l0,0l0,0l0,0l0,0l0,0l0,0
			l0,0c0,0,0,0,0-0.1l0,0l0,0l0,0v-0.1l0,0c0.1-0.3,0.2-0.6,0.3-0.9c0.1-0.2,0-0.4-0.2-0.5C160.2,122.9,160.2,122.9,160.1,122.9
			L160.1,122.9z M161.8,117.8c-0.2,0-0.3,0.1-0.4,0.3c-0.2,0.7-0.5,1.6-0.7,2.3c-0.1,0.2,0.1,0.4,0.2,0.6h0.2
			c0.2-0.1,0.3-0.2,0.4-0.3c0-0.1,0-0.1-0.5-0.2l0,0l0,0l0,0l0,0l0,0l0,0l0,0l0,0l0,0l0,0l0,0l0,0v-0.1l0,0l0,0l0,0
			c0.8-0.5,0.9-1,1-1.5l0,0l0,0l0,0l0,0l0,0l0,0l0,0l0,0l0,0l0,0v-0.1l0,0c0.1-0.1,0.2-0.2,0.2-0.4c0.1-0.2-0.1-0.4-0.2-0.5
			C161.8,117.8,161.8,117.8,161.8,117.8L161.8,117.8z M162.9,112.8c-0.2,0-0.3,0.2-0.4,0.3c-0.2,0.8-0.3,1.6-0.6,2.4
			c-0.1,0.2,0.1,0.4,0.3,0.5h0.1c0.2,0,0.3-0.2,0.4-0.3c0.1-0.5,0.2-1,0.3-1.4l0,0v-0.1l0,0c0,0,0,0,0-0.1l0,0l0,0l0,0l0,0l0,0l0,0
			l0,0l0,0l0,0l0,0l0,0l0,0l0,0l0,0l0,0l0,0l0,0l0,0l0,0l0,0l0,0l0,0l0,0l0,0c0,0,0,0,0-0.1l0,0c0-0.2,0.1-0.3,0.1-0.5
			c0.1-0.2-0.1-0.4-0.3-0.5C163,112.8,163,112.8,162.9,112.8L162.9,112.8z M163.7,108c-0.2,0-0.4,0.2-0.4,0.3
			c-0.1,0.8-0.2,1.5-0.3,2.3c0,0.2,0.1,0.4,0.3,0.5h0.1c0.2,0,0.4-0.2,0.4-0.3c0.2-0.8,0.2-1.5,0.3-2.3
			C164.1,108.2,163.9,108,163.7,108C163.8,108,163.7,108,163.7,108L163.7,108z M163.7,103.5c-0.2,0-0.4,0.2-0.4,0.4
			c-0.1,0.8-0.1,1.6-0.2,2.4c0,0.2,0.2,0.4,0.4,0.4l0,0c0.2,0,0.4-0.2,0.4-0.4c0-0.2,0-0.4,0.1-0.7l0,0v-0.1l0,0c0,0,0,0,0-0.1l0,0
			l0,0l0,0c0,0,0,0,0-0.1l0,0l0,0l0,0c0,0,0,0,0-0.1l0,0l0,0l0,0l0,0l0,0l0,0l0,0l0,0l0,0l0,0l0,0l0,0l0,0l0,0l0,0l0,0l0,0l0,0l0,0
			l0,0l0,0l0,0l0,0l0,0l0,0c0,0,0,0,0-0.1l0,0l0,0l0,0c0,0,0,0,0-0.1l0,0l0,0l0,0c0,0,0,0,0-0.1l0,0c0-0.1,0-0.1,0-0.2l0,0v-0.1l0,0
			v-0.1l0,0v-0.1l0,0v-0.1l0,0c0,0,0,0,0-0.1l0,0l0,0l0,0l0,0l0,0l0,0l0,0l0,0l0,0l0,0l0,0l0,0l0,0l0,0l0,0l0,0l0,0l0,0l0,0l0,0
			c0-0.1,0-0.2,0-0.2C164.1,103.6,164,103.5,163.7,103.5L163.7,103.5L163.7,103.5z M164.3,98.6L164.3,98.6c-0.2,0-0.4,0.2-0.3,0.4
			v1.2v1.2c-0.1,0.2,0.1,0.4,0.3,0.4l0,0c0.2,0,0.4-0.2,0.7-0.4v-0.9l0,0l0,0l0,0l0,0l0,0l0,0l0,0l0,0l0,0l0,0l0,0l0,0l0,0l0,0l0,0
			l0,0l0,0l0,0l0,0l0,0l0,0l0,0l0,0l0,0l0,0l0,0l0,0l0,0l0,0l0,0l0,0l0,0l0,0l0,0l0,0l0,0l0,0l0,0l0,0l0,0l0,0l0,0l0,0l0,0l0,0l0,0
			l0,0l0,0l0,0l0,0l0,0l0,0l0,0l0,0l0,0l0,0l0,0v-0.1l0,0v-0.7C164.7,98.7,164.5,98.6,164.3,98.6L164.3,98.6z M164,93.7L164,93.7
			c-0.2,0-0.4,0.2-0.4,0.4c0.1,0.8,0.2,1.6,0.2,2.4c0,0.2,0.2,0.4,0.4,0.4l0,0c0.2,0,0.4-0.2,0.4-0.4c-0.1-0.8-0.1-1.6-0.2-2.4
			C164.4,93.9,164.2,93.7,164,93.7L164,93.7z M163.4,89C163.4,89,163.3,89,163.4,89c-0.3,0.1-0.4,0.2-0.4,0.5
			c0.2,0.8,0.2,1.5,0.3,2.3c0,0.2,0.2,0.3,0.4,0.3c0,0,0,0,0.1,0c0.2,0,0.4-0.2,0.3-0.5c-0.1-0.8-0.2-1.5-0.3-2.3
			C163.7,89.1,163.6,89,163.4,89L163.4,89z M162.4,83.8L162.4,83.8c-0.3,0.1-0.4,0.2-0.4,0.5c0.2,0.8,0.4,1.6,0.6,2.4
			c0,0.2,0.2,0.3,0.4,0.3h0.1c0.2-0.1,0.3-0.2,0.3-0.5c0-0.2-0.1-0.3-0.1-0.5l0,0l0,0l0,0l0,0l0,0l0,0l0,0l0,0
			c-0.2-0.6-0.2-1.2-0.4-1.8C162.7,84,162.6,83.8,162.4,83.8L162.4,83.8z M161.1,80c-0.1,0-0.1,0-0.2,0c-0.2,0.1-0.3,0.3-0.2,0.5
			c0.2,0.7,0.5,1.5,0.7,2.2c0.1,0.2,0.2,0.3,0.4,0.3h0.1c0.2-0.1,0.3-0.3,0.2-0.5c0-0.1-0.1-0.2-0.1-0.2l0,0l0,0l0,0c0,0,0,0,0-0.1
			l0,0l0,0l0,0l0,0l0,0l0,0l0,0l0,0l0,0l0,0c0,0,0,0,0-0.1l0,0l0,0l0,0c-0.2-0.4-0.2-0.9-0.4-1.3l0,0l0,0l0,0l0,0l0,0l0,0l0,0l0,0
			l0,0l0,0l0,0l0,0l0,0l0,0c0-0.1-0.1-0.2-0.1-0.3C161.5,80,161.3,80,161.1,80L161.1,80z M159,75c-0.1,0-0.1,0-0.2,0
			c-0.2,0.1-0.3,0.3-0.2,0.6c0.3,0.7,0.6,1.5,0.9,2.2c0.1,0.2,0.2,0.2,0.4,0.2c0.1,0,0.1,0,0.2,0c0.2-0.1,0.3-0.3,0.2-0.5
			c-0.1-0.2-0.2-0.6-0.3-0.8l0,0v-0.1l0,0l0,0l0,0c0,0,0,0,0-0.1l0,0l0,0l0,0l0,0l0,0l0,0l0,0l0,0l0,0l0,0l0,0l0,0l0,0l0,0l0,0l0,0
			l0,0l0,0c0,0,0,0,0-0.1l0,0c-0.2-0.3-0.2-0.7-0.4-1.1C159.3,75.1,159.2,75,159,75L159,75z M157.3,70.9c-0.1,0-0.2,0-0.2,0.1
			c-0.2,0.1-0.2,0.3-0.2,0.6c0.3,0.7,0.7,1.5,1.1,2.2c0.1,0.2,0.2,0.2,0.4,0.2c0.1,0,0.1,0,0.2,0c0.2-0.1,0.3-0.3,0.2-0.6
			c0-0.1-0.1-0.2-0.1-0.2l0,0l0,0l0,0l0,0l0,0l0,0l0,0l0,0l0,0l0,0c-0.3-0.7-0.6-1.2-0.9-1.8l0,0l0,0l0,0l0,0l0,0l0,0
			C157.6,71,157.4,70.9,157.3,70.9L157.3,70.9z M155.2,66.2c-0.1,0-0.2,0-0.2,0.1c-0.2,0.1-0.2,0.4-0.2,0.6c0.4,0.7,0.8,1.4,1.2,2.1
			c0.1,0.2,0.2,0.2,0.3,0.2s0.2,0,0.2-0.1c0.2-0.1,0.2-0.3,0.2-0.6l0,0l0,0l0,0l0,0c-0.2-0.4-0.5-0.9-0.7-1.3l0,0l0,0l0,0l0,0l0,0
			l0,0l0,0l0,0l0,0l0,0l0,0l0,0l0,0l0,0l0,0l0,0l0,0l0,0l0,0l0,0l0,0l0,0l0,0l0,0l0,0l0,0l0,0l0,0l0,0l0,0c0,0,0,0,0-0.1l0,0l0,0
			l0,0V67l0,0c0,0,0-0.1-0.1-0.1l0,0c0-0.1-0.1-0.1-0.1-0.2l0,0l0,0l0,0l0,0l0,0l0,0l0,0l0,0l0,0C155.5,66.3,155.4,66.2,155.2,66.2
			L155.2,66.2z M152.3,62.2c-0.1,0-0.2,0-0.2,0.1c-0.2,0.2-0.2,0.4-0.1,0.6c0.5,0.7,0.9,1.3,1.4,2c0.1,0.1,0.2,0.2,0.3,0.2
			s0.2,0,0.2-0.1c0.2-0.2,0.2-0.4,0.1-0.6c-0.2-0.4-0.6-0.8-0.8-1.2l0,0c0,0,0,0-0.1-0.1l0,0l0,0l0,0l0,0l0,0l0,0l0,0l0,0l0,0l0,0
			l0,0l0,0l0,0l0,0l0,0l0,0l0,0l0,0l0,0l0,0l0,0l0,0l0,0l0,0l0,0l0,0l0,0l0,0l0,0l0,0l0,0l0,0l0,0l0,0l0,0l0,0l0,0l0,0l0,0l0,0l0,0
			l0,0l0,0l0,0l0,0l0,0l0,0l0,0l0,0l0,0l0,0l0,0l0,0l0,0l0,0l0,0l0,0l0,0l0,0l0,0l0,0c0,0,0-0.1-0.1-0.1
			C152.5,62.2,152.4,62.2,152.3,62.2L152.3,62.2z M149.5,58.3c-0.1,0-0.2,0-0.2,0.1c-0.2,0.2-0.2,0.4-0.1,0.6
			c0.5,0.7,1.1,1.2,1.6,1.9c0.1,0.1,0.2,0.2,0.3,0.2s0.2,0,0.2-0.1c0.2-0.2,0.2-0.4,0.1-0.6c-0.1-0.2-0.2-0.3-0.3-0.5l0,0
			c0,0,0,0-0.1-0.1l0,0l0,0l0,0l0,0l0,0l0,0l0,0l0,0l0,0l0,0l0,0l0,0l0,0l0,0l0,0l0,0l0,0l0,0l0,0l0,0l0,0l0,0l0,0l0,0l0,0l0,0l0,0
			l0,0l0,0l0,0l0,0l0,0l0,0l0,0l0,0l0,0l0,0l0,0l0,0l0,0l0,0l0,0c0,0,0,0,0-0.1l0,0l0,0l0,0l0,0l0,0l0,0l0,0l0,0l0,0l0,0l0,0
			c0,0,0,0-0.1-0.1l0,0l0,0l0,0l0,0l0,0l0,0l0,0l0,0l0,0l0,0l0,0l0,0l0,0l0,0l0,0l0,0l0,0l0,0l0,0l0,0l0,0l0,0l0,0l0,0l0,0l0,0l0,0
			l0,0l0,0l0,0l0,0l0,0l0,0l0,0l0,0l0,0C149.7,58.3,149.6,58.3,149.5,58.3L149.5,58.3z M146,54.7c-0.1,0-0.2,0-0.2,0.1
			c-0.2,0.2-0.2,0.4,0,0.6c0.6,0.6,1.1,1.1,1.6,1.8c0.1,0.1,0.2,0.2,0.3,0.2s0.2,0,0.2-0.1c0.2-0.2,0.2-0.4,0-0.6l0,0l0,0l0,0l0,0
			l0,0l0,0l0,0l0,0l0,0l0,0l0,0l0,0l0,0l0,0l0,0l0,0l0,0l0,0c0,0,0,0-0.1-0.1l0,0l0,0l0,0l0,0l0,0l0,0l0,0l0,0l0,0l0,0l0,0l0,0l0,0
			l0,0l0,0l0,0l0,0l0,0l0,0l0,0l0,0l0,0l0,0l0,0l0,0l0,0l0,0l0,0l0,0l0,0l0,0l0,0l0,0l0,0l0,0l0,0l0,0l0,0l0,0l0,0l0,0l0,0
			c0,0,0,0-0.1-0.1l0,0l0,0l0,0l0,0l0,0l0,0l0,0c-0.2-0.2-0.5-0.5-0.7-0.7C146.2,54.7,146.1,54.7,146,54.7L146,54.7z M142.5,51.6
			c-0.1,0-0.2,0.1-0.3,0.2c-0.2,0.2-0.2,0.4,0,0.6c0.6,0.6,1.2,1.1,1.8,1.6c0.1,0.1,0.2,0.1,0.2,0.1s0.2-0.1,0.3-0.2
			c0.2-0.2,0.2-0.4,0-0.6c0,0,0,0-0.1-0.1l0,0c0,0,0,0-0.1-0.1l0,0l0,0l0,0l0,0l0,0l0,0l0,0l0,0l0,0l0,0l0,0l0,0l0,0l0,0l0,0l0,0
			l0,0l0,0c0,0,0,0-0.1-0.1l0,0c0,0,0,0-0.1-0.1l0,0l0,0l0,0c0,0,0,0-0.1-0.1l0,0c-0.2-0.2-0.3-0.3-0.6-0.5l0,0c0,0,0,0-0.1-0.1l0,0
			c0,0,0,0-0.1-0.1l0,0l0,0l0,0l0,0l0,0l0,0l0,0l0,0l0,0l0,0l0,0l0,0l0,0l0,0l0,0l0,0l0,0l0,0l0,0l0,0l0,0l0,0l0,0l0,0l0,0l0,0l0,0
			l0,0l0,0l0,0l0,0l0,0l0,0l0,0l0,0l0,0l0,0l0,0c0,0,0,0-0.1-0.1l0,0c0,0,0,0-0.1,0C142.7,51.7,142.6,51.6,142.5,51.6L142.5,51.6z
			 M138.7,48.7c-0.2,0-0.2,0.1-0.3,0.2c-0.2,0.2-0.1,0.4,0.1,0.6c0.7,0.5,1.3,1,1.9,1.5c0.1,0.1,0.2,0.1,0.2,0.1s0.2-0.1,0.3-0.2
			c0.2-0.2,0.1-0.4-0.1-0.6c-0.2-0.1-0.2-0.2-0.4-0.3l0,0l0,0l0,0l0,0l0,0l0,0l0,0l0,0l0,0l0,0l0,0l0,0l0,0l0,0l0,0l0,0l0,0l0,0l0,0
			l0,0l0,0l0,0l0,0l0,0l0,0l0,0l0,0l0,0l0,0l0,0c0,0,0,0-0.1,0l0,0l0,0l0,0c0,0,0,0-0.1-0.1l0,0c-0.3-0.2-0.7-0.6-1.1-0.8
			C138.9,48.7,138.8,48.7,138.7,48.7L138.7,48.7z M134.7,45.4c-0.2,0-0.2,0.1-0.3,0.2c-0.1,0.2-0.1,0.4,0.1,0.6
			c0.7,0.4,1.4,0.9,2,1.4c0.1,0.1,0.2,0.1,0.2,0.1c0.2,0,0.2-0.1,0.3-0.2c0.2-0.2,0.1-0.4-0.1-0.6c-0.1-0.1-0.2-0.2-0.2-0.2l0,0l0,0
			l0,0l0,0l0,0l0,0l0,0l0,0l0,0l0,0l0,0l0,0l0,0l0,0c-0.6-0.4-1.1-0.7-1.6-1.1C134.9,45.5,134.8,45.4,134.7,45.4L134.7,45.4z
			 M130.6,43c-0.2,0-0.2,0.1-0.3,0.2c-0.1,0.2,0,0.4,0.2,0.6c0.7,0.4,1.4,0.8,2.1,1.2c0.1,0,0.2,0.1,0.2,0.1c0.2,0,0.2-0.1,0.3-0.2
			c0.1-0.2,0.1-0.4-0.2-0.9l0,0l0,0h-0.1l0,0l0,0l0,0l0,0l0,0l0,0l0,0l0,0l0,0l0,0l0,0l0,0l0,0l0,0l0,0l0,0l0,0l0,0l0,0l0,0h-0.1
			l0,0l0,0l0,0c-0.5,0-1.1-0.3-1.6-1l0,0H131l0,0l0,0l0,0l0,0c-0.1,0.4-0.2,0.3-0.2,0.3C130.7,43,130.7,43,130.6,43L130.6,43z
			 M126.2,40.8c-0.2,0-0.3,0.1-0.4,0.2c-0.1,0.2,0,0.4,0.2,0.6c0.7,0.3,1.5,0.7,2.2,1.1c0.1,0,0.1,0.1,0.2,0.1
			c0.2,0,0.3-0.1,0.3-0.2c0.1-0.2,0-0.4-0.2-0.6c-0.2-0.1-0.3-0.2-0.4-1l0,0H128l0,0l0,0l0,0l0,0l0,0l0,0l0,0l0,0l0,0l0,0l0,0l0,0
			h-0.1l0,0c-0.2,0.7-0.4,0.6-0.7,1l0,0l0,0l0,0h-0.1l0,0l0,0l0,0l0,0l0,0l0,0l0,0l0,0l0,0l0,0l0,0l0,0l0,0l0,0l0,0l0,0l0,0l0,0H127
			l0,0c-0.2-0.6-0.4-0.7-0.6-0.7C126.3,40.8,126.2,40.8,126.2,40.8L126.2,40.8z M121.8,39.5c-0.2,0-0.3,0.1-0.4,0.2
			c-0.1,0.2,0,0.4,0.2,0.5c0.6,0.2,1.5,0.5,2.1,0.8c0.1,0,0.1,0,0.2,0c0.2,0,0.3-0.1,0.4-0.2c0.1-0.2,0-0.4-0.2-0.5
			c-0.2-0.1-0.5-0.2-0.7-0.3l0,0h-0.2l0,0l0,0l0,0l0,0l0,0l0,0l0,0l0,0l0,0l0,0l0,0l0,0l0,0l0,0l0,0l0,0l0,0l0,0l0,0l0,0l0,0l0,0
			l0,0l0,0l0,0l0,0c0,0,0,0-0.1,0l0,0l0,0l0,0c0,0,0,0-0.1,0l0,0c-0.3-0.2-0.6-0.2-0.9-0.4C121.9,39.5,121.9,39.5,121.8,39.5
			L121.8,39.5z M117,37.5c-0.2,0-0.3,0.1-0.4,0.3s0.1,0.4,0.3,0.5c0.7,0.2,1.6,0.4,2.3,0.7c0.1,0,0.1,0,0.2,0c0.2,0,0.3-0.1,0.4-0.2
			c0.1-0.2-0.1-0.4-0.2-0.5c-0.8-0.2-1.6-0.5-2.4-0.7C117.1,37.5,117.1,37.5,117,37.5L117,37.5z M112.3,37c-0.2-0.6-0.3-0.4-0.4-0.3
			c-0.1,0.2,0.1,0.4,0.3,0.5c0.8,0.2,1.6,0.3,2.4,0.8h0.1c0.2-0.3,0.3-0.5,0.4-0.6c0.1-0.2-0.1-0.4-0.3-0.5l0,0l0,0l0,0l0,0
			C113.9,36.8,113.2,36.6,112.3,37L112.3,37L112.3,37z M107.5,35.7c-0.2,0-0.4,0.2-0.4,0.3c0,0.2,0.2,0.4,0.3,0.5
			c0.8,0.1,1.6,0.2,2.4,0.5h0.1c0.2-0.2,0.4-0.4,0.4-0.5c0-0.2-0.1-0.4-0.3-0.5c-0.2,0-0.4-0.1-0.6,0l0,0l0,0l0,0l0,0l0,0l0,0l0,0
			l0,0l0,0l0,0l0,0l0,0l0,0l0,0h-0.1l0,0l0,0l0,0C108.6,35.9,108,35.8,107.5,35.7L107.5,35.7L107.5,35.7z M102.6,35.4
			c-0.2,0-0.4,0.2-0.4,0.4s0.2,0.4,0.4,0.4c0.8,0,1.6,0.1,2.4,0.2l0,0c0.2,0,0.4-0.2,0.4-0.4s-0.2-0.4-0.4-0.4
			C104.3,35.5,103.5,35.4,102.6,35.4L102.6,35.4L102.6,35.4z M100.2,36.3L100.2,36.3L100.2,36.3L100.2,36.3z M100.2,36.3L100.2,36.3
			L100.2,36.3L100.2,36.3z M100.2,36.3L100.2,36.3L100.2,36.3L100.2,36.3z M100.2,36.3L100.2,36.3L100.2,36.3L100.2,36.3z
			 M100.2,36.3L100.2,36.3L100.2,36.3L100.2,36.3z M100.2,36.3L100.2,36.3L100.2,36.3L100.2,36.3z M100.2,36.3L100.2,36.3
			L100.2,36.3L100.2,36.3z M100.2,36.3L100.2,36.3L100.2,36.3L100.2,36.3z M100.2,36.3L100.2,36.3L100.2,36.3L100.2,36.3z
			 M100.2,36.3L100.2,36.3L100.2,36.3L100.2,36.3z M100.2,36.3L100.2,36.3L100.2,36.3L100.2,36.3z M100.2,36.3L100.2,36.3
			L100.2,36.3L100.2,36.3z"/>
	</g>
</g>
<image style="overflow:visible;" width="559" height="588" xlink:href="../studio.png"  transform="matrix(0.1431 0 0 0.1431 60 58)">
</image>
</svg>
